<svg width="73" height="55" viewBox="0 0 73 55" fill="none" xmlns="http://www.w3.org/2000/svg">
<path d="M6.46961 41.6758C10.7754 41.6758 12.9705 44.4316 12.9705 47.1039V53.0331H10.1V47.1039C10.1 45.4337 9.08684 42.6779 6.46961 42.6779C3.85239 42.6779 2.83927 45.4337 2.83927 47.1039V53.0331H0.0531893V47.1039C-0.0312373 44.4316 1.995 41.6758 6.46961 41.6758Z" fill="#FF6C0E"/>
<path d="M44.6305 53.367C40.3247 53.367 38.1296 50.6112 38.1296 47.9389V42.0098H40.9157V47.9389C40.9157 49.6091 41.9288 52.3649 44.5461 52.3649C47.1633 52.3649 48.1764 49.6091 48.1764 47.9389V42.0098H50.9625V47.9389C50.9625 50.5277 48.9362 53.367 44.6305 53.367Z" fill="#FF6C0E"/>
<path d="M24.0304 52.365C23.355 52.866 22.6796 53.2001 21.6664 53.3671C18.8804 53.8681 14.9967 51.8639 14.8279 47.7719C14.659 43.68 18.7959 41.8428 21.4976 41.8428C25.9722 42.0098 27.6607 45.4337 27.6607 47.4379V53.2001H24.8747V47.4379C24.8747 46.1018 24.1992 43.0119 21.4132 43.0119C18.6271 43.0119 17.7828 45.6007 17.7828 47.4379C17.7828 48.7741 18.1205 51.6969 21.2443 51.8639C22.2574 51.8639 23.6083 51.6969 24.0304 51.3628V52.365Z" fill="#FF6C0E"/>
<path d="M36.5255 54.7865C36.1878 54.9536 35.1746 55.1206 34.0771 54.7865C32.7263 54.4525 30.6156 53.7844 30.6156 49.3584V36.9155H33.1484V41.8426H35.6812V43.6798H33.1484V50.11C33.1484 52.5318 33.8238 53.5339 34.4992 53.7009C35.1746 54.0349 36.3566 53.8679 36.5255 53.8679V54.7865Z" fill="#FF6C0E"/>
<path d="M53.5796 46.9367C53.5796 44.1809 55.0993 42.1767 57.5477 42.0097C59.4051 41.8426 59.9116 42.1767 59.9116 42.1767V43.3458C59.9116 43.3458 58.8985 43.0118 57.8854 43.3458C56.7034 43.6798 56.1968 45.5171 56.1968 45.9346V53.2834H53.4108L53.5796 46.9367Z" fill="#FF6C0E"/>
<path d="M69.3674 52.365C68.692 52.866 68.0166 53.2001 67.0035 53.3671C64.2174 53.8681 60.3338 51.8639 60.1649 47.7719C59.9961 43.68 64.133 41.8428 66.8346 41.8428C71.3092 42.0098 72.9978 45.4337 72.9978 47.4379V53.2001H70.2117V47.4379C70.2117 46.1018 69.5363 43.0119 66.7502 43.0119C63.9641 43.0119 63.1199 45.6007 63.1199 47.4379C63.1199 48.7741 63.4576 51.6969 66.5813 51.8639C67.5945 51.8639 68.9453 51.6969 69.3674 51.3628V52.365Z" fill="#FF6C0E"/>
<path d="M36.8285 10.0079C35.9963 12.7951 35.8357 13.4521 35.332 14.9324C35.0035 16.0805 34.3392 16.5715 33.507 16.5715C32.8427 16.5715 32.1784 16.2466 31.682 15.5895C30.1855 13.7843 28.1999 11.156 27.0392 9.68295C25.5427 8.04385 22.0606 6.56361 20.2356 8.70093C17.7463 11.8203 20.732 15.4306 22.557 17.5607C22.7249 17.7268 22.8855 17.8857 22.8855 18.0517C23.214 18.5427 23.7177 18.8749 24.0462 19.3659C24.8784 20.3479 25.7033 21.005 25.2069 21.6621C25.039 21.987 24.5426 22.1531 24.0462 22.1531C22.7176 22.1531 18.4033 21.005 17.4105 20.8389C16.5783 20.6728 15.914 20.6728 15.5855 21.3299C15.257 22.1531 16.4177 24.2832 19.2355 25.7634C22.0533 27.2437 26.7034 27.8935 27.0319 28.0596C28.689 28.3845 28.3605 29.2077 28.0247 29.6987L27.6962 30.0236C27.3677 30.3486 27.1998 30.5146 27.1998 30.8468C27.3677 31.8288 29.6891 32.161 31.0177 32.327C32.3463 32.4931 34.0034 32.652 35.1641 32.161C36.3248 31.6699 36.3248 31.0129 37.157 30.6807C37.9892 30.3558 38.3177 30.5146 39.3105 30.6807C39.639 30.8468 40.1427 30.8468 40.807 31.0056C42.3035 31.3306 44.7855 31.0056 46.282 30.5146C48.9392 29.6915 50.0999 28.7095 50.0999 28.3845C50.0999 28.0596 49.6035 27.8935 49.1071 27.8935C48.6107 27.7275 46.6178 27.4025 45.9535 27.0704C45.2892 26.5794 45.7856 25.9223 47.1142 25.4313C48.4428 24.9403 52.7571 23.1351 54.4142 21.6549C56.0713 20.1746 57.5678 17.7196 56.2392 16.4054C55.0785 15.0912 53.0856 16.0805 51.757 16.7303C51.5891 16.8964 51.4285 16.8964 51.2606 17.0553C49.6035 17.8784 46.7784 19.3515 45.7856 19.5175C44.9534 19.6836 43.4642 19.6836 44.1285 17.7124C44.9607 15.4162 45.4571 13.9359 45.9535 12.4629C46.6178 10.6577 47.6106 6.39031 43.2963 5.07615C40.15 3.93528 37.9965 6.56361 36.8285 10.0079ZM32.85 11.322C32.85 11.322 34.1786 6.88854 35.1714 4.92451C36.8285 1.6391 39.8215 0 42.9678 0C43.4642 0 43.9606 0 44.2964 0.166076C50.7642 1.31417 50.9321 7.87777 50.4357 10.174C49.9393 12.3041 49.1071 14.4414 48.9392 15.0985V15.2645C49.4356 15.0985 51.757 13.9504 54.2463 12.8023C56.7356 11.8203 61.2178 11.8203 60.0498 16.7376C58.8891 21.8281 53.0783 24.7814 52.4213 24.9403C51.9249 25.2652 51.0927 25.5973 50.9248 25.7634C50.7569 25.9295 50.7569 25.9295 50.9248 25.9295C51.0927 25.9295 51.2533 25.9295 51.5891 26.0956C52.4213 26.0956 53.582 26.2617 53.582 26.9187C53.582 27.9007 52.0855 29.381 47.9391 31.1862C43.6248 33.1574 39.9748 32.1682 38.982 32.0093C38.6535 32.3343 36.6606 34.3055 31.0177 33.1574C26.8713 32.5003 25.8712 32.0093 24.8784 30.8612C24.5499 30.5363 24.382 30.0381 24.7105 29.2221C24.8784 29.0561 24.8784 28.8972 24.7105 28.8972C18.4033 27.583 14.5927 23.6478 13.2641 21.1855C12.5998 19.8713 12.7677 19.0554 13.0962 18.5572C13.5926 17.734 15.2497 17.734 16.9141 18.2322C18.907 18.7233 19.8998 19.0554 20.2356 19.0554C20.4035 19.0554 20.4035 19.0554 20.2356 18.8893C19.7392 18.2322 18.0821 16.1021 17.2499 14.788C15.7534 12.4918 13.9284 6.58527 18.7464 4.12301C23.8929 1.33583 28.5357 6.25312 29.5285 7.40843C30.3607 8.55652 32.1857 10.8527 32.3463 11.1848C32.6821 11.6542 32.85 11.322 32.85 11.322Z" fill="url(#paint0_linear_236_41)"/>
<defs>
<linearGradient id="paint0_linear_236_41" x1="39.9174" y1="30.5386" x2="35.4292" y2="12.6252" gradientUnits="userSpaceOnUse">
<stop stop-color="#FF6C0E"/>
<stop offset="1" stop-color="#FFBF00"/>
</linearGradient>
</defs>
</svg>
