<svg width="30" height="24" viewBox="0 0 30 24" fill="none" xmlns="http://www.w3.org/2000/svg">
<path fill-rule="evenodd" clip-rule="evenodd" d="M0 2.97801C0 2.18819 0.313754 1.43072 0.872239 0.872239C1.43072 0.313754 2.18819 0 2.97801 0H26.8021C27.5919 0 28.3494 0.313754 28.9079 0.872239C29.4663 1.43072 29.7801 2.18819 29.7801 2.97801C29.7801 3.76783 29.4663 4.5253 28.9079 5.08378C28.3494 5.64227 27.5919 5.95602 26.8021 5.95602H2.97801C2.18819 5.95602 1.43072 5.64227 0.872239 5.08378C0.313754 4.5253 0 3.76783 0 2.97801ZM0 11.912C0 11.1222 0.313754 10.3648 0.872239 9.80627C1.43072 9.24778 2.18819 8.93403 2.97801 8.93403H26.8021C27.5919 8.93403 28.3494 9.24778 28.9079 9.80627C29.4663 10.3648 29.7801 11.1222 29.7801 11.912C29.7801 12.7019 29.4663 13.4593 28.9079 14.0178C28.3494 14.5763 27.5919 14.89 26.8021 14.89H2.97801C2.18819 14.89 1.43072 14.5763 0.872239 14.0178C0.313754 13.4593 0 12.7019 0 11.912ZM0 20.8461C0 20.0563 0.313754 19.2988 0.872239 18.7403C1.43072 18.1818 2.18819 17.8681 2.97801 17.8681H26.8021C27.5919 17.8681 28.3494 18.1818 28.9079 18.7403C29.4663 19.2988 29.7801 20.0563 29.7801 20.8461C29.7801 21.6359 29.4663 22.3934 28.9079 22.9518C28.3494 23.5103 27.5919 23.8241 26.8021 23.8241H2.97801C2.18819 23.8241 1.43072 23.5103 0.872239 22.9518C0.313754 22.3934 0 21.6359 0 20.8461Z" fill="#37DBC2"/>
</svg>
