<svg width="26" height="26" viewBox="0 0 26 26" fill="none" xmlns="http://www.w3.org/2000/svg">
<circle cx="12.6388" cy="12.6388" r="12.6388" fill="#A73AA7" fill-opacity="0.3"/>
<path d="M18.9996 15.733V17.69C19.0003 17.8717 18.963 18.0515 18.8901 18.218C18.8172 18.3845 18.7102 18.5339 18.5761 18.6567C18.442 18.7795 18.2836 18.873 18.1111 18.9312C17.9387 18.9894 17.756 19.0111 17.5747 18.9947C15.5633 18.7766 13.6313 18.0907 11.9338 16.992C10.3545 15.9905 9.01552 14.6541 8.01197 13.078C6.90731 11.3761 6.21986 9.43855 6.00531 7.42217C5.98897 7.24177 6.01045 7.05996 6.06838 6.88831C6.12631 6.71665 6.21942 6.55892 6.34178 6.42514C6.46413 6.29137 6.61306 6.18449 6.77907 6.1113C6.94509 6.03812 7.12455 6.00023 7.30604 6.00006H9.26695C9.58416 5.99695 9.89169 6.10906 10.1322 6.31549C10.3727 6.52193 10.5298 6.80861 10.5742 7.12209C10.657 7.74838 10.8105 8.36332 11.0318 8.95517C11.1197 9.18866 11.1387 9.44241 11.0866 9.68637C11.0345 9.93032 10.9134 10.1542 10.7376 10.3316L9.90751 11.1601C10.838 12.7933 12.1929 14.1455 13.8293 15.0741L14.6595 14.2457C14.8372 14.0703 15.0615 13.9494 15.306 13.8974C15.5504 13.8453 15.8047 13.8643 16.0386 13.9521C16.6317 14.173 17.2478 14.3261 17.8753 14.4087C18.1929 14.4534 18.4828 14.6131 18.6901 14.8572C18.8974 15.1014 19.0076 15.4131 18.9996 15.733Z" stroke="white" stroke-width="2" stroke-linecap="round" stroke-linejoin="round"/>
</svg>
