<svg width="58" height="58" viewBox="0 0 58 58" fill="none" xmlns="http://www.w3.org/2000/svg">
<path d="M24.1666 31.4167C25.2045 32.8041 26.5286 33.9522 28.0491 34.7829C29.5697 35.6137 31.2511 36.1077 32.9794 36.2315C34.7076 36.3552 36.4423 36.1059 38.0657 35.5003C39.6891 34.8947 41.1633 33.9471 42.3883 32.7217L49.6383 25.4717C51.8394 23.1927 53.0573 20.1404 53.0298 16.9722C53.0022 13.804 51.7315 10.7734 49.4911 8.53302C47.2508 6.29268 44.2201 5.02188 41.0519 4.99435C37.8837 4.96682 34.8314 6.18475 32.5525 8.38583L28.3958 12.5183" stroke-width="5" stroke-linecap="round" stroke-linejoin="round"/>
<path d="M33.8333 26.5833C32.7955 25.1959 31.4714 24.0478 29.9508 23.2171C28.4303 22.3863 26.7489 21.8923 25.0206 21.7685C23.2923 21.6448 21.5577 21.8941 19.9342 22.4997C18.3108 23.1053 16.8366 24.0529 15.6117 25.2783L8.36166 32.5283C6.16058 34.8073 4.94265 37.8596 4.97018 41.0278C4.99771 44.196 6.26851 47.2266 8.50885 49.467C10.7492 51.7073 13.7799 52.9781 16.9481 53.0057C20.1163 53.0332 23.1686 51.8153 25.4475 49.6142L29.58 45.4817" stroke-width="5" stroke-linecap="round" stroke-linejoin="round"/>
</svg>
