<svg width="80" height="80" viewBox="0 0 80 80" fill="none" xmlns="http://www.w3.org/2000/svg">
<path d="M50 36.6668L40 26.6668M40 26.6668L30 36.6668M40 26.6668V53.3335M24 66.6668H56C59.7336 66.6668 61.6006 66.6668 63.0266 65.9402C64.281 65.3012 65.301 64.2812 65.94 63.0268C66.6666 61.6008 66.6666 59.7338 66.6666 56.0002V24.0002C66.6666 20.2665 66.6666 18.3996 65.94 16.9736C65.301 15.7191 64.281 14.6993 63.0266 14.0601C61.6006 13.3335 59.7336 13.3335 56 13.3335H24C20.2663 13.3335 18.3994 13.3335 16.9734 14.0601C15.7189 14.6993 14.6991 15.7191 14.0599 16.9736C13.3333 18.3996 13.3333 20.2665 13.3333 24.0002V56.0002C13.3333 59.7338 13.3333 61.6008 14.0599 63.0268C14.6991 64.2812 15.7189 65.3012 16.9734 65.9402C18.3994 66.6668 20.2663 66.6668 24 66.6668Z" stroke-width="5" stroke-linecap="round" stroke-linejoin="round"/>
</svg>
