<svg width="26" height="26" viewBox="0 0 26 26" fill="none" xmlns="http://www.w3.org/2000/svg">
<circle cx="12.9176" cy="12.6388" r="12.6388" fill="#A73AA7" fill-opacity="0.3"/>
<path d="M16.6009 14.4625C16.4565 14.3903 15.5176 13.957 15.3731 13.8847C15.2287 13.8125 15.0843 13.8125 14.9398 13.957C14.7954 14.1014 14.5065 14.5347 14.362 14.6792C14.2898 14.8236 14.1454 14.8236 14.0009 14.7514C13.4954 14.5347 12.9898 14.2458 12.5565 13.8847C12.1954 13.5236 11.8343 13.0903 11.5454 12.657C11.4732 12.5125 11.5454 12.3681 11.6176 12.2959C11.6898 12.2236 11.762 12.0792 11.9065 12.007C11.9787 11.9347 12.0509 11.7903 12.0509 11.7181C12.1232 11.6459 12.1232 11.5014 12.0509 11.4292C11.9787 11.357 11.6176 10.4903 11.4732 10.1292C11.4009 9.62365 11.2565 9.62365 11.112 9.62365H10.7509C10.6065 9.62365 10.3898 9.76809 10.3176 9.84031C9.88428 10.2736 9.66761 10.7792 9.66761 11.357C9.73983 12.007 9.9565 12.657 10.3898 13.2347C11.1843 14.3903 12.1954 15.3292 13.4231 15.9069C13.7843 16.0514 14.0731 16.1958 14.4343 16.2681C14.7954 16.4125 15.1565 16.4125 15.5898 16.3403C16.0954 16.2681 16.5287 15.9069 16.8176 15.4736C16.962 15.1847 16.962 14.8958 16.8898 14.607L16.6009 14.4625ZM18.4065 7.89032C15.5898 5.07367 11.0398 5.07367 8.22317 7.89032C5.91207 10.2014 5.47874 13.7403 7.06762 16.5569L6.05652 20.2403L9.88428 19.2292C10.9676 19.8069 12.1232 20.0958 13.2787 20.0958C17.2509 20.0958 20.4287 16.9181 20.4287 12.9459C20.5009 11.0681 19.7065 9.26254 18.4065 7.89032ZM16.4565 18.0014C15.5176 18.5792 14.4343 18.9403 13.2787 18.9403C12.1954 18.9403 11.1843 18.6514 10.2454 18.1458L10.0287 18.0014L7.78984 18.5792L8.36762 16.4125L8.22317 16.1958C6.48985 13.307 7.35651 9.69587 10.1732 7.89032C12.9898 6.08478 16.6009 7.02366 18.3342 9.76809C20.0676 12.5847 19.2731 16.2681 16.4565 18.0014Z" fill="white"/>
</svg>
