<svg width="104" height="128" viewBox="0 0 104 128" fill="none" xmlns="http://www.w3.org/2000/svg">
<path opacity="0.2" d="M75.13 12.3199L92.13 109.75C92.3942 111.281 92.0405 112.855 91.1464 114.126C90.2522 115.397 88.8906 116.261 87.36 116.53L26.36 127.17C25.6014 127.304 24.8239 127.286 24.0722 127.118C23.3204 126.951 22.6092 126.636 21.9792 126.193C21.3493 125.75 20.8131 125.187 20.4014 124.536C19.9896 123.885 19.7105 123.159 19.58 122.4L2.57996 24.9699L75.13 12.3199Z" fill="black"/>
<path d="M101.87 97.58L79.15 8.32002L56.52 1.02002L4.61999 14.22C4.07091 14.3589 3.5546 14.6047 3.10056 14.9433C2.64653 15.2819 2.26369 15.7067 1.97393 16.1934C1.68417 16.68 1.49317 17.219 1.41184 17.7795C1.33052 18.34 1.36048 18.9111 1.49999 19.46L26.28 116.81C26.5629 117.918 27.2733 118.868 28.2554 119.453C29.2376 120.037 30.4115 120.209 31.52 119.93L98.75 102.81C99.8567 102.529 100.807 101.821 101.392 100.84C101.977 99.8598 102.149 98.6872 101.87 97.58Z" fill="white"/>
<path d="M30.44 121.08C29.2581 121.08 28.1099 120.687 27.1758 119.963C26.2418 119.238 25.5749 118.224 25.28 117.08L0.519959 19.72C0.347423 19.0424 0.310167 18.3374 0.410324 17.6453C0.510481 16.9533 0.746078 16.2878 1.10365 15.6869C1.46123 15.0859 1.93377 14.5614 2.49423 14.1433C3.05469 13.7251 3.69208 13.4216 4.36995 13.25L56.27 0.04C56.4528 -0.0133333 56.6471 -0.0133333 56.83 0.04L79.4599 7.33999C79.6242 7.3921 79.7722 7.48578 79.8896 7.61193C80.007 7.73808 80.0898 7.89242 80.13 8.05999L102.85 97.31C103.193 98.6783 102.981 100.127 102.259 101.339C101.538 102.551 100.366 103.429 99 103.78L31.77 120.89C31.3362 121.008 30.8895 121.072 30.44 121.08ZM56.44 2.07999L4.85995 15.22C4.01517 15.4369 3.29061 15.9794 2.84464 16.7289C2.39866 17.4785 2.26754 18.3741 2.47995 19.22L27.26 116.57C27.3663 116.987 27.5545 117.379 27.8138 117.722C28.073 118.065 28.3981 118.354 28.77 118.57C29.142 118.793 29.5546 118.939 29.9838 119.001C30.413 119.063 30.8502 119.039 31.27 118.93L98.5 101.81C98.9169 101.704 99.3085 101.515 99.6519 101.256C99.9953 100.997 100.284 100.672 100.5 100.3C100.723 99.928 100.869 99.5153 100.931 99.0861C100.993 98.6569 100.969 98.2197 100.86 97.8L78.28 9.07999L56.44 2.07999Z" fill="#407BFF"/>
<path d="M79.15 8.32002L56.52 1.02002L67.81 12.86C68.5825 13.6725 69.6412 14.152 70.7614 14.1968C71.8816 14.2416 72.9751 13.8482 73.81 13.1L79.15 8.32002Z" fill="#E0E0E0"/>
<path d="M70.93 15.22C70.2092 15.2191 69.4961 15.0714 68.8342 14.786C68.1723 14.5006 67.5755 14.0835 67.08 13.56L55.79 1.70997C55.639 1.55091 55.5445 1.3466 55.521 1.12854C55.4975 0.910475 55.5464 0.690752 55.6601 0.503187C55.7737 0.315622 55.9459 0.170631 56.1501 0.0905438C56.3543 0.0104562 56.5791 -0.00029349 56.79 0.0599652L79.42 7.35997C79.5911 7.41399 79.7445 7.51305 79.8642 7.64677C79.9838 7.78049 80.0653 7.94393 80.1 8.11996C80.1446 8.29993 80.1383 8.48875 80.0818 8.66534C80.0253 8.84193 79.9208 8.99933 79.78 9.11996L74.44 13.85C73.4783 14.7228 72.2287 15.2105 70.93 15.22ZM59.99 3.21997L68.54 12.22C69.1292 12.845 69.94 13.2139 70.7982 13.2476C71.6565 13.2813 72.4937 12.9769 73.13 12.4L77.13 8.78998L59.99 3.21997Z" fill="#407BFF"/>
<path d="M47.1666 60.4167C48.2045 61.8041 49.5286 62.9522 51.0491 63.7829C52.5697 64.6137 54.2511 65.1077 55.9794 65.2315C57.7076 65.3552 59.4423 65.1059 61.0657 64.5003C62.6891 63.8947 64.1633 62.9471 65.3883 61.7217L72.6383 54.4717C74.8394 52.1927 76.0573 49.1404 76.0298 45.9722C76.0022 42.804 74.7315 39.7734 72.4911 37.533C70.2508 35.2927 67.2201 34.0219 64.0519 33.9944C60.8837 33.9668 57.8314 35.1848 55.5525 37.3858L51.3958 41.5183" stroke="#407BFF" stroke-width="4" stroke-linecap="round" stroke-linejoin="round"/>
<path d="M56.8333 55.5833C55.7955 54.1959 54.4714 53.0478 52.9508 52.2171C51.4303 51.3863 49.7489 50.8923 48.0206 50.7685C46.2923 50.6448 44.5577 50.8941 42.9342 51.4997C41.3108 52.1053 39.8366 53.0529 38.6117 54.2783L31.3617 61.5283C29.1606 63.8073 27.9427 66.8596 27.9702 70.0278C27.9977 73.196 29.2685 76.2266 31.5089 78.467C33.7492 80.7073 36.7799 81.9781 39.9481 82.0057C43.1163 82.0332 46.1686 80.8153 48.4475 78.6142L52.58 74.4817" stroke="#407BFF" stroke-width="4" stroke-linecap="round" stroke-linejoin="round"/>
</svg>
