<svg width="17" height="17" viewBox="0 0 17 17" fill="none" xmlns="http://www.w3.org/2000/svg">
<g clip-path="url(#clip0_97_213)">
<path d="M14.1667 6.375H7.79167C7.00926 6.375 6.375 7.00926 6.375 7.79167V14.1667C6.375 14.9491 7.00926 15.5833 7.79167 15.5833H14.1667C14.9491 15.5833 15.5833 14.9491 15.5833 14.1667V7.79167C15.5833 7.00926 14.9491 6.375 14.1667 6.375Z" stroke-width="2" stroke-linecap="round" stroke-linejoin="round"/>
<path d="M3.54166 10.6248H2.83332C2.4576 10.6248 2.09726 10.4756 1.83159 10.2099C1.56591 9.94423 1.41666 9.58389 1.41666 9.20817V2.83317C1.41666 2.45745 1.56591 2.09711 1.83159 1.83144C2.09726 1.56576 2.4576 1.4165 2.83332 1.4165H9.20832C9.58405 1.4165 9.94438 1.56576 10.2101 1.83144C10.4757 2.09711 10.625 2.45745 10.625 2.83317V3.5415" stroke-width="2" stroke-linecap="round" stroke-linejoin="round"/>
</g>
<defs>
<clipPath>
<rect width="17" height="17" fill="white"/>
</clipPath>
</defs>
</svg>
