<svg width="30" height="27" viewBox="0 0 30 27" fill="none" xmlns="http://www.w3.org/2000/svg">
<path d="M10.3125 13.5L5.625 13.5L5.625 9.6429C5.625 7.51543 7.30662 5.78576 9.375 5.78576L9.84372 5.78576C10.0285 5.78622 10.2116 5.74912 10.3824 5.67659C10.5532 5.60406 10.7084 5.49753 10.8391 5.36313C10.9698 5.22872 11.0733 5.06908 11.1439 4.89338C11.2144 4.71769 11.2504 4.52939 11.25 4.33931L11.25 1.44646C11.2504 1.25638 11.2144 1.06808 11.1439 0.892386C11.0733 0.716688 10.9698 0.557051 10.8391 0.422644C10.7084 0.288237 10.5532 0.181709 10.3824 0.109181C10.2116 0.0366499 10.0285 -0.00045188 9.84372 3.95993e-06L9.375 3.91895e-06C4.19532 3.46613e-06 7.58213e-08 4.31518 -3.89937e-07 9.64283L-1.65445e-06 24.1071C-1.79407e-06 25.7042 1.25976 27 2.8125 27L10.3125 27C11.8652 27 13.125 25.7042 13.125 24.1071L13.125 16.3929C13.125 14.7958 11.8652 13.5 10.3125 13.5ZM27.1875 13.5L22.5 13.5L22.5 9.6429C22.5 7.51543 24.1816 5.78577 26.25 5.78577L26.7187 5.78577C26.9035 5.78622 27.0866 5.74912 27.2574 5.67659C27.4282 5.60406 27.5834 5.49753 27.7141 5.36313C27.8448 5.22872 27.9483 5.06908 28.0189 4.89338C28.0894 4.71769 28.1254 4.52939 28.125 4.33931L28.125 1.44646C28.1254 1.25638 28.0894 1.06808 28.0189 0.892387C27.9483 0.71669 27.8448 0.557052 27.7141 0.422645C27.5834 0.288238 27.4282 0.181711 27.2574 0.109182C27.0866 0.0366514 26.9035 -0.000450405 26.7187 5.43519e-06L26.25 5.39421e-06C21.0703 4.94139e-06 16.875 4.31518 16.875 9.64284L16.875 24.1071C16.875 25.7042 18.1348 27 19.6875 27L27.1875 27C28.7402 27 30 25.7043 30 24.1072L30 16.3929C30 14.7958 28.7402 13.5 27.1875 13.5Z" fill="#A73AA7"/>
</svg>
