<svg width="26" height="26" viewBox="0 0 26 26" fill="none" xmlns="http://www.w3.org/2000/svg">
<circle cx="13.3612" cy="13.361" r="12.6388" fill="#A73AA7" fill-opacity="0.3"/>
<path d="M21.3349 9.6921C21.2491 9.34935 21.0744 9.0353 20.8284 8.78168C20.5824 8.52806 20.2738 8.34386 19.9338 8.24767C18.6916 7.94434 13.7227 7.94434 13.7227 7.94434C13.7227 7.94434 8.75388 7.94434 7.51166 8.27656C7.17167 8.37274 6.86309 8.55695 6.61708 8.81057C6.37107 9.06419 6.19635 9.37824 6.11056 9.72099C5.88321 10.9817 5.77201 12.2605 5.77834 13.5415C5.77023 14.8322 5.88145 16.1208 6.11056 17.391C6.20514 17.7231 6.38378 18.0252 6.62921 18.2681C6.87465 18.511 7.17859 18.6865 7.51166 18.7776C8.75388 19.1098 13.7227 19.1098 13.7227 19.1098C13.7227 19.1098 18.6916 19.1098 19.9338 18.7776C20.2738 18.6814 20.5824 18.4972 20.8284 18.2436C21.0744 17.99 21.2491 17.6759 21.3349 17.3332C21.5605 16.082 21.6717 14.8129 21.6671 13.5415C21.6752 12.2509 21.564 10.9623 21.3349 9.6921Z" stroke="white" stroke-width="2" stroke-linecap="round" stroke-linejoin="round"/>
<path d="M12.0978 15.9035L16.2505 13.5418L12.0978 11.1802V15.9035Z" stroke="white" stroke-width="2" stroke-linecap="round" stroke-linejoin="round"/>
</svg>
