<svg width="26" height="26" viewBox="0 0 26 26" fill="none" xmlns="http://www.w3.org/2000/svg">
<circle cx="13.1393" cy="12.6388" r="12.6388" fill="#A73AA7" fill-opacity="0.3"/>
<path d="M17.1115 5.77783H9.88929C7.89494 5.77783 6.2782 7.39457 6.2782 9.38893V16.6111C6.2782 18.6055 7.89494 20.2222 9.88929 20.2222H17.1115C19.1058 20.2222 20.7226 18.6055 20.7226 16.6111V9.38893C20.7226 7.39457 19.1058 5.77783 17.1115 5.77783Z" stroke="white" stroke-width="2" stroke-linecap="round" stroke-linejoin="round"/>
<path d="M16.3893 12.5447C16.4784 13.1458 16.3758 13.7596 16.0959 14.299C15.816 14.8383 15.3732 15.2757 14.8305 15.5489C14.2877 15.8221 13.6726 15.9172 13.0727 15.8207C12.4728 15.7241 11.9186 15.4409 11.4889 15.0112C11.0593 14.5815 10.776 14.0273 10.6795 13.4274C10.5829 12.8275 10.678 12.2124 10.9512 11.6697C11.2244 11.1269 11.6618 10.6841 12.2011 10.4042C12.7405 10.1244 13.3544 10.0217 13.9554 10.1108C14.5685 10.2018 15.1361 10.4875 15.5744 10.9257C16.0127 11.364 16.2984 11.9316 16.3893 12.5447Z" stroke="white" stroke-width="2" stroke-linecap="round" stroke-linejoin="round"/>
<path d="M17.4726 9.02783H17.4798" stroke="white" stroke-width="2" stroke-linecap="round" stroke-linejoin="round"/>
</svg>
