<svg width="204" height="262" viewBox="0 0 204 262" fill="none" xmlns="http://www.w3.org/2000/svg">
<g filter="url(#filter0_d_206_395)">
<rect x="4" y="57" width="196" height="197" rx="98" fill="#00FFA5" fill-opacity="0.8" shape-rendering="crispEdges"/>
</g>
<mask id="mask0_206_395" style="mask-type:alpha" maskUnits="userSpaceOnUse" x="4" y="13" width="196" height="241">
<path d="M4 127.379C4 84.5203 29.057 45.6195 68.0792 27.8963L82.9515 21.1416C111.484 8.18265 144.887 12.4407 169.256 32.1432V32.1432C188.701 47.8644 200 71.5304 200 96.5355V156C200 210.124 156.124 254 102 254V254C47.8761 254 4 210.124 4 156V127.379Z" fill="#6F66BA"/>
</mask>
<g mask="url(#mask0_206_395)">
<path d="M132.904 112.512C133.685 112.662 134.488 112.662 135.268 112.512C138.218 111.911 137.686 109.986 137.663 107.853C137.64 105.72 139.303 104.257 141.375 104.064C140.058 104.187 139.28 105.704 139.365 107.021C139.45 108.338 140.135 109.539 140.589 110.779C141.471 113.313 141.497 116.067 140.662 118.617C139.827 121.166 138.179 123.372 135.969 124.894C133.359 126.588 130.725 128.082 129.354 131.093C128.839 132.18 128.649 133.392 128.809 134.584C128.969 135.776 129.471 136.896 130.255 137.808C131.372 138.986 135.291 140.519 135.877 138.016C136.185 136.691 134.883 135.436 134.837 134.066C134.791 133.409 134.898 132.751 135.149 132.143C135.4 131.535 135.789 130.994 136.285 130.562C137.558 129.7 138.978 129.076 140.474 128.721C142.014 128.244 144.324 127.559 145.179 126.072C145.757 125.056 145.556 122.669 144.147 122.299C146.542 122.931 147.173 126.149 146.095 127.905C144.594 130.408 140.197 131.255 141.552 134.789C142.109 135.957 142.853 137.026 143.754 137.954C144.654 138.89 145.247 140.077 145.456 141.358C145.61 143.183 144.324 144.877 142.73 145.778C141.834 146.167 140.984 146.655 140.197 147.234C138.895 148.435 138.718 150.429 138.926 152.193C139.4 155.375 139.322 158.616 138.695 161.772C138 165.053 136.266 168.023 133.751 170.243C129.077 174.27 119.929 174.586 113.892 173.323C107.854 172.06 102.402 168.911 97.1967 165.623C96.6423 165.268 96.0878 164.906 95.5411 164.529C89.2882 160.209 86.5237 152.77 77.4063 154.295C73.3711 154.973 69.4824 157.86 65.2855 156.443C61.4353 155.15 57.4156 154.588 54.3738 151.623C51.6709 148.989 50.2694 144.885 51.3783 141.281C51.7325 140.126 52.3255 139.017 52.3178 137.816C52.3178 135.19 50.1077 133.927 48.0979 132.749C46.2112 131.64 44.0551 130.015 44.4401 127.528C44.5559 126.927 44.7973 126.358 45.1485 125.857C45.431 125.412 45.7788 125.012 46.1804 124.671C46.813 124.237 47.4771 123.851 48.1672 123.516C48.7447 123.169 49.6303 122.492 49.6534 121.729C49.6547 121.552 49.6197 121.376 49.5504 121.213C49.4811 121.05 49.379 120.903 49.2505 120.781C49.122 120.659 48.9697 120.565 48.8033 120.504C48.6368 120.443 48.4596 120.417 48.2827 120.428C49.4455 120.251 50.8316 120.975 50.9163 122.145C51.0395 123.87 48.5137 124.933 48.6831 126.658C48.9295 129.291 52.5334 128.829 54.0735 127.974C57.9238 125.872 58.1086 121.144 56.1142 117.71C54.9745 115.761 53.419 114.09 52.2639 112.157C51.1702 110.311 50.4552 108.265 50.1604 106.139C49.8655 104.013 49.9968 101.85 50.5466 99.7749C53.3266 89.4715 64.246 87.3308 73.5098 86.5992C83.3049 85.8292 93.6853 87.8852 101.44 84.651C105.76 82.849 106.522 79.353 106.114 76.5577C105.883 75.3458 105.409 74.1932 104.72 73.1694C103.296 70.9902 102.41 69.4269 102.664 66.6932C102.755 65.5255 103.081 64.3883 103.622 63.3495C104.164 62.3108 104.909 61.3921 105.814 60.6483C108.509 58.4613 111.974 57.4834 115.108 56.0279C118.242 54.5725 121.446 52.4318 122.439 49.0974C122.623 48.5448 122.694 47.9608 122.647 47.3802C122.408 45.07 119.867 43.7378 117.673 42.8754C120.189 43.0863 122.636 43.8068 124.865 44.993C125.974 45.5991 126.93 46.4504 127.66 47.482C128.39 48.5136 128.874 49.6982 129.077 50.9456C129.508 54.9653 126.405 58.1995 125.481 61.9112C124.457 66.0079 127.452 69.6118 130.14 72.4302C134.76 77.2738 139.211 80.8161 140.035 87.9083C140.328 89.9109 140.244 91.9505 139.789 93.9225C139.337 95.654 138.485 97.2552 137.301 98.5967C136.014 99.8941 134.632 101.094 133.166 102.185C131.696 103.284 130.536 104.746 129.801 106.428C129.17 108.145 129.393 110.278 130.756 111.503C131.367 112.027 132.11 112.376 132.904 112.512Z" fill="#FFC100"/>
<path opacity="0.6" d="M132.904 112.512C133.685 112.662 134.488 112.662 135.268 112.512C138.218 111.911 137.686 109.986 137.663 107.853C137.64 105.72 139.303 104.257 141.375 104.064C140.058 104.187 139.28 105.704 139.365 107.021C139.45 108.338 140.135 109.539 140.589 110.779C141.471 113.313 141.497 116.067 140.662 118.617C139.827 121.166 138.179 123.372 135.969 124.894C133.359 126.588 130.725 128.082 129.354 131.093C128.839 132.18 128.649 133.392 128.809 134.584C128.969 135.776 129.471 136.896 130.255 137.808C131.372 138.986 135.291 140.519 135.877 138.016C136.185 136.691 134.883 135.436 134.837 134.066C134.791 133.409 134.898 132.751 135.149 132.143C135.4 131.535 135.789 130.994 136.285 130.562C137.558 129.7 138.978 129.076 140.474 128.721C142.014 128.244 144.324 127.559 145.179 126.072C145.757 125.056 145.556 122.669 144.147 122.299C146.542 122.931 147.173 126.149 146.095 127.905C144.594 130.408 140.197 131.255 141.552 134.789C142.109 135.957 142.853 137.026 143.754 137.954C144.654 138.89 145.247 140.077 145.456 141.358C145.61 143.183 144.324 144.877 142.73 145.778C141.834 146.167 140.984 146.655 140.197 147.234C138.895 148.435 138.718 150.429 138.926 152.193C139.4 155.375 139.322 158.616 138.695 161.772C138 165.053 136.266 168.023 133.751 170.243C129.077 174.27 119.929 174.586 113.892 173.323C107.854 172.06 102.402 168.911 97.1967 165.623C96.6423 165.268 96.0878 164.906 95.5411 164.529C89.2882 160.209 86.5237 152.77 77.4063 154.295C73.3711 154.973 69.4824 157.86 65.2855 156.443C61.4353 155.15 57.4156 154.588 54.3738 151.623C51.6709 148.989 50.2694 144.885 51.3783 141.281C51.7325 140.126 52.3255 139.017 52.3178 137.816C52.3178 135.19 50.1077 133.927 48.0979 132.749C46.2112 131.64 44.0551 130.015 44.4401 127.528C44.5559 126.927 44.7973 126.358 45.1485 125.857C45.431 125.412 45.7788 125.012 46.1804 124.671C46.813 124.237 47.4771 123.851 48.1672 123.516C48.7447 123.169 49.6303 122.492 49.6534 121.729C49.6547 121.552 49.6197 121.376 49.5504 121.213C49.4811 121.05 49.379 120.903 49.2505 120.781C49.122 120.659 48.9697 120.565 48.8033 120.504C48.6368 120.443 48.4596 120.417 48.2827 120.428C49.4455 120.251 50.8316 120.975 50.9163 122.145C51.0395 123.87 48.5137 124.933 48.6831 126.658C48.9295 129.291 52.5334 128.829 54.0735 127.974C57.9238 125.872 58.1086 121.144 56.1142 117.71C54.9745 115.761 53.419 114.09 52.2639 112.157C51.1702 110.311 50.4552 108.265 50.1604 106.139C49.8655 104.013 49.9968 101.85 50.5466 99.7749C53.3266 89.4715 64.246 87.3308 73.5098 86.5992C83.3049 85.8292 93.6853 87.8852 101.44 84.651C105.76 82.849 106.522 79.353 106.114 76.5577C105.883 75.3458 105.409 74.1932 104.72 73.1694C103.296 70.9902 102.41 69.4269 102.664 66.6932C102.755 65.5255 103.081 64.3883 103.622 63.3495C104.164 62.3108 104.909 61.3921 105.814 60.6483C108.509 58.4613 111.974 57.4834 115.108 56.0279C118.242 54.5725 121.446 52.4318 122.439 49.0974C122.623 48.5448 122.694 47.9608 122.647 47.3802C122.408 45.07 119.867 43.7378 117.673 42.8754C120.189 43.0863 122.636 43.8068 124.865 44.993C125.974 45.5991 126.93 46.4504 127.66 47.482C128.39 48.5136 128.874 49.6982 129.077 50.9456C129.508 54.9653 126.405 58.1995 125.481 61.9112C124.457 66.0079 127.452 69.6118 130.14 72.4302C134.76 77.2738 139.211 80.8161 140.035 87.9083C140.328 89.9109 140.244 91.9505 139.789 93.9225C139.337 95.654 138.485 97.2552 137.301 98.5967C136.014 99.8941 134.632 101.094 133.166 102.185C131.696 103.284 130.536 104.746 129.801 106.428C129.17 108.145 129.393 110.278 130.756 111.503C131.367 112.027 132.11 112.376 132.904 112.512Z" fill="white"/>
<path d="M105.814 164.506C109.271 164.506 112.69 165.137 116.132 165.392C118.699 165.699 121.302 165.436 123.756 164.621C126.159 163.682 128.269 161.672 128.723 159.139C129.008 157.514 128.615 155.866 128.446 154.226C128.276 152.585 128.407 150.768 129.524 149.559C130.417 148.589 131.765 148.204 132.912 147.534C134.059 146.864 135.43 145.77 135.014 144.515C134.674 144.798 134.314 145.055 133.936 145.285C130.309 147.888 124.31 142.505 123.071 139.317C122.38 137.459 122.248 135.44 122.692 133.508C123.135 131.575 124.134 129.815 125.566 128.444C127.876 126.303 131.125 125.318 133.181 122.946C134.968 120.89 135.599 118.079 135.915 115.369C135.291 118.534 131.564 120.505 128.438 119.727C122.817 118.341 121.292 111.911 123.209 107.098C124.588 103.625 127.152 100.784 129.216 97.6727C131.279 94.5616 132.912 90.8038 132.057 87.1691C131.249 83.7269 128.415 81.178 125.612 79.0373C122.809 76.8965 119.752 74.7943 118.142 71.6524C116.533 68.5106 117.064 63.9519 120.229 62.3655C118.189 62.6711 116.323 63.6896 114.963 65.2403C113.602 66.791 112.835 68.7736 112.798 70.8362C112.837 73.2002 113.868 75.4565 113.976 77.8283C114.23 83.1109 109.741 87.6542 104.736 89.3792C99.7302 91.1041 94.2859 90.6343 89.0033 90.3648C82.3346 90.0337 75.3656 90.0953 69.3591 93.0061C63.3527 95.9169 58.5783 102.478 59.8412 109.039C60.3803 111.888 61.9435 114.429 62.7135 117.232C63.6044 120.27 63.3439 123.53 61.982 126.388C61.2891 127.798 60.2704 129.022 59.0103 129.959C57.7502 130.896 56.2849 131.52 54.7358 131.779C54.4547 131.786 54.1841 131.886 53.9657 132.063C53.4267 132.641 54.3353 133.403 54.9745 133.865C56.7071 135.097 57.0613 137.515 56.9304 139.633C56.7995 141.751 56.3375 143.945 56.992 145.963C57.9238 148.812 60.8423 150.529 63.6453 151.546C68.4197 153.271 73.556 153.764 78.415 155.25C83.2741 156.736 88.1177 159.578 90.0968 164.252C91.6985 168.025 92.6842 169.18 96.2572 166.909C99.1471 165.209 102.464 164.376 105.814 164.506Z" fill="#FFC100"/>
<path opacity="0.3" d="M105.814 164.506C109.271 164.506 112.69 165.137 116.132 165.392C118.699 165.699 121.302 165.436 123.756 164.621C126.159 163.682 128.269 161.672 128.723 159.139C129.008 157.514 128.615 155.866 128.446 154.226C128.276 152.585 128.407 150.768 129.524 149.559C130.417 148.589 131.765 148.204 132.912 147.534C134.059 146.864 135.43 145.77 135.014 144.515C134.674 144.798 134.314 145.055 133.936 145.285C130.309 147.888 124.31 142.505 123.071 139.317C122.38 137.459 122.248 135.44 122.692 133.508C123.135 131.575 124.134 129.815 125.566 128.444C127.876 126.303 131.125 125.318 133.181 122.946C134.968 120.89 135.599 118.079 135.915 115.369C135.291 118.534 131.564 120.505 128.438 119.727C122.817 118.341 121.292 111.911 123.209 107.098C124.588 103.625 127.152 100.784 129.216 97.6727C131.279 94.5616 132.912 90.8038 132.057 87.1691C131.249 83.7269 128.415 81.178 125.612 79.0373C122.809 76.8965 119.752 74.7943 118.142 71.6524C116.533 68.5106 117.064 63.9519 120.229 62.3655C118.189 62.6711 116.323 63.6896 114.963 65.2403C113.602 66.791 112.835 68.7736 112.798 70.8362C112.837 73.2002 113.868 75.4565 113.976 77.8283C114.23 83.1109 109.741 87.6542 104.736 89.3792C99.7302 91.1041 94.2859 90.6343 89.0033 90.3648C82.3346 90.0337 75.3656 90.0953 69.3591 93.0061C63.3527 95.9169 58.5783 102.478 59.8412 109.039C60.3803 111.888 61.9435 114.429 62.7135 117.232C63.6044 120.27 63.3439 123.53 61.982 126.388C61.2891 127.798 60.2704 129.022 59.0103 129.959C57.7502 130.896 56.2849 131.52 54.7358 131.779C54.4547 131.786 54.1841 131.886 53.9657 132.063C53.4267 132.641 54.3353 133.403 54.9745 133.865C56.7071 135.097 57.0613 137.515 56.9304 139.633C56.7995 141.751 56.3375 143.945 56.992 145.963C57.9238 148.812 60.8423 150.529 63.6453 151.546C68.4197 153.271 73.556 153.764 78.415 155.25C83.2741 156.736 88.1177 159.578 90.0968 164.252C91.6985 168.025 92.6842 169.18 96.2572 166.909C99.1471 165.209 102.464 164.376 105.814 164.506Z" fill="white"/>
<path d="M107.469 160.502C109.638 160.929 111.869 160.929 114.038 160.502C116.879 159.801 118.935 158.638 119.929 155.712C120.583 153.779 120.76 151.677 121.592 149.813C122.424 147.95 124.241 146.256 126.274 146.502C124.109 145.609 122.057 144.464 120.16 143.091C118.247 141.709 116.883 139.697 116.309 137.408C115.678 134.327 117.026 131.17 119.112 128.86C121.076 126.681 124.649 125.78 125.311 122.915C121.184 123.616 115.948 119.612 115.301 115.484C114.577 111.095 117.503 107.052 119.921 103.325C121.683 100.619 123.245 97.7876 124.595 94.8542C125.42 93.2411 125.974 91.5032 126.235 89.7102C126.448 88.0481 126.282 86.3594 125.748 84.7709C125.215 83.1824 124.328 81.7355 123.155 80.5389C121.071 78.4908 118.744 76.7064 116.225 75.2255C117.826 76.2496 117.696 80.8854 117.472 82.4486C117.117 84.8469 116.098 87.098 114.531 88.9479C111.45 92.6365 106.768 94.808 102.11 95.7475C96.157 96.9411 90.012 96.4097 83.9362 96.2788C80.7097 96.2172 77.0519 96.0632 73.9871 97.0489C71.0072 98.0078 68.4134 99.8971 66.5868 102.439C64.1458 105.581 65.0467 111.68 65.8784 115.253C66.8102 119.342 68.1424 123.5 67.4647 127.643C67.1028 129.861 66.1787 131.956 65.7398 134.158C64.6771 139.456 66.6022 145.116 70.2215 149.12C73.8408 153.124 78.9925 155.566 84.3136 156.49C86.4913 156.842 88.6917 157.038 90.8975 157.075C92.5301 157.121 93.9778 156.813 95.5179 157.321C99.4051 158.716 103.403 159.78 107.469 160.502Z" fill="#FFC100"/>
<path opacity="0.1" d="M107.469 160.502C109.638 160.929 111.869 160.929 114.038 160.502C116.879 159.801 118.935 158.638 119.929 155.712C120.583 153.779 120.76 151.677 121.592 149.813C122.424 147.95 124.241 146.256 126.274 146.502C124.109 145.609 122.057 144.464 120.16 143.091C118.247 141.709 116.883 139.697 116.309 137.408C115.678 134.327 117.026 131.17 119.112 128.86C121.076 126.681 124.649 125.78 125.311 122.915C121.184 123.616 115.948 119.612 115.301 115.484C114.577 111.095 117.503 107.052 119.921 103.325C121.683 100.619 123.245 97.7876 124.595 94.8542C125.42 93.2411 125.974 91.5032 126.235 89.7102C126.448 88.0481 126.282 86.3594 125.748 84.7709C125.215 83.1824 124.328 81.7355 123.155 80.5389C121.071 78.4908 118.744 76.7064 116.225 75.2255C117.826 76.2496 117.696 80.8854 117.472 82.4486C117.117 84.8469 116.098 87.098 114.531 88.9479C111.45 92.6365 106.768 94.808 102.11 95.7475C96.157 96.9411 90.012 96.4097 83.9362 96.2788C80.7097 96.2172 77.0519 96.0632 73.9871 97.0489C71.0072 98.0078 68.4134 99.8971 66.5868 102.439C64.1458 105.581 65.0467 111.68 65.8784 115.253C66.8102 119.342 68.1424 123.5 67.4647 127.643C67.1028 129.861 66.1787 131.956 65.7398 134.158C64.6771 139.456 66.6022 145.116 70.2215 149.12C73.8408 153.124 78.9925 155.566 84.3136 156.49C86.4913 156.842 88.6917 157.038 90.8975 157.075C92.5301 157.121 93.9778 156.813 95.5179 157.321C99.4051 158.716 103.403 159.78 107.469 160.502Z" fill="white"/>
<path d="M116.479 101.692C117.374 100.685 118.164 99.5882 118.835 98.4196C120.499 95.4549 121.069 91.62 119.351 88.6861C119.074 91.9588 117.218 94.3922 114.731 96.3867C111.389 99.0665 107.562 100.237 103.365 100.799C97.474 101.615 91.5215 100.984 85.6537 101.646C82.4318 101.902 79.3171 102.921 76.567 104.619C75.196 105.475 74.0264 106.617 73.1385 107.967C72.2506 109.318 71.6654 110.844 71.423 112.442C71.0765 115.638 72.7398 119.103 75.6968 120.374C77.1098 120.861 78.5754 121.179 80.063 121.321C84.8087 122.149 89.1437 124.533 92.384 128.098C94.3558 130.178 95.708 132.768 96.2881 135.575C96.5962 137.369 96.4884 139.21 96.8272 140.965C97.4663 144.346 99.9998 147.511 103.388 148.127C103.155 147.25 103.147 146.329 103.364 145.449C103.581 144.569 104.017 143.757 104.631 143.09C105.246 142.423 106.018 141.921 106.878 141.632C107.737 141.343 108.656 141.275 109.549 141.435C109.975 141.554 110.421 141.577 110.858 141.504C111.144 141.377 111.398 141.188 111.603 140.951C111.808 140.714 111.958 140.435 112.044 140.134C113.042 137.73 113.199 135.06 112.49 132.556C111.851 130.323 110.85 127.451 113.168 125.795C114.513 124.972 116.123 124.697 117.665 125.025C116.479 123.755 114.585 123.485 112.975 122.907C110.118 121.945 107.477 119.758 106.861 116.809C106.523 114.727 106.958 112.593 108.085 110.81C109.215 109.051 110.581 107.455 112.144 106.066C113.599 104.642 115.131 103.232 116.479 101.692Z" fill="#FFC100"/>
<path opacity="0.3" d="M102.14 145.801C104.262 145.705 106.327 145.089 108.155 144.007C109.992 142.752 111.288 140.848 111.782 138.678C112.002 137.612 112.101 136.525 112.074 135.436C112.096 134.512 111.977 133.59 111.72 132.703C111.4 131.86 110.975 131.061 110.457 130.323L107.284 125.364C107.099 125.045 106.834 124.779 106.514 124.594C106.295 124.497 106.055 124.457 105.816 124.476C105.576 124.495 105.346 124.572 105.144 124.702C104.745 124.968 104.394 125.298 104.104 125.68C104.265 123.564 103.976 121.438 103.257 119.442C102.486 117.389 100.99 115.688 99.0526 114.66C97.3084 113.893 95.3982 113.58 93.5004 113.751C91.1271 113.796 88.7967 114.392 86.6931 115.492C79.6086 119.45 81.7571 128.868 84.1365 135.105C84.5321 136.221 85.0485 137.29 85.6767 138.293C86.1932 139.042 86.7784 139.74 87.4247 140.38C89.2967 142.353 91.5979 143.868 94.1499 144.808C96.7018 145.748 99.436 146.088 102.14 145.801Z" fill="black"/>
<path opacity="0.2" d="M46.8735 95.5627C45.4673 98.0645 44.9541 100.97 45.4181 103.802C44.1622 102.483 43.1529 100.95 42.4379 99.2744C41.9851 97.9758 41.8812 96.581 42.1366 95.2296C42.392 93.8782 42.9978 92.6176 43.8933 91.5738C45.5105 89.718 47.8822 88.7631 49.9999 87.5079C50.914 87.0087 51.7326 86.3517 52.4179 85.5674C52.7562 85.1701 53.0121 84.7095 53.1707 84.2125C53.3294 83.7154 53.3876 83.1917 53.342 82.6719C53.2835 82.151 53.0657 81.6607 52.7185 81.268C52.3712 80.8752 51.9113 80.5991 51.4014 80.4773C52.1686 80.4613 52.9244 80.6653 53.5794 81.0651C54.2343 81.4649 54.7612 82.0439 55.0977 82.7335C56.4376 85.3979 54.9822 87.8467 52.903 89.5871C50.6852 91.4814 48.3212 92.9599 46.8735 95.5627Z" fill="#FFC100"/>
<path opacity="0.2" d="M97.7587 69.7966C98.1578 70.8411 98.748 71.8021 99.4991 72.6304C100.249 73.4545 100.89 74.3705 101.409 75.3564C101.665 75.8516 101.811 76.3965 101.837 76.9536C101.862 77.5107 101.766 78.0666 101.555 78.583C101.097 79.3931 100.412 80.0515 99.5838 80.4773C100.042 79.9669 100.312 79.315 100.349 78.6299C100.385 77.9448 100.186 77.2679 99.784 76.7117C99.3104 76.1627 98.7351 75.7103 98.0899 75.3795C97.2274 74.8636 96.3649 74.3554 95.5487 73.7701C94.6791 73.2093 93.9705 72.4317 93.4926 71.5138C93.2484 70.9176 93.1305 70.2771 93.1464 69.6329C93.1623 68.9887 93.3116 68.3549 93.585 67.7714C94.1488 66.6124 94.9489 65.5841 95.9337 64.7527C96.6005 64.2518 97.1674 63.6301 97.6047 62.92C97.8238 62.5539 97.9083 62.1228 97.8436 61.7011C97.779 61.2794 97.5692 60.8935 97.2505 60.6098C97.7614 60.7775 98.1996 61.1148 98.4924 61.5659C98.7851 62.0169 98.9148 62.5545 98.8599 63.0894C98.806 64.2368 98.1746 65.2225 97.8126 66.2774C97.4129 67.4135 97.394 68.6488 97.7587 69.7966Z" fill="#FFC100"/>
<path opacity="0.2" d="M130.556 45.0546C129.772 44.3094 128.879 43.6887 127.907 43.2142C126.22 42.3209 124.318 41.6125 123.109 40.0647C122.644 39.4441 122.307 38.737 122.117 37.9847C121.928 37.2324 121.891 36.4499 122.008 35.683C122.104 34.6464 122.507 33.6619 123.166 32.8553C123.824 32.0488 124.708 31.4569 125.704 31.1551C126.363 30.9854 127.049 30.9545 127.72 31.0646C128.391 31.1746 129.031 31.4231 129.601 31.7942C130.08 32.0707 130.476 32.4712 130.747 32.9536C131.018 33.436 131.154 33.9825 131.141 34.5356C131.041 33.7656 130.101 33.4114 129.331 33.4807C128.771 33.5229 128.234 33.7174 127.776 34.0432C127.319 34.3689 126.959 34.8135 126.736 35.3288C126.159 36.8227 127.221 38.3474 128.338 39.2715C130.594 41.1427 133.112 42.5134 133.728 45.6476C133.944 46.649 133.903 47.6885 133.609 48.6699C133.316 49.6512 132.779 50.5426 132.05 51.2613C132.381 50.9533 132.319 49.7828 132.311 49.3747C132.289 48.7096 132.172 48.0511 131.965 47.4187C131.699 46.5257 131.215 45.7131 130.556 45.0546Z" fill="#FFC100"/>
<path opacity="0.2" d="M148.19 101.261C147.119 103.14 144.578 103.833 143.623 105.774C143.372 106.366 143.247 107.004 143.256 107.647C143.265 108.29 143.409 108.924 143.677 109.508C144.218 110.672 144.918 111.756 145.756 112.727C145.094 111.025 144.478 108.977 145.533 107.483C146.023 106.873 146.647 106.385 147.358 106.059C148.991 105.204 150.785 104.518 151.979 103.117C152.573 102.43 152.99 101.608 153.193 100.722C153.396 99.8369 153.377 98.9151 153.14 98.0382C152.903 97.1613 152.454 96.3561 151.832 95.6935C151.211 95.0309 150.436 94.5311 149.576 94.2382C148.467 93.8532 146.935 93.6837 146.396 92.4594C146.253 92.1681 146.193 91.8435 146.221 91.5205C146.25 91.1974 146.366 90.8883 146.557 90.6266C145.896 91.1558 145.441 91.8995 145.271 92.7289C145.025 93.6452 145.602 94.7233 146.165 95.4857C146.727 96.248 147.813 96.8333 148.267 97.7958C148.526 98.3393 148.654 98.9358 148.64 99.5376C148.627 100.139 148.473 100.73 148.19 101.261Z" fill="#FFC100"/>
<path opacity="0.2" d="M150.439 143.591C150.231 145.409 148.598 146.671 146.989 147.565C145.703 148.242 144.24 148.874 143.346 150.075C142.88 150.65 142.641 151.376 142.676 152.116C142.735 152.575 142.865 153.022 143.061 153.44C143.239 153.825 143.608 154.141 143.77 154.511C143.634 154.13 143.619 153.717 143.728 153.328C143.837 152.939 144.064 152.593 144.378 152.339C145.015 151.837 145.794 151.549 146.604 151.515C147.412 151.446 148.221 151.515 149.022 151.407C150.716 151.222 152.926 150.452 153.904 148.974C154.366 148.218 154.609 147.349 154.605 146.464C154.645 145.489 154.492 144.516 154.153 143.601C153.815 142.687 153.298 141.848 152.633 141.135C152.094 140.603 151.478 140.164 150.97 139.595C150.424 139.067 150.092 138.357 150.038 137.6C150.039 137.231 150.135 136.868 150.319 136.548C150.503 136.228 150.767 135.962 151.085 135.775C150.65 135.803 150.228 135.934 149.853 136.157C149.479 136.38 149.162 136.689 148.93 137.058C148.698 137.427 148.556 137.846 148.517 138.28C148.478 138.714 148.543 139.152 148.706 139.556C149.284 141.011 150.631 141.889 150.439 143.591Z" fill="#FFC100"/>
<path opacity="0.15" d="M86.7163 110.671C89.3345 105.427 95.9031 105.527 100.993 105.281C107.885 104.619 116.772 102.093 118.758 94.5385C116.248 101.708 107.747 103.902 100.924 104.549C96.4345 104.842 91.2982 104.765 87.9099 108.238C85.9001 110.24 85.3764 113.336 85.9617 116C85.7006 114.188 85.9624 112.339 86.7163 110.671ZM92.384 102.77C85.7384 103.448 81.2027 109.863 85.6151 115.723C82.5041 109.462 86.3082 104.68 92.384 102.77ZM98.8216 109.562C101.34 109.732 103.935 110.086 106.522 109.701C109.083 109.314 111.527 108.37 113.684 106.936C111.427 108.098 108.976 108.837 106.453 109.116C100.162 109.562 93.077 106.736 88.0793 112.242C87.2343 113.234 86.6753 114.437 86.4622 115.723C87.9869 110.517 94.0011 109.046 98.8216 109.562ZM130.325 121.514C123.209 125.125 114.477 122.838 108.763 117.725C104.266 113.952 98.2056 111.249 92.253 112.381C90.2786 112.75 88.5159 113.849 87.317 115.461C88.5999 113.978 90.3796 113.015 92.3224 112.75C98.1055 111.911 103.935 114.614 108.263 118.303C114.115 123.477 123.333 125.764 130.325 121.514ZM100.554 98.2579C96.6389 99.2282 92.5861 99.5199 88.5722 99.1204C84.5217 98.874 80.4404 98.1347 76.3899 98.9895C70.6606 100.252 67.796 105.304 69.2899 110.895C69.829 113.605 70.06 116.439 69.2206 119.096C69.2644 118.224 69.2308 117.351 69.1205 116.485C68.3505 110.787 63.3451 106.374 67.9962 100.784C64.7158 103.425 65.0007 107.93 66.7102 111.364C67.5452 113.015 68.1687 114.764 68.5661 116.57C68.8742 118.192 68.9365 119.85 68.7509 121.491C68.7275 119.793 68.1905 118.142 67.2108 116.755C65.7862 114.66 63.8841 113.105 63.014 110.748C63.2835 113.266 65.2394 115.199 66.5716 117.178C67.9284 119.183 68.5911 121.576 68.4583 123.993C68.6464 123.3 68.7473 122.586 68.7586 121.868C69.0094 121.015 69.1644 120.137 69.2206 119.25C70.3372 116.608 70.2371 113.605 69.7674 110.779C68.027 102.093 74.8035 98.6661 82.4887 99.3206C88.4952 99.721 94.7711 100.352 100.554 98.2425V98.2579ZM123.279 145.67C119.89 145.308 116.148 145.393 113.214 147.357C110.58 149.082 109.248 152.139 108.809 155.134C109.579 152.285 110.935 149.405 113.53 147.857C116.402 146.086 119.929 146.078 123.194 146.417C128.969 147.395 135.9 147.834 137.055 140.465C135.338 147.388 128.9 146.641 123.279 145.655V145.67ZM120.768 148.65C117.203 147.634 112.683 148.366 110.696 151.808C110.087 152.884 109.694 154.069 109.541 155.296C110.788 149.906 115.547 147.981 120.576 149.397C125.011 150.676 130.471 153.248 134.706 150.006C130.124 152.67 125.327 149.921 120.768 148.635V148.65Z" fill="black"/>
<path d="M129.947 209.477C132.624 204.739 133.789 199.296 133.285 193.877C132.781 188.459 130.633 183.324 127.129 179.16C120.483 171.39 104.297 159.678 104.297 159.678C100.123 159.216 94.2088 158.138 83.505 162.18C72.6318 166.3 62.2129 170.905 57.4924 172.961C57.4924 172.961 54.1042 185.675 56.191 199.074C57.1536 205.234 58.2394 217.201 65.27 235.813C67.4493 241.604 66.0863 245.054 68.3502 263.035C68.9557 267.942 69.8376 272.812 70.9915 277.62C76.1586 276.472 83.1585 267.278 83.1585 267.278C83.1585 267.278 96.8116 273.916 116.679 270.304C139.257 266.192 145.633 241.812 145.633 241.812L136.038 229.776L129.947 209.477Z" fill="#F0F0F0"/>
<path d="M105.467 147.465C103.226 146.571 103.789 143.252 102.202 141.82C101.986 141.606 101.717 141.454 101.422 141.38C101.127 141.306 100.818 141.313 100.527 141.399C100.235 141.486 99.9725 141.649 99.766 141.872C99.5595 142.095 99.4169 142.37 99.353 142.667C98.8987 144.053 99.4454 145.501 99.5609 146.887C99.6455 148.513 99.383 150.137 98.7909 151.654C97.6666 154.873 96.9812 158.838 99.43 161.664C99.3068 161.526 100.292 159.631 100.369 159.447C102.079 155.465 103.765 151.453 105.467 147.465Z" fill="#F28F8F"/>
<path d="M109.926 136.915C107.069 133.835 103.55 136.075 101.578 139.071C99.8534 141.705 98.6752 139.071 100.038 135.898C96.7423 125.58 103.811 126.881 99.63 119.45C97.0195 114.83 89.396 114.206 85.8999 115.969C85.1299 113.236 81.9803 110.309 78.2609 110.756C74.9035 111.156 72.5163 112.581 70.0675 116.562C67.5186 120.705 69.0203 122.723 67.5571 125.757C66.995 126.919 65.3856 129.314 64.6232 132.433C61.543 145.1 63.9071 150.868 66.6485 153.995C68.5274 156.174 70.4141 157.414 75.2962 158.546L74.5031 166.023C76.0432 174.624 86.9857 184.604 107.462 189.741C107.154 178.96 100.993 168.949 98.2208 163.081L99.9997 148.45C100.246 151.423 103.85 151.43 105.305 150.914C111.728 148.573 113.922 141.127 109.926 136.915Z" fill="#FFA8A7"/>
<path d="M78.3534 110.733C74.0873 111.156 71.0148 114.668 69.4516 118.433C68.5968 120.382 68.8663 122.469 68.3735 124.525C67.8806 126.581 66.4329 128.205 65.7399 130.2C64.3966 134.103 63.6287 138.181 63.4605 142.305C63.3065 146.402 64.0304 150.737 66.7102 153.987C63.8224 150.907 62.9523 146.425 63.0139 142.29C63.1058 138.097 63.8328 133.943 65.17 129.969C65.8631 128.021 67.2646 126.319 67.8421 124.378C68.4197 122.438 68.0886 120.158 69.0049 118.218C70.699 114.429 73.941 110.887 78.3226 110.694L78.3534 110.733Z" fill="#FFA8A7"/>
<path opacity="0.4" d="M78.3534 110.733C74.0873 111.156 71.0148 114.668 69.4516 118.433C68.5968 120.382 68.8663 122.469 68.3735 124.525C67.8806 126.581 66.4329 128.205 65.7399 130.2C64.3966 134.103 63.6287 138.181 63.4605 142.305C63.3065 146.402 64.0304 150.737 66.7102 153.987C63.8224 150.907 62.9523 146.425 63.0139 142.29C63.1058 138.097 63.8328 133.943 65.17 129.969C65.8631 128.021 67.2646 126.319 67.8421 124.378C68.4197 122.438 68.0886 120.158 69.0049 118.218C70.699 114.429 73.941 110.887 78.3226 110.694L78.3534 110.733Z" fill="white"/>
<path d="M75.3577 158.561C84.5984 159.508 93.7159 158.014 98.7829 149.99C98.7829 149.99 99.0909 156.259 89.1341 160.332C82.6964 162.966 75.0343 161.449 75.0343 161.449L75.3577 158.561Z" fill="#F28F8F"/>
<path opacity="0.5" d="M85.8305 131.848C85.8305 131.848 85.9845 132.564 87.5554 133.388C88.4342 133.783 89.4012 133.939 90.3595 133.842C91.3179 133.744 92.2337 133.397 93.0151 132.833C92.0509 132 90.8501 131.488 89.5807 131.37C88.3104 131.208 87.0196 131.372 85.8305 131.848Z" fill="#FFC100"/>
<path opacity="0.5" d="M70.5144 126.558C70.5144 126.558 70.5143 127.212 71.7541 128.19C72.4478 128.687 73.2606 128.991 74.1099 129.072C74.9592 129.154 75.8149 129.008 76.5901 128.652C75.8967 127.76 74.9404 127.108 73.8564 126.789C72.7808 126.425 71.6297 126.346 70.5144 126.558Z" fill="#FFC100"/>
<path d="M93.285 133.118C93.285 133.118 93.285 133.172 93.285 133.203C93.1311 133.645 92.8659 134.041 92.5149 134.35C92.0514 134.818 91.4802 135.164 90.8516 135.359C90.2972 135.525 89.7137 135.572 89.1401 135.495C88.5665 135.417 88.0159 135.219 87.5249 134.913C86.7368 134.405 86.1447 133.645 85.8462 132.756C85.7846 132.572 85.5998 132.194 85.6845 131.986C85.8693 131.601 86.3005 132.102 86.5008 132.248C87.3116 132.837 88.2516 133.222 89.2422 133.373C90.3245 133.536 91.4308 133.417 92.4533 133.026C92.6843 132.926 93.3081 132.602 93.285 133.118Z" fill="#37474F"/>
<path d="M76.7131 128.929V129.006C76.4954 129.363 76.1872 129.655 75.8199 129.853C75.3389 130.175 74.7862 130.373 74.2104 130.431C73.7034 130.48 73.1916 130.421 72.7095 130.256C72.2274 130.091 71.7861 129.825 71.4151 129.476C70.8253 128.902 70.448 128.144 70.3448 127.328C70.3448 127.158 70.2293 126.796 70.3448 126.65C70.5681 126.342 70.853 126.85 70.9993 127.012C71.626 127.687 72.4111 128.196 73.2837 128.492C74.1562 128.787 75.0888 128.861 75.997 128.706C76.228 128.66 76.8132 128.49 76.7131 128.929Z" fill="#37474F"/>
<path d="M97.4202 141.404C96.9428 143.283 94.34 144.261 91.6756 143.576C89.0112 142.89 87.1862 140.811 87.6636 138.955C88.141 137.1 90.7438 136.106 93.4082 136.792C96.0726 137.477 97.8977 139.525 97.4202 141.404Z" fill="#F28F8F"/>
<path d="M83.2894 144.677L76.0432 145.647C76.0851 146.128 76.2234 146.596 76.4499 147.022C76.6765 147.449 76.9865 147.825 77.3617 148.129C77.7368 148.433 78.1693 148.658 78.6334 148.792C79.0975 148.925 79.5836 148.963 80.0629 148.905C81.0412 148.75 81.9224 148.225 82.5233 147.437C83.1242 146.65 83.3986 145.661 83.2894 144.677Z" fill="#B16668"/>
<path d="M89.1341 125.587L93.5235 128.968C93.7591 128.692 93.936 128.372 94.0435 128.026C94.151 127.68 94.1867 127.315 94.1485 126.955C94.1103 126.594 93.999 126.246 93.8213 125.93C93.6437 125.614 93.4034 125.337 93.1153 125.118C92.5179 124.671 91.7718 124.47 91.031 124.558C90.2901 124.645 89.6111 125.014 89.1341 125.587Z" fill="#263238"/>
<path d="M77.0442 121.837L71.5767 122.761C71.4987 122.408 71.4934 122.044 71.5611 121.689C71.6289 121.334 71.7683 120.997 71.9708 120.698C72.1734 120.398 72.4348 120.144 72.7391 119.949C73.0434 119.754 73.3841 119.624 73.7406 119.565C74.4772 119.45 75.2299 119.622 75.8442 120.044C76.4585 120.467 76.8878 121.108 77.0442 121.837Z" fill="#263238"/>
<path d="M81.8726 128.922L78.3457 140.973L72.2083 137.084L81.8726 128.922Z" fill="#F28F8F"/>
<path d="M82.9737 146.679C82.0532 146.49 81.0979 146.564 80.2178 146.894C79.3378 147.224 78.5687 147.795 77.9991 148.543C78.6399 148.87 79.3646 148.996 80.0783 148.905C80.7108 148.812 81.309 148.559 81.8159 148.169C82.3227 147.779 82.7213 147.266 82.9737 146.679Z" fill="#F28F8F"/>
<path d="M70.0213 133.835C69.3206 135.644 66.6485 136.299 64.0611 135.29C61.4737 134.281 59.9413 131.994 60.6497 130.185C61.3582 128.375 64.0226 127.728 66.61 128.737C69.1974 129.746 70.7298 132.056 70.0213 133.835Z" fill="#F28F8F"/>
<path d="M103.45 135.02C103.657 135.413 103.865 135.791 104.081 136.168C104.358 136.661 104.612 137.154 104.897 137.639C105.036 137.877 105.182 138.108 105.336 138.324C105.49 138.54 105.852 138.878 105.837 138.971C105.69 140.226 105.028 141.812 105.475 143.83C105.921 145.847 106.36 146.248 104.505 149.174C103.257 151.145 100.924 153.594 99.8842 156.166C98.8446 158.738 98.3441 161.326 100.924 163.828C103.503 166.331 106.237 166.362 108.732 169.042C110.611 171.067 112.336 172.73 120.645 183.28C126.751 191.027 129.693 199.112 137.494 202.023C141.539 203.472 145.878 203.905 150.13 203.286C151.275 203.143 152.376 202.754 153.357 202.146C155.736 200.498 156.876 191.689 149.553 183.087C146.565 179.584 144.162 178.267 138.88 174.617C134.583 171.644 131.949 169.45 125.981 164.937C120.537 160.848 117.757 158.199 116.502 155.82C115.228 153.216 114.62 150.338 114.731 147.441C115 144.076 115.501 144.076 113.707 140.511C112.428 138.201 111.859 135.059 111.181 133.149C110.464 131.271 109.487 129.503 108.278 127.897C107.417 126.836 106.644 125.705 105.968 124.517C105.85 124.198 105.631 123.928 105.344 123.747C105.232 123.698 105.112 123.672 104.99 123.672C104.868 123.672 104.747 123.698 104.635 123.747C104.417 123.862 104.225 124.022 104.073 124.217C104.007 123.804 103.885 123.403 103.711 123.023C103.568 122.689 103.444 122.347 103.342 121.999C103.272 121.737 103.08 121.46 102.81 121.467C102.65 121.491 102.503 121.57 102.395 121.691C101.904 122.164 101.57 122.777 101.44 123.446C101.354 124.354 101.396 125.269 101.563 126.165C101.582 126.298 101.582 126.432 101.563 126.565C101.495 126.727 101.407 126.88 101.301 127.02C101.035 127.515 100.971 128.095 101.124 128.637C101.427 129.588 101.784 130.521 102.194 131.432C102.402 132.002 102.518 132.602 102.71 133.172C102.91 133.806 103.157 134.424 103.45 135.02Z" fill="#FFA8A7"/>
<path d="M106.483 144.2C106.376 144.631 106.229 145.054 106.106 145.493L105.991 145.847C105.91 144.998 105.766 144.157 105.559 143.329C105.259 141.851 105.783 140.588 106.006 139.125C105.996 138.941 105.931 138.764 105.821 138.617C104.238 136.58 103.059 134.259 102.348 131.779C101.894 130.238 100.546 128.698 101.27 127.05C100.369 128.59 101.771 130.354 102.11 131.886C102.729 134.381 103.822 136.734 105.328 138.817L105.49 139.017C105.221 140.519 104.766 142.02 105.059 143.568C105.269 144.355 105.411 145.159 105.482 145.971C104.889 149.22 101.925 151.515 100.438 154.441C98.7444 157.383 97.9512 161.48 100.947 163.851C97.8665 160.563 99.345 157.09 101.486 153.841C100.737 155.261 100.558 156.913 100.985 158.461C101.279 159.304 101.743 160.077 102.348 160.733C102.947 161.38 103.666 161.903 104.466 162.273C103.803 161.665 103.178 161.017 102.595 160.332C102.151 159.668 101.801 158.945 101.555 158.184C101.138 156.666 101.176 155.06 101.663 153.563C102.833 151.831 104.173 150.175 105.105 148.658C105.508 147.978 105.79 147.233 105.937 146.456C106.354 145.785 106.675 145.059 106.892 144.3C107.15 143.406 107.195 142.465 107.022 141.551C106.904 142.445 106.724 143.33 106.483 144.2ZM108.062 138.039C107.993 137.731 107.923 137.431 107.877 137.123C107.831 136.815 107.831 136.507 107.816 136.206C107.813 135.903 107.826 135.6 107.854 135.298C107.879 135.005 107.925 134.714 107.993 134.428V134.274L107.877 134.127C107.391 133.526 107.006 132.85 106.738 132.125C106.599 131.767 106.489 131.399 106.406 131.024C106.326 130.654 106.275 130.278 106.252 129.9V129.753L106.183 129.669C105.692 129.115 105.254 128.517 104.874 127.882C104.512 127.173 104.265 126.412 104.142 125.626C104.124 125.759 104.124 125.893 104.142 126.026C104.17 126.257 104.222 126.484 104.296 126.704C104.505 127.611 104.873 128.474 105.382 129.253C105.565 129.429 105.706 129.643 105.796 129.88C105.887 130.117 105.924 130.371 105.906 130.623C105.985 131.692 106.364 132.717 106.999 133.58C107.16 133.772 107.295 133.985 107.4 134.212C107.502 134.527 107.53 134.862 107.485 135.19C107.371 136.177 107.573 137.174 108.062 138.039ZM102.071 127.79C102.233 128.113 102.441 128.413 102.595 128.744C102.903 129.422 102.957 130.185 103.211 130.885C103.483 131.623 103.975 132.26 104.62 132.71C104.657 132.737 104.691 132.768 104.72 132.803C104.882 133.011 104.774 133.45 104.766 133.688C104.766 134.042 104.766 134.397 104.766 134.751C104.812 135.883 105.118 136.99 105.659 137.985C105.544 137.554 105.405 137.138 105.328 136.715C105.239 136.292 105.172 135.866 105.128 135.436C105.086 135.017 105.071 134.595 105.082 134.173C105.099 133.764 105.151 133.357 105.236 132.957L105.29 132.741L105.113 132.595C104.545 132.127 104.07 131.558 103.711 130.916C103.398 130.305 103.16 129.659 103.003 128.991C102.965 128.86 102.918 128.731 102.864 128.606C102.808 128.491 102.743 128.381 102.672 128.275C102.309 127.793 101.995 127.277 101.732 126.735C101.801 126.896 101.794 127.104 101.855 127.281C101.915 127.456 101.987 127.626 102.071 127.79Z" fill="#FFA8A7"/>
<path opacity="0.4" d="M106.483 144.2C106.376 144.631 106.229 145.054 106.106 145.493L105.991 145.847C105.91 144.998 105.766 144.157 105.559 143.329C105.259 141.851 105.783 140.588 106.006 139.125C105.996 138.941 105.931 138.764 105.821 138.617C104.238 136.58 103.059 134.259 102.348 131.779C101.894 130.238 100.546 128.698 101.27 127.05C100.369 128.59 101.771 130.354 102.11 131.886C102.729 134.381 103.822 136.734 105.328 138.817L105.49 139.017C105.221 140.519 104.766 142.02 105.059 143.568C105.269 144.355 105.411 145.159 105.482 145.971C104.889 149.22 101.925 151.515 100.438 154.441C98.7444 157.383 97.9512 161.48 100.947 163.851C97.8665 160.563 99.345 157.09 101.486 153.841C100.737 155.261 100.558 156.913 100.985 158.461C101.279 159.304 101.743 160.077 102.348 160.733C102.947 161.38 103.666 161.903 104.466 162.273C103.803 161.665 103.178 161.017 102.595 160.332C102.151 159.668 101.801 158.945 101.555 158.184C101.138 156.666 101.176 155.06 101.663 153.563C102.833 151.831 104.173 150.175 105.105 148.658C105.508 147.978 105.79 147.233 105.937 146.456C106.354 145.785 106.675 145.059 106.892 144.3C107.15 143.406 107.195 142.465 107.022 141.551C106.904 142.445 106.724 143.33 106.483 144.2ZM108.062 138.039C107.993 137.731 107.923 137.431 107.877 137.123C107.831 136.815 107.831 136.507 107.816 136.206C107.813 135.903 107.826 135.6 107.854 135.298C107.879 135.005 107.925 134.714 107.993 134.428V134.274L107.877 134.127C107.391 133.526 107.006 132.85 106.738 132.125C106.599 131.767 106.489 131.399 106.406 131.024C106.326 130.654 106.275 130.278 106.252 129.9V129.753L106.183 129.669C105.692 129.115 105.254 128.517 104.874 127.882C104.512 127.173 104.265 126.412 104.142 125.626C104.124 125.759 104.124 125.893 104.142 126.026C104.17 126.257 104.222 126.484 104.296 126.704C104.505 127.611 104.873 128.474 105.382 129.253C105.565 129.429 105.706 129.643 105.796 129.88C105.887 130.117 105.924 130.371 105.906 130.623C105.985 131.692 106.364 132.717 106.999 133.58C107.16 133.772 107.295 133.985 107.4 134.212C107.502 134.527 107.53 134.862 107.485 135.19C107.371 136.177 107.573 137.174 108.062 138.039ZM102.071 127.79C102.233 128.113 102.441 128.413 102.595 128.744C102.903 129.422 102.957 130.185 103.211 130.885C103.483 131.623 103.975 132.26 104.62 132.71C104.657 132.737 104.691 132.768 104.72 132.803C104.882 133.011 104.774 133.45 104.766 133.688C104.766 134.042 104.766 134.397 104.766 134.751C104.812 135.883 105.118 136.99 105.659 137.985C105.544 137.554 105.405 137.138 105.328 136.715C105.239 136.292 105.172 135.866 105.128 135.436C105.086 135.017 105.071 134.595 105.082 134.173C105.099 133.764 105.151 133.357 105.236 132.957L105.29 132.741L105.113 132.595C104.545 132.127 104.07 131.558 103.711 130.916C103.398 130.305 103.16 129.659 103.003 128.991C102.965 128.86 102.918 128.731 102.864 128.606C102.808 128.491 102.743 128.381 102.672 128.275C102.309 127.793 101.995 127.277 101.732 126.735C101.801 126.896 101.794 127.104 101.855 127.281C101.915 127.456 101.987 127.626 102.071 127.79Z" fill="white"/>
<path d="M212.251 280.554C205.451 273.284 200.947 269.503 192.607 265.992C182.357 261.664 120.899 240.287 115.978 238.562V298.881C117.984 299.512 120.029 300.009 122.1 300.367C148.998 304.988 174.603 302.423 189.011 303.447C194.94 310.963 199.091 313.404 208.008 319.441C220.822 328.12 223.301 329.706 223.301 329.706C223.301 329.706 236.323 323.769 239.611 312.519C239.611 312.488 227.814 297.202 212.251 280.554Z" fill="#455A64"/>
<path d="M170.937 257.937C149.153 250.121 119.344 239.748 115.978 238.585V298.904C117.984 299.536 120.029 300.032 122.1 300.39C142.176 303.817 161.535 303.27 176.051 303.193L170.937 257.937Z" fill="#37474F"/>
<path d="M165.501 239.448C163.961 217.994 157.8 208.884 151.124 205.997C144.547 202.862 133.412 206.428 118.781 220.628C106.93 232.094 99.6454 242.513 91.1824 257.922C87.2936 259.677 74.195 268.387 71.1224 277.943C71.7444 282.089 73.117 286.087 75.1729 289.74C85.3839 306.096 107.061 306.897 119.959 299.751C127.776 295.439 134.929 285.767 140.859 274.339C143.007 281.27 144.84 286.575 144.84 286.575C153.144 287.681 161.588 286.253 169.066 282.479C169.066 282.479 167.256 263.728 165.501 239.448Z" fill="#455A64"/>
<path opacity="0.2" d="M148.305 286.768H149.152C147.42 280.315 145.733 274.362 144.224 269.057C140.92 257.367 138.31 248.142 137.694 242.443C137.329 238.862 137.201 235.261 137.309 231.663C137.363 228.629 137.386 227.104 136.539 226.634C135.892 226.28 135.045 226.742 134.298 227.235C132.45 228.467 129.932 232.263 123.055 247.41C122.585 248.442 122.108 249.52 121.615 250.614C115.701 263.859 108.362 280.299 94.5785 280.299H93.9624C85.6304 280.007 79.8858 276.195 76.767 268.972L76.1587 269.657C79.4237 276.965 85.3994 280.815 93.9393 281.116C108.655 281.632 116.271 264.629 122.362 250.96C122.845 249.867 123.322 248.799 123.794 247.757C129.67 234.828 132.742 229.275 134.752 227.928C135.738 227.273 136.054 227.312 136.146 227.366C136.577 227.597 136.547 229.483 136.508 231.67C136.401 235.289 136.532 238.911 136.901 242.513C137.525 248.28 140.143 257.537 143.462 269.257C144.933 274.524 146.596 280.407 148.305 286.768Z" fill="black"/>
<path opacity="0.2" d="M140.875 274.393C134.945 285.79 127.784 295.462 119.967 299.805C108.548 306.119 89.735 306.335 78.8464 294.499C84.0366 298.95 95.7877 301.838 109.649 297.041C124.28 291.981 129.147 281.231 128.9 269.01C128.608 254.58 131.857 227.951 136 223.107C135.577 224.083 135.229 225.089 134.96 226.118C130.34 245.762 134.19 251.422 137.864 264.182C138.911 267.979 139.958 271.428 140.875 274.393Z" fill="black"/>
<path d="M150.616 214.691C152.926 213.79 154.959 212.896 157.546 211.764C158.333 211.445 159.073 211.023 159.748 210.509C160.519 209.832 160.734 208.484 160.026 208.199C159.292 208.037 158.536 208.008 157.793 208.114C156.147 208.267 154.516 208.556 152.918 208.977C154.404 208.368 155.721 207.814 157.007 207.152C157.227 207.069 157.427 206.942 157.597 206.78C157.767 206.618 157.902 206.424 157.996 206.208C158.089 205.993 158.138 205.761 158.14 205.526C158.142 205.291 158.098 205.059 158.008 204.842C157.769 204.072 156.722 203.81 154.589 204.141C154.219 203.532 153.049 202.762 150.893 203.186C150.577 202.585 149.268 202.193 147.72 202.477C146.172 202.762 145.194 203.032 143.677 203.394C141.752 203.856 140.597 204.341 138.68 204.934C135.122 206.058 131.749 207.552 128.269 208.907C122.285 211.218 118.574 212.18 115.724 213.412C112.144 214.952 85.5226 225.733 85.5226 225.733C85.5226 225.733 80.3017 228.043 75.0191 237.284C72.139 242.305 69.1127 248.065 74.3722 250.698C79.6317 253.332 91.1133 249.721 98.9679 245.308C109.248 239.533 115.516 234.751 124.618 227.651C126.243 226.388 127.699 225.518 129.816 225.471C131.45 225.532 133.082 225.331 134.652 224.878C135.756 224.513 136.825 224.052 137.848 223.5C139.614 222.416 141.27 221.163 142.792 219.758C143.385 219.242 143.939 218.687 144.548 218.217C146.367 216.723 148.416 215.532 150.616 214.691Z" fill="#FFA8A7"/>
<path d="M154.589 204.156C153.55 204.495 152.525 204.842 151.509 205.196C150.492 205.55 149.461 205.912 148.429 206.297L145.402 207.483L142.368 208.692C143.295 208.123 144.254 207.609 145.241 207.152C146.226 206.667 147.227 206.243 148.252 205.85C149.276 205.458 150.315 205.126 151.37 204.849C152.427 204.548 153.502 204.317 154.589 204.156Z" fill="#F28F8F"/>
<path d="M150.916 203.201C149.853 203.471 148.821 203.802 147.782 204.133L144.701 205.18L141.621 206.228C140.589 206.567 139.55 206.913 138.541 207.229C139.511 206.721 140.512 206.282 141.521 205.858C142.53 205.435 143.554 205.088 144.601 204.695C145.649 204.303 146.681 204.018 147.743 203.756C148.782 203.475 149.844 203.289 150.916 203.201Z" fill="#F28F8F"/>
<path d="M130.463 224.701C128.022 223.808 127.006 221.136 126.043 222.668C125.08 224.201 125.273 225.41 119.22 230.723C117.149 232.548 113.137 235.859 109.903 238.585C114.877 235.243 119.567 231.593 124.634 227.643C126.135 226.48 126.998 225.987 127.714 225.833L128.269 225.672L128.492 225.625C128.637 225.592 128.783 225.566 128.931 225.548H129.139C129.363 225.519 129.59 225.501 129.816 225.495H130.586H130.717C131.558 225.477 132.396 225.405 133.228 225.279C132.28 225.242 131.346 225.047 130.463 224.701Z" fill="#F28F8F"/>
<path d="M157.03 207.144C157.446 206.988 157.785 206.677 157.977 206.277C158.169 205.877 158.2 205.418 158.062 204.996C158.049 205.318 157.943 205.629 157.757 205.893C157.571 206.156 157.314 206.361 157.015 206.482C155.952 206.952 153.088 207.822 150.854 208.676C149.588 209.167 148.408 209.856 147.358 210.717C147.897 210.532 151.755 209.246 152.918 208.969C154.427 208.361 155.744 207.806 157.03 207.144Z" fill="#F28F8F"/>
<path d="M57.4695 172.961C42.3532 179.545 43.7778 190.788 48.9988 204.464C54.5587 219.095 69.7904 248.488 73.6946 250.252L88.8647 230.585L73.6561 195.793C73.6561 195.793 63.7223 174.94 57.4695 172.961Z" fill="#FFA8A7"/>
<path d="M85.099 222.045C85.099 222.045 72.216 228.914 72.5702 237.492C73.4249 234.088 78.9617 228.536 86.539 225.325L85.099 222.045Z" fill="#F28F8F"/>
</g>
<defs>
<filter id="filter0_d_206_395" x="0" y="57" width="204" height="205" filterUnits="userSpaceOnUse" color-interpolation-filters="sRGB">
<feFlood flood-opacity="0" result="BackgroundImageFix"/>
<feColorMatrix in="SourceAlpha" type="matrix" values="0 0 0 0 0 0 0 0 0 0 0 0 0 0 0 0 0 0 127 0" result="hardAlpha"/>
<feOffset dy="4"/>
<feGaussianBlur stdDeviation="2"/>
<feComposite in2="hardAlpha" operator="out"/>
<feColorMatrix type="matrix" values="0 0 0 0 0 0 0 0 0 0 0 0 0 0 0 0 0 0 0.25 0"/>
<feBlend mode="normal" in2="BackgroundImageFix" result="effect1_dropShadow_206_395"/>
<feBlend mode="normal" in="SourceGraphic" in2="effect1_dropShadow_206_395" result="shape"/>
</filter>
</defs>
</svg>
