<svg width="204" height="262" viewBox="0 0 204 262" fill="none" xmlns="http://www.w3.org/2000/svg">
<g filter="url(#filter0_d_206_203)">
<rect x="4" y="57" width="196" height="197" rx="98" fill="#BC6BFA"/>
</g>
<mask id="mask0_206_203" style="mask-type:alpha" maskUnits="userSpaceOnUse" x="4" y="0" width="196" height="254">
<path d="M4 155.5C4 101.376 87.3761 0 141.5 0C195.624 0 200 101.376 200 155.5C200 209.624 156.124 254 102 254C47.8761 254 4 209.624 4 155.5Z" fill="#BC6BFA"/>
</mask>
<g mask="url(#mask0_206_203)">
<path d="M70.0616 168.397C70.0616 168.397 70.1904 171.024 66.9703 174.167C63.7503 177.31 63.0857 181.297 65.6514 183.523C68.2171 185.749 71.5969 184.708 71.5969 184.708C71.5969 184.708 69.1806 184.234 69.2476 181.102C69.3145 177.969 72.313 177.418 72.313 177.418C72.313 177.418 70.8911 182.755 75.698 185.1C80.5049 187.444 85.9197 178.479 94.4567 180.674C102.994 182.869 100.871 186.243 111.829 188.737C122.788 191.231 131.835 186.996 134.401 180.669C136.966 174.342 142.129 168.16 147.126 170.519C152.124 172.879 150.697 177.861 156.137 176.573C161.578 175.285 161.135 169.875 161.135 169.875C161.135 169.875 159.363 174.321 155.89 170.823C152.418 167.325 150.831 163.054 146.395 161.075C141.959 159.097 133.442 164.584 133.442 164.584C133.442 164.584 134.849 159.947 141.794 158.041C148.739 156.135 152.938 160.545 156.642 153.404C160.347 146.263 157.868 139.684 156.41 138.035C154.952 136.387 154.04 135.459 154.04 135.459C154.04 135.459 154.69 139.854 152.778 142.023C150.867 144.192 146.4 143.61 145.565 138.329C144.731 133.048 149.568 125.799 154.643 124.145C156.085 123.666 157.632 123.6 159.109 123.955C160.586 124.311 161.934 125.072 163 126.155C163 126.155 162.346 121.755 158.652 119.972C154.958 118.19 152.15 118.586 149.311 120.359C146.472 122.131 142.484 125.232 140.661 123.218C138.837 121.204 137.028 118.664 141.784 114.552C146.539 110.441 151.356 112.084 154.612 108.241C157.868 104.397 154.829 98.1325 154.829 98.1325C154.29 99.165 153.475 100.027 152.474 100.622C151.473 101.217 150.326 101.522 149.161 101.502C146.868 101.421 144.68 100.516 142.999 98.9527C141.319 97.3894 140.258 95.2727 140.011 92.9907C139.383 87.7253 142.629 84.2322 145.993 84.057C149.357 83.8819 149.641 87.9108 148.842 90.3117C148.043 92.7125 145.029 94.1293 145.029 94.1293C145.029 94.1293 150.084 93.5214 152.016 90.3065C153.948 87.0916 155.54 82.8102 150.269 76.0765C144.999 69.3427 137.049 66.1381 133.061 60.5172C129.073 54.8963 130.691 49.2238 137.992 48.2089C145.292 47.1939 144.689 50.3058 150.97 52.3821C157.25 54.4584 160.244 47.4567 158.971 44.9476C157.698 42.4386 154.762 41.063 154.762 41.063C154.762 41.063 157.127 43.8039 153.731 45.0198C150.336 46.2356 146.287 43.9327 143.942 41.0166C141.598 38.1005 134.633 31.2792 125.586 35.169C116.538 39.0588 117.883 45.4422 118.584 47.7297C119.285 50.0173 123.71 52.3666 119.346 55.4579C114.983 58.5491 111.459 57.8072 111.366 53.4589C111.273 49.1105 116.126 48.9972 116.126 48.9972C116.126 48.9972 111.489 47.0085 104.158 50.1152C96.8266 53.2219 96.5793 55.3033 96.5793 55.3033C96.5793 55.3033 98.7071 51.9235 102.02 54.0153C105.333 56.107 104.447 62.6965 102.685 66.4421C100.923 70.1877 95.4716 71.6508 93.1274 68.3844C90.7832 65.118 97.4243 59.3528 97.4243 59.3528C97.4243 59.3528 92.9574 58.9407 87.9342 66.7048C82.9109 74.469 88.2845 76.4938 87.8053 81.3574C87.3262 86.2209 79.6702 86.5094 75.3837 86.1179C71.0972 85.7263 65.8214 88.0602 63.8842 91.2699C61.9471 94.4797 63.369 96.829 63.369 96.829C63.369 96.829 65.3474 91.677 69.263 91.7285C73.1786 91.78 73.0549 97.6843 69.4588 100.116C65.8626 102.548 57.439 104.737 54.1108 111.904C50.7825 119.071 55.2906 126.273 58.6137 128.195C60.5846 129.333 62.9269 129.643 65.1259 129.055C65.1259 129.055 64.1419 131.451 60.0202 132.105C55.8985 132.76 52.6167 129.102 52.4879 126.474C52.4879 126.474 50.6589 133.362 57.2947 137.201C63.9306 141.039 64.7601 137.417 66.9858 137.881C69.2115 138.344 70.5253 140.678 69.3248 142.002C68.1244 143.327 61.674 141.951 58.7631 147.206C55.8522 152.461 58.7631 154.888 61.3391 157.814C63.9152 160.741 64.3995 162.858 61.7667 163.77C59.134 164.682 57.6451 163.729 57.4235 166.161C57.202 168.592 60.9063 169.133 60.9063 169.133C60.9063 169.133 57.5936 166.866 61.1537 166.181C64.7137 165.496 63.7297 167.727 66.9034 168.051C70.077 168.376 71.025 166.351 71.025 166.351L70.0616 168.397Z" fill="#00FFA5"/>
<path opacity="0.41" d="M75.2909 131.312C75.2909 131.312 68.7014 126.16 70.3501 120.73C71.9988 115.299 79.052 114.614 81.4065 112.26C83.761 109.905 79.9948 102.852 82.5811 97.4421C85.1675 92.0325 95.9765 95.7935 99.2842 89.915C102.592 84.0364 99.2842 82.3878 102.108 78.6216C104.931 74.8554 106.574 75.7983 112.69 75.5664C118.805 75.3346 120.454 72.2691 119.511 69.2139C118.568 66.1587 119.98 62.8614 121.629 61.9237C123.277 60.986 124.452 60.7439 124.452 60.0381C124.452 59.3322 121.876 63.8042 123.04 67.0964C124.205 70.3886 128.45 72.5061 128.708 80.2703C128.965 88.0344 123.746 89.2349 121.397 94.387C120.71 95.7853 120.499 97.3699 120.797 98.8992C121.095 100.428 121.884 101.818 123.046 102.857C123.046 102.857 119.516 99.5648 115.518 104.032C111.52 108.498 113.87 116.031 117.636 115.794C121.402 115.557 124.22 112.734 124.22 112.734C124.22 112.734 118.553 118.617 119.985 121.672C121.417 124.728 125.137 121.507 128.558 123.893C131.979 126.278 134.102 130.333 131.212 133.599C128.321 136.866 125.993 136.433 125.993 136.433C125.993 136.433 129.259 126.83 122.798 128.633C116.338 130.436 117.868 138.612 122.34 140.483C126.812 142.353 129.398 142.363 128.218 145.635C127.038 148.906 119.516 149.401 119.753 151.75C119.99 154.1 127.281 150.576 128.218 157.16C129.156 163.744 121.871 164.218 121.397 167.042C120.923 169.865 126.575 170.334 128.924 168.922C128.924 168.922 130.104 171.982 123.514 173.863C116.925 175.743 117.847 171.04 112.932 171.745C108.017 172.451 110.109 178.804 106.111 179.51C102.113 180.215 96.229 177.629 96.229 177.629C96.229 177.629 69.1754 174.594 75.2909 131.312Z" fill="#EBB376"/>
<path d="M114.699 156.799C114.699 156.799 116.405 156.928 117.193 153.914C117.981 150.9 119.681 149.586 124.921 150.509C130.161 151.431 133.314 149.478 133.968 147.623C134.314 146.786 134.535 145.903 134.622 145.001C134.622 145.001 134.885 148.669 132.917 151.554C130.949 154.44 122.561 151.817 121.119 154.44C119.676 157.062 121.119 159.159 119.413 160.864C117.708 162.57 114.828 163.353 114.828 163.353C115.29 163.917 115.87 164.374 116.526 164.691C117.183 165.009 117.901 165.18 118.63 165.192C121.253 165.321 123.612 163.615 123.612 163.615C123.612 163.615 120.33 167.289 116.008 168.597C111.685 169.906 109.449 164.666 107.486 166.109C105.523 167.552 107.749 168.86 106.044 170.957C105.526 171.577 104.886 172.084 104.164 172.445C103.441 172.806 102.651 173.013 101.845 173.054C101.845 173.054 101.33 165.192 102.633 162.436C103.936 159.679 108.007 158.108 109.583 157.85C111.16 157.593 114.699 156.799 114.699 156.799Z" fill="white"/>
<path d="M79.6651 126.927C79.6651 126.927 75.0797 128.406 72.4161 132.548C69.7525 136.691 69.9019 142.755 69.16 144.975C68.4181 147.196 65.7596 151.189 66.2027 156.366C66.6458 161.544 70.6387 171.9 71.2312 173.822C71.5657 174.813 72.1502 175.701 72.9281 176.4C73.7061 177.1 74.6512 177.587 75.6722 177.815C76.6424 178.052 77.6323 178.2 78.6295 178.258C79.4217 180.418 80.0149 182.646 80.4018 184.914C80.678 186.578 80.7282 188.271 80.5513 189.948C80.5513 189.948 73.6011 192.606 70.9375 193.199C68.2739 193.791 60.283 192.462 55.2546 198.232C50.2261 204.003 50.968 213.467 50.5198 218.938C50.0716 224.41 50.0767 225.894 50.0767 225.894C50.0767 225.894 57.7688 225.152 64.281 228.851C67.8993 230.877 71.4045 233.1 74.7809 235.507C74.7809 235.507 82.4524 227.826 99.1709 226.486C115.889 225.147 121.062 227.079 121.062 227.079L144.159 218.676C144.159 218.676 142.067 199.314 136.317 193.23C127.044 183.405 118.661 189.082 112.298 189.525C105.936 189.968 105.235 187.433 104.349 184.888C103.463 182.343 103.463 175.275 103.463 171.874C103.548 169.418 103.945 166.982 104.642 164.625C104.642 164.625 112.777 155.305 112.777 145.563C112.777 135.82 107.455 129.437 100.356 126.773C93.2563 124.109 84.3792 124.856 79.6651 126.927Z" fill="#EBB376"/>
<path d="M74.7603 235.765C74.706 235.766 74.6532 235.748 74.6109 235.714C71.2385 233.315 67.7404 231.098 64.1316 229.073C57.7739 225.466 50.1592 226.141 50.0819 226.151C50.0464 226.154 50.0109 226.149 49.9773 226.138C49.9437 226.126 49.9127 226.108 49.8861 226.084C49.859 226.061 49.8371 226.031 49.822 225.998C49.8069 225.966 49.7989 225.93 49.7985 225.894C49.7985 225.832 49.7985 224.348 50.2468 218.918C50.324 217.918 50.3653 216.769 50.4116 215.559C50.6074 210.19 50.8753 202.838 55.0485 198.042C59.0001 193.503 64.6314 193.281 68.3563 193.132C69.1967 193.128 70.0356 193.059 70.8654 192.926C73.2662 192.41 79.289 190.123 80.2988 189.742C80.4401 188.137 80.3848 186.521 80.134 184.93C79.7606 182.736 79.1898 180.58 78.4286 178.489C77.4764 178.41 76.5311 178.262 75.6001 178.046C74.5333 177.811 73.5456 177.303 72.7331 176.573C71.9206 175.842 71.3109 174.914 70.9633 173.878C70.8499 173.497 70.5923 172.766 70.2626 171.818C68.8715 167.871 66.2852 160.529 65.9245 156.361C65.5793 152.338 67.0528 149.076 68.1296 146.696C68.449 145.99 68.7273 145.377 68.8973 144.867C69.1475 143.881 69.3197 142.877 69.4125 141.863C69.7886 139.081 70.2986 135.274 72.1585 132.384C73.9515 129.746 76.5319 127.743 79.5312 126.66C84.302 124.599 93.2408 123.821 100.423 126.515C108.429 129.514 113.015 136.449 113.015 145.542C113.015 154.95 105.456 164.043 104.854 164.749C104.172 167.066 103.784 169.46 103.7 171.874C103.7 175.269 103.7 182.333 104.57 184.806L104.642 185.017C105.482 187.403 106.27 189.654 112.262 189.242C113.847 189.075 115.415 188.778 116.951 188.356C122.432 187.026 129.254 185.367 136.487 193.029C142.227 199.108 144.308 217.826 144.396 218.619C144.402 218.677 144.388 218.735 144.357 218.785C144.327 218.834 144.28 218.872 144.226 218.892L121.15 227.311C121.093 227.333 121.031 227.333 120.974 227.311C120.923 227.311 115.621 225.43 99.1915 226.734C82.7615 228.037 75.0282 235.616 74.9458 235.688C74.8967 235.737 74.83 235.765 74.7603 235.765ZM51.6739 225.579C54.3169 225.579 59.6802 225.956 64.3841 228.629C67.9459 230.632 71.4023 232.815 74.7397 235.173C75.9402 234.086 83.8331 227.445 99.1503 226.229C114.746 224.987 120.274 226.548 121.062 226.801L143.881 218.501C143.638 216.44 141.444 199.031 136.152 193.405C129.125 185.965 122.757 187.516 117.09 188.881C115.525 189.313 113.928 189.614 112.314 189.783C105.936 190.226 105.039 187.681 104.174 185.213L104.101 185.002C103.2 182.426 103.2 175.321 103.2 171.9C103.291 169.418 103.693 166.956 104.395 164.574C104.408 164.539 104.427 164.508 104.452 164.481C104.529 164.388 112.52 155.12 112.52 145.568C112.52 136.701 108.053 129.941 100.263 127.02C93.2048 124.372 84.4205 125.119 79.7475 127.164C79.7012 127.164 75.2189 128.664 72.6377 132.677C70.8396 135.47 70.3398 139.215 69.9689 141.951C69.8652 142.994 69.6791 144.028 69.4125 145.042C69.2322 145.557 68.9488 146.196 68.6242 146.918C67.5938 149.246 66.1306 152.435 66.4655 156.33C66.8158 160.452 69.4898 168.02 70.7726 171.668C71.1178 172.642 71.3651 173.343 71.4836 173.729C71.8011 174.678 72.3591 175.528 73.1031 176.197C73.8471 176.866 74.7518 177.331 75.7289 177.547C76.6822 177.78 77.6548 177.927 78.6347 177.985C78.6875 177.985 78.7388 178.002 78.782 178.032C78.8252 178.063 78.8582 178.105 78.8768 178.155C79.6717 180.329 80.27 182.571 80.6646 184.852C80.9451 186.54 80.9936 188.257 80.8089 189.958C80.8038 190.003 80.7861 190.046 80.7578 190.081C80.7296 190.117 80.6919 190.144 80.6492 190.159C80.3658 190.272 73.6475 192.838 70.9993 193.425C70.1474 193.563 69.2862 193.635 68.4233 193.642C64.7859 193.786 59.2886 194.002 55.4813 198.371C51.4369 203.008 51.169 210.257 50.9784 215.548C50.932 216.769 50.8908 217.923 50.8083 218.933C50.4734 223.091 50.391 224.951 50.3704 225.59C50.5971 225.6 51.0608 225.579 51.6739 225.579Z" fill="#263238"/>
<path d="M115.07 136.747C117.646 135.14 123.752 135.428 123.185 135.284C122.618 135.14 120.48 131.631 117.208 131.193C113.937 130.755 110.66 132.801 110.66 132.801C110.66 132.801 111.655 130.74 112.432 130.889C113.21 131.039 116.92 129.004 118.203 126.67C119.486 124.336 117.631 121.703 115.967 120.714C114.303 119.725 114.22 115.861 114.22 115.861C114.22 115.861 111.232 118.05 113.082 121.848C114.931 125.645 116.497 125.356 114.076 127.108C111.876 128.7 109.547 128.241 105.714 128.602C106.688 127.571 107.208 125.48 107.208 125.48C107.208 125.48 104.302 127.381 103.293 126.263C102.283 125.145 103.071 125.372 105.307 124.362C107.543 123.352 108.914 122.347 108.991 120.096C109.068 117.844 107.208 111.275 107.208 111.275C107.208 111.275 107.322 112.306 107.656 114.969C107.991 117.633 106.111 119.22 104.411 119.091C102.711 118.962 105.534 114.969 105.534 114.969C104.254 115.375 103.149 116.204 102.401 117.319C101.283 119.107 102.175 119.328 100.722 122.239C99.2689 125.15 98.1458 123.141 94.5393 124.583C90.9329 126.026 90.9895 128.705 90.9895 128.705L91.5511 130.251C92.2851 129.403 93.1558 128.683 94.1271 128.123C94.9436 127.679 95.847 127.42 96.7743 127.362C97.7016 127.304 98.6304 127.449 99.4956 127.788C101.289 128.571 99.7223 131.142 99.7223 131.142C99.7223 131.142 99.9181 130.987 100.238 130.776C100.187 130.895 100.159 131.023 100.155 131.152C103.999 129.091 106.131 131.884 106.131 131.884L98.8774 136.85C98.8774 136.85 101.155 136.557 104.143 136.119C107.131 135.681 107.414 136.85 107.414 139.627C107.414 142.404 103.293 149.849 103.293 149.849C103.293 149.849 107.986 147.788 108.445 150.029C108.693 151.447 108.369 152.905 107.543 154.084C108.842 152.858 110.273 151.78 111.809 150.869C113.942 149.7 115.369 150.725 117.641 148.242C119.913 145.758 119.068 139.772 119.068 139.772C119.068 139.772 119.146 140.745 117.574 142.348C116.003 143.95 112.092 145.439 112.216 144.038C112.34 142.636 112.51 138.35 115.07 136.747Z" fill="#00FFA5"/>
<path d="M86.5433 113.491L86.6927 113.048C86.6314 113.191 86.5814 113.339 86.5433 113.491Z" fill="#00FFA5"/>
<path d="M86.543 113.491C86.2009 114.551 85.9408 115.636 85.765 116.737C86.1494 116.237 86.3593 115.625 86.3626 114.995C86.3594 114.488 86.42 113.983 86.543 113.491Z" fill="#00FFA5"/>
<path d="M100.876 117.571C100.876 117.571 100 119.838 99.2636 120.688C98.5268 121.538 95.9353 121.204 95.6107 119.184C95.2862 117.164 99.9076 114.032 99.9076 114.032C99.9076 114.032 93.8951 115.753 92.4989 118.329C91.1027 120.905 89.9228 121.873 87.0171 121.013C85.5745 120.585 85.4714 118.622 85.7651 116.752C85.0317 117.63 84.0966 118.318 83.0397 118.756C80.5718 119.941 81.1076 114.892 81.1076 114.892C81.1076 114.892 77.9752 117.983 77.3466 119.297C76.7181 120.611 76.3832 124.666 78.6346 127.999C80.8861 131.333 79.6032 132.94 79.6032 132.94C80.8913 132.296 82.2875 128.643 85.085 128.215C87.8826 127.788 89.4901 131.116 89.4901 131.116C89.2953 130.046 89.3322 128.946 89.5983 127.891C90.0259 125.959 91.6591 124.563 95.9353 123.378C100.212 122.193 100.876 117.571 100.876 117.571Z" fill="#00FFA5"/>
<path d="M113.334 121.265C113.386 121.322 113.437 121.389 113.484 121.451C113.803 121.75 114.313 122.218 114.911 122.749C114.437 122.202 113.909 121.705 113.334 121.265Z" fill="#00FFA5"/>
<path d="M73.323 155.037C73.2547 155.037 73.1891 155.01 73.1408 154.962C73.0925 154.913 73.0654 154.848 73.0654 154.78C73.0654 154.316 72.8284 154.1 72.4729 153.749C71.8838 153.272 71.4543 152.627 71.2415 151.9C70.6439 149.906 73.0705 148.2 73.1736 148.128C73.2305 148.09 73.3001 148.076 73.3675 148.088C73.4349 148.101 73.4947 148.139 73.5342 148.195C73.5536 148.223 73.5673 148.254 73.5744 148.287C73.5815 148.32 73.582 148.354 73.5757 148.387C73.5695 148.42 73.5567 148.452 73.538 148.48C73.5194 148.508 73.4953 148.532 73.4672 148.551C73.4672 148.551 71.2467 150.096 71.7361 151.75C71.9222 152.388 72.3 152.952 72.8181 153.368C73.0453 153.523 73.2327 153.729 73.3652 153.97C73.4977 154.21 73.5715 154.479 73.5806 154.754C73.5842 154.79 73.5802 154.826 73.5689 154.86C73.5576 154.895 73.5392 154.926 73.5149 154.953C73.4906 154.98 73.4609 155.001 73.4279 155.015C73.3948 155.03 73.3591 155.037 73.323 155.037Z" fill="#263238"/>
<path d="M73.864 160.529C73.8168 160.53 73.7704 160.518 73.7301 160.493C73.7301 160.493 73.1118 160.102 72.7563 159.901C72.5399 159.782 71.865 160.05 71.2725 160.282L71.0304 160.38C70.7733 160.497 70.4914 160.55 70.2093 160.533C69.9272 160.516 69.6537 160.43 69.4126 160.282C69.3637 160.24 69.3322 160.181 69.3244 160.117C69.3167 160.053 69.3332 159.989 69.3707 159.936C69.4083 159.884 69.4641 159.848 69.5272 159.834C69.5902 159.821 69.656 159.832 69.7114 159.865C69.8841 159.96 70.0768 160.013 70.2738 160.019C70.4709 160.025 70.6666 159.985 70.8449 159.901L71.0819 159.803C71.9165 159.473 72.5812 159.21 73.0088 159.453C73.2715 159.597 73.6682 159.844 73.8743 159.968C74.4693 159.613 75.1407 159.406 75.8321 159.365C76.3526 159.418 76.8689 159.506 77.3777 159.628C78.1623 159.814 78.9597 159.941 79.7632 160.009C80.8331 159.974 81.8921 159.781 82.9059 159.437C82.938 159.426 82.9721 159.421 83.0061 159.423C83.0401 159.425 83.0735 159.433 83.1041 159.448C83.1348 159.463 83.1622 159.484 83.1848 159.509C83.2074 159.535 83.2247 159.565 83.2356 159.597C83.257 159.661 83.2522 159.731 83.2224 159.792C83.1925 159.853 83.1399 159.899 83.0759 159.921C82.0033 160.295 80.8783 160.497 79.7425 160.519C78.9111 160.454 78.086 160.325 77.2747 160.133C76.7985 160.015 76.3148 159.931 75.827 159.88C75.1841 159.942 74.5638 160.15 74.0134 160.488C73.9693 160.518 73.917 160.532 73.864 160.529Z" fill="#263238"/>
<path d="M73.6011 163.177C71.6743 163.177 71.1951 161.972 71.1694 161.9C71.1459 161.836 71.1484 161.766 71.1764 161.704C71.2043 161.643 71.2555 161.594 71.3188 161.57C71.3502 161.558 71.3838 161.552 71.4175 161.553C71.4512 161.554 71.4845 161.561 71.5152 161.575C71.5459 161.589 71.5736 161.609 71.5965 161.634C71.6194 161.659 71.6371 161.688 71.6485 161.719C71.6794 161.797 72.3801 163.42 75.7702 162.235C75.8016 162.223 75.835 162.218 75.8684 162.22C75.9018 162.221 75.9346 162.23 75.9648 162.244C75.995 162.258 76.022 162.279 76.0443 162.304C76.0666 162.329 76.0838 162.358 76.0947 162.389C76.1179 162.453 76.1147 162.524 76.0857 162.586C76.0567 162.648 76.0044 162.696 75.9402 162.719C75.1913 163 74.4008 163.155 73.6011 163.177Z" fill="#263238"/>
<path d="M82.6431 146.212C82.6431 146.212 85.1109 144.666 86.3011 144.625C87.7178 144.454 89.1543 144.67 90.4588 145.248C91.5029 145.705 92.6508 145.872 93.7819 145.733C93.7819 145.733 93.0606 146.423 92.7154 146.423C92.3702 146.423 93.38 146.938 94.0189 146.82C94.6577 146.701 95.106 146.588 95.106 146.588C95.106 146.588 94.5238 147.804 93.617 148.036C92.9748 148.158 92.3125 148.127 91.685 147.943C90.1342 147.745 88.6057 147.4 87.1203 146.912C84.6936 146.109 83.5241 145.526 82.6431 146.212Z" fill="#263238"/>
<path d="M83.4517 139.159C83.4517 139.159 84.647 139.983 85.7444 139.617C86.8418 139.251 88.4029 138.334 90.1443 138.7C91.4972 139.069 92.7924 139.624 93.9929 140.349C93.9929 140.349 91.9784 137.773 89.7785 137.232C87.5785 136.691 85.9299 137.783 85.0128 138.056C84.0957 138.329 82.5398 138.334 83.4517 139.159Z" fill="#263238"/>
<path d="M75.8885 139.844C75.6485 139.464 75.3262 139.143 74.9454 138.905C74.5645 138.667 74.135 138.518 73.6886 138.468C72.0399 138.195 70.484 140.58 70.484 140.58C70.484 140.58 72.4057 139.112 73.5753 139.478C74.7448 139.844 75.3373 141.786 75.8885 139.844Z" fill="#263238"/>
<path d="M74.1474 147.082C73.4845 146.663 72.7294 146.412 71.9474 146.351C70.6646 146.258 71.1231 145.939 69.933 146.31C68.7428 146.681 66.2647 147.726 65.9916 147.634C65.7186 147.541 66.3574 148.278 67.089 148.278C67.8206 148.278 65.4404 148.458 65.8062 148.643C66.5284 148.953 67.3161 149.079 68.0988 149.009C69.1293 148.917 70.2988 148.278 71.3962 147.819C72.4936 147.361 73.4158 146.717 74.1474 147.082Z" fill="#263238"/>
<path d="M84.7245 144.769C84.6646 144.77 84.6063 144.75 84.5596 144.712C84.5073 144.669 84.4742 144.607 84.4675 144.54C84.4607 144.472 84.4809 144.405 84.5236 144.352C85.066 143.738 85.7289 143.241 86.4711 142.894C86.9773 142.643 87.5344 142.513 88.0991 142.513C88.6638 142.513 89.221 142.643 89.7272 142.894C89.7843 142.931 89.8248 142.989 89.8402 143.055C89.8556 143.121 89.8446 143.191 89.8096 143.249C89.7922 143.279 89.7691 143.304 89.7415 143.324C89.714 143.344 89.6827 143.359 89.6495 143.366C89.6163 143.374 89.5818 143.375 89.5482 143.369C89.5147 143.363 89.4827 143.35 89.4541 143.332C89.0239 143.119 88.5505 143.009 88.0708 143.009C87.591 143.009 87.1177 143.119 86.6875 143.332C86.019 143.651 85.4202 144.099 84.9255 144.651C84.9036 144.685 84.8741 144.713 84.8392 144.734C84.8042 144.755 84.765 144.767 84.7245 144.769Z" fill="#263238"/>
<path d="M73.3281 146.644C73.2746 146.644 73.2225 146.627 73.1791 146.596C73.1357 146.564 73.1031 146.52 73.086 146.469C72.9726 146.145 72.5708 145.274 72.0556 145.171C71.9883 145.157 71.9291 145.118 71.8906 145.061C71.8521 145.004 71.8373 144.935 71.8495 144.867C71.8562 144.834 71.8695 144.802 71.8884 144.774C71.9073 144.746 71.9316 144.722 71.9598 144.704C71.9881 144.685 72.0197 144.672 72.0529 144.666C72.0861 144.659 72.1203 144.659 72.1535 144.666C73.0448 144.841 73.5291 146.15 73.5806 146.299C73.5928 146.331 73.5985 146.365 73.5973 146.399C73.5961 146.433 73.588 146.466 73.5736 146.497C73.5591 146.528 73.5386 146.555 73.5133 146.578C73.4879 146.601 73.4582 146.618 73.426 146.629C73.3947 146.64 73.3614 146.646 73.3281 146.644Z" fill="#263238"/>
<path d="M74.2555 147.876C74.2186 147.875 74.1821 147.868 74.1484 147.852C74.1147 147.837 74.0845 147.816 74.0597 147.788C74.0161 147.735 73.9949 147.667 74.0007 147.599C74.0064 147.531 74.0387 147.467 74.0906 147.422C75.0442 146.487 75.617 145.232 75.698 143.898C75.8423 141.657 75.2859 140.807 75.2807 140.807C75.2421 140.751 75.227 140.682 75.2385 140.614C75.2501 140.547 75.2874 140.487 75.3425 140.447C75.3975 140.408 75.4654 140.392 75.5318 140.402C75.5983 140.413 75.6579 140.449 75.698 140.503C75.729 140.544 76.3678 141.456 76.2132 143.914C76.1316 145.391 75.4905 146.782 74.4203 147.804C74.377 147.848 74.3178 147.874 74.2555 147.876Z" fill="#263238"/>
<path d="M78.6348 178.258C79.9138 178.174 81.1755 177.918 82.3855 177.495C83.8538 176.877 92.2672 173.713 93.8128 172.858C95.3584 172.003 97.4193 171.395 98.6764 170.004C99.9335 168.613 97.1308 172.317 93.3491 175.64C90.1845 178.472 87.2426 181.543 84.5494 184.827C83.6993 185.986 81.8497 188.376 81.8497 188.376C81.8497 188.376 81.6951 182.972 80.6905 181.122C80.1415 180.077 79.4496 179.112 78.6348 178.258Z" fill="#263238"/>
<path d="M155.627 253.756C155.39 249.512 154.826 245.292 153.943 241.134C152.366 233.663 145.55 222.256 144.896 220.948C144.241 219.639 144.107 217.274 144.107 217.274C144.107 217.274 141.877 216.486 131.655 218.063C121.433 219.639 117.569 222.091 117.569 222.091C117.569 222.091 111.144 218.418 98.1663 220.912C85.1882 223.405 74.4359 232.056 74.4359 232.056C74.4359 232.056 68.6655 226.285 61.4578 222.875C54.25 219.464 50.0511 221.169 50.0511 221.169C50.0511 221.169 48.8712 226.677 48.4797 227.867C48.0881 229.057 44.9351 231.015 43.3637 239.408C42.5038 244.143 42.1326 248.955 42.256 253.766L155.627 253.756Z" fill="#263238"/>
<path d="M155.627 254.014H42.2816C42.2146 254.012 42.1506 253.986 42.1027 253.939C42.0548 253.892 42.0267 253.828 42.024 253.761C41.8976 248.927 42.2705 244.093 43.1369 239.335C44.3373 232.947 46.4445 230.237 47.578 228.784C47.8507 228.473 48.0795 228.127 48.258 227.754C48.6445 226.605 49.8037 221.154 49.8037 221.097C49.8131 221.056 49.832 221.018 49.8589 220.986C49.8857 220.954 49.9198 220.928 49.9582 220.912C50.1334 220.84 54.3427 219.206 61.571 222.622C68.0729 225.713 73.4672 230.732 74.4512 231.69C75.9196 230.556 86.131 222.931 98.1147 220.633C110.176 218.32 116.549 221.247 117.559 221.772C118.321 221.329 122.345 219.196 131.608 217.784C141.784 216.239 144.097 216.981 144.19 217.012C144.237 217.029 144.278 217.059 144.309 217.099C144.339 217.14 144.357 217.188 144.36 217.238C144.36 217.264 144.494 219.562 145.117 220.809C145.215 220.999 145.442 221.406 145.761 221.983C147.698 225.446 152.835 234.647 154.19 241.046C155.074 245.216 155.639 249.448 155.88 253.705C155.88 253.775 155.855 253.843 155.808 253.895C155.788 253.927 155.762 253.954 155.73 253.974C155.699 253.995 155.664 254.008 155.627 254.014ZM42.5083 253.499H155.339C155.09 249.36 154.534 245.246 153.675 241.19C152.34 234.848 147.229 225.698 145.303 222.256C144.978 221.669 144.746 221.257 144.648 221.061C144.189 219.919 143.92 218.709 143.85 217.48C143.185 217.352 140.243 216.996 131.675 218.315C121.644 219.861 117.729 222.282 117.693 222.308C117.652 222.332 117.606 222.345 117.559 222.345C117.511 222.345 117.465 222.332 117.425 222.308C117.363 222.272 110.918 218.701 98.1971 221.159C85.4767 223.617 74.6882 232.164 74.58 232.251C74.5335 232.294 74.4729 232.317 74.41 232.317C74.3471 232.317 74.2865 232.294 74.24 232.251C74.1833 232.195 68.4181 226.476 61.3289 223.122C54.997 220.098 51.0093 221.128 50.2983 221.365C50.1076 222.256 49.1081 226.852 48.7526 227.939C48.559 228.367 48.3019 228.763 47.9901 229.114C46.8824 230.531 44.8216 233.174 43.6469 239.444C42.7923 244.078 42.4108 248.787 42.5083 253.499Z" fill="#263238"/>
<path d="M105.977 155.923C105.977 155.923 109.671 150.89 112.778 151.632C115.884 152.374 115.441 156.068 113.963 159.623C112.484 163.177 109.841 163.615 107.6 163.909C105.359 164.203 104.349 163.023 104.509 162.137" fill="#EBB376"/>
<path d="M106.971 164.213C106.565 164.236 106.159 164.178 105.775 164.042C105.392 163.905 105.04 163.694 104.74 163.42C104.562 163.252 104.426 163.045 104.344 162.815C104.261 162.584 104.235 162.338 104.266 162.096C104.277 162.027 104.315 161.966 104.371 161.925C104.427 161.885 104.497 161.868 104.565 161.879C104.633 161.89 104.694 161.928 104.735 161.984C104.776 162.04 104.792 162.11 104.781 162.178C104.762 162.34 104.783 162.505 104.84 162.658C104.897 162.811 104.99 162.949 105.111 163.059C105.626 163.574 106.523 163.801 107.6 163.657C109.583 163.389 112.293 163.028 113.756 159.535C114.916 156.758 115.183 154.512 114.514 153.203C114.338 152.866 114.088 152.574 113.783 152.348C113.478 152.122 113.125 151.969 112.752 151.9C109.846 151.204 106.25 156.021 106.214 156.088C106.194 156.116 106.169 156.14 106.14 156.158C106.111 156.176 106.079 156.188 106.045 156.194C106.012 156.199 105.977 156.197 105.944 156.189C105.911 156.181 105.88 156.166 105.853 156.145C105.799 156.104 105.762 156.043 105.752 155.976C105.741 155.909 105.757 155.84 105.796 155.784C105.951 155.573 109.635 150.632 112.87 151.395C113.317 151.482 113.738 151.669 114.102 151.941C114.467 152.213 114.766 152.563 114.977 152.966C115.92 154.821 115.091 157.67 114.23 159.736C112.685 163.517 109.774 163.899 107.667 164.182C107.436 164.207 107.203 164.218 106.971 164.213Z" fill="#263238"/>
<path d="M73.8071 133.744C73.5598 133.687 73.2919 133.656 73.0756 133.589C72.1471 133.349 71.3014 132.861 70.6283 132.177C69.3454 130.792 68.7684 128.885 68.5417 126.948C68.2671 125.007 68.2845 123.036 68.5932 121.1C68.7565 120.187 69.0388 119.298 69.433 118.457C69.8504 117.635 70.3907 116.881 71.0353 116.221C71.6959 115.527 72.4262 114.902 73.2147 114.356C73.6062 114.063 74.0287 113.795 74.446 113.517C74.8633 113.238 75.2961 113.001 75.7649 112.641C77.5591 111.338 79.0063 109.615 79.9793 107.623C80.983 105.671 81.4523 103.488 81.3395 101.296C81.2643 100.754 81.1419 100.219 80.9737 99.6988C80.82 99.1952 80.6359 98.7014 80.4224 98.2201C80.0066 97.2604 79.4884 96.3483 78.8768 95.4998C79.2728 96.4448 79.5982 97.4177 79.8505 98.4107C79.969 98.9259 80.0721 99.3999 80.1494 99.8945C80.2348 100.372 80.2762 100.857 80.273 101.342C80.2268 102.308 80.0358 103.262 79.7063 104.171C79.3909 105.092 78.9836 105.979 78.4904 106.819C77.5197 108.467 76.1902 109.876 74.6006 110.941C74.2245 111.183 73.7711 111.456 73.3228 111.734C72.8746 112.012 72.4264 112.296 71.9885 112.61C71.0734 113.223 70.2255 113.931 69.4588 114.722C68.6783 115.552 68.0285 116.495 67.5319 117.52C67.4031 117.777 67.3104 118.035 67.2022 118.308C67.092 118.569 67.0008 118.838 66.9291 119.112C66.857 119.385 66.7643 119.658 66.7127 119.931L66.5685 120.755C66.4809 121.307 66.4706 121.853 66.4242 122.404C66.3779 122.955 66.4242 123.491 66.4551 124.027C66.486 124.563 66.5273 125.104 66.6097 125.629C66.6921 126.155 66.7694 126.66 66.8776 127.201C66.9858 127.742 67.1301 128.257 67.2743 128.777C67.4525 129.302 67.6571 129.818 67.8874 130.323C68.3756 131.332 69.0667 132.23 69.9173 132.961C70.8013 133.644 71.8604 134.064 72.9725 134.171C74.0252 134.267 75.0854 134.108 76.0638 133.708C75.5536 133.796 75.0352 133.827 74.5181 133.8C74.3017 133.8 74.0544 133.759 73.8071 133.744Z" fill="white"/>
<path d="M128.048 136.119C127.375 136.302 126.684 136.411 125.987 136.443C125.286 136.487 124.582 136.487 123.88 136.443C123.174 136.407 122.474 136.325 121.773 136.237L121.258 136.16L120.665 136.088C120.268 136.048 119.869 136.04 119.47 136.062C117.833 136.146 116.268 136.763 115.014 137.819C113.79 138.915 112.967 140.387 112.675 142.002C112.612 142.393 112.569 142.787 112.546 143.182C112.546 143.574 112.546 143.996 112.51 144.28L112.484 144.759C112.458 144.919 112.412 145.068 112.386 145.228C112.325 145.547 112.228 145.858 112.097 146.155C111.968 146.462 111.818 146.759 111.649 147.046C111.453 147.319 111.273 147.613 111.057 147.876C110.622 148.424 110.133 148.928 109.599 149.38C108.507 150.323 107.313 151.141 106.039 151.817C107.465 151.435 108.823 150.832 110.062 150.029C111.382 149.212 112.47 148.07 113.221 146.711C113.412 146.356 113.566 145.981 113.679 145.593C113.736 145.398 113.798 145.202 113.839 145.001L113.906 144.393C113.957 143.955 113.978 143.651 114.004 143.311C114.03 142.971 114.112 142.657 114.158 142.327C114.42 141.059 115.09 139.912 116.065 139.061C117.045 138.215 118.271 137.705 119.563 137.608C119.89 137.577 120.219 137.566 120.547 137.577L121.062 137.613L121.624 137.664C122.372 137.732 123.124 137.751 123.875 137.721C125.395 137.71 126.9 137.422 128.316 136.871C129.034 136.588 129.684 136.156 130.222 135.604C130.741 135.048 131.078 134.347 131.186 133.594C130.905 134.237 130.473 134.802 129.927 135.242C129.381 135.681 128.736 135.982 128.048 136.119Z" fill="white"/>
<path d="M106.605 136.634C107.291 136.002 108.05 135.456 108.867 135.006C109.684 134.552 110.547 134.189 111.443 133.924C112.334 133.641 113.262 133.409 114.215 133.182C115.212 132.949 116.194 132.656 117.157 132.306C118.277 131.907 119.25 131.175 119.944 130.209L120.202 129.813C120.274 129.674 120.325 129.524 120.387 129.385L120.562 128.947C120.614 128.803 120.645 128.643 120.686 128.494C120.835 127.819 120.792 127.116 120.562 126.464C120.328 125.874 119.978 125.338 119.532 124.887C119.168 124.502 118.781 124.139 118.373 123.8C117.61 123.151 116.904 122.548 116.281 121.899C115.021 120.626 114.157 119.016 113.792 117.262C113.411 115.459 113.174 113.532 114.153 112.11C114.714 111.372 115.414 110.751 116.214 110.281C117.055 109.766 117.864 109.2 118.635 108.586C117.749 109.029 116.837 109.359 115.925 109.756C114.95 110.134 114.064 110.711 113.324 111.451C112.615 112.304 112.173 113.347 112.051 114.449L111.989 115.248C111.989 115.516 111.989 115.763 111.989 116.036C112.005 116.553 112.05 117.069 112.123 117.582C112.396 119.72 113.318 121.724 114.766 123.321C115.457 124.068 116.196 124.77 116.976 125.423C117.682 126.052 118.342 126.696 118.522 127.237C118.627 127.513 118.648 127.814 118.584 128.102C118.584 128.19 118.548 128.272 118.522 128.36L118.419 128.607C118.388 128.689 118.362 128.777 118.326 128.854L118.182 129.071C117.72 129.701 117.084 130.185 116.353 130.462C114.73 131.199 112.747 131.575 110.856 132.384C109.89 132.761 108.973 133.254 108.125 133.852C107.283 134.451 106.52 135.154 105.853 135.944C104.506 137.484 103.74 139.447 103.689 141.492C104.142 139.613 105.159 137.917 106.605 136.634Z" fill="white"/>
<path d="M104.833 93.5266C104.904 93.302 104.95 93.0706 104.972 92.8362C104.991 92.5809 104.974 92.3242 104.921 92.0737C104.809 91.6365 104.617 91.2241 104.354 90.8578L103.777 90.0335C103.088 89.0139 102.675 87.8337 102.576 86.6073C102.388 85.3582 102.496 84.0824 102.891 82.8824C103.36 81.6899 104.166 80.6591 105.209 79.9148C106.239 79.0802 107.461 78.297 108.13 77.0863C107.26 78.1528 106.023 78.6989 104.864 79.4253C103.6 80.121 102.573 81.1799 101.917 82.4651C101.331 83.7982 101.074 85.2521 101.165 86.7052C101.175 88.1935 101.579 89.6527 102.334 90.9351L102.849 91.8006C102.975 91.9917 103.062 92.2051 103.107 92.4292C103.1 92.8804 102.948 93.3175 102.674 93.676C102.399 94.0732 102.014 94.3813 101.567 94.5621C101.027 94.7652 100.462 94.8918 99.887 94.9383C97.3934 95.2113 94.4824 94.8713 91.5973 96.0305C90.1875 96.6374 88.9565 97.5952 88.0217 98.8126C87.1062 99.9659 86.3952 101.268 85.9197 102.661C85.4367 104.049 85.1979 105.51 85.2139 106.979C85.2176 107.353 85.2469 107.726 85.3014 108.097L85.389 108.658L85.5384 109.22L85.6157 109.488L85.6775 109.689C85.7188 109.817 85.7445 109.962 85.7754 110.101C85.8313 110.395 85.8658 110.693 85.8785 110.992C85.9174 112.254 85.7432 113.513 85.3633 114.717C85.0389 115.933 84.4436 117.061 83.6219 118.014C83.4603 118.224 83.2501 118.39 83.0094 118.5C82.7688 118.609 82.505 118.659 82.2411 118.643C81.973 118.581 81.7215 118.462 81.5044 118.293C81.2819 118.135 81.1172 117.909 81.0355 117.649C80.9033 117.041 81.0064 116.406 81.324 115.871C81.6115 115.265 81.9789 114.7 82.4163 114.192C81.8926 114.635 81.43 115.146 81.0407 115.711C80.5881 116.298 80.3778 117.035 80.4533 117.772C80.5254 118.169 80.7264 118.531 81.0252 118.803C81.3168 119.085 81.6693 119.297 82.0556 119.421C82.4735 119.536 82.917 119.516 83.323 119.364C83.7 119.229 84.0492 119.027 84.3535 118.767C85.4109 117.764 86.2206 116.53 86.7183 115.16C87.258 113.817 87.5545 112.388 87.5941 110.941C87.6007 110.562 87.5818 110.183 87.5374 109.807C87.5065 109.617 87.4859 109.426 87.4344 109.23L87.3623 108.942L87.3211 108.72L87.2283 108.292L87.1768 107.849C87.1467 107.55 87.1346 107.249 87.1407 106.948C87.1772 105.712 87.4282 104.491 87.8826 103.341C88.3108 102.181 88.9232 101.097 89.6962 100.132C90.423 99.1982 91.3774 98.4673 92.468 98.0089C93.6228 97.5684 94.8399 97.3128 96.0744 97.2515C97.3728 97.1433 98.7329 97.1536 100.196 96.963C100.967 96.8654 101.72 96.659 102.432 96.3499C103.229 95.9845 103.898 95.3887 104.354 94.6394C104.553 94.2868 104.714 93.9137 104.833 93.5266Z" fill="white"/>
<path d="M79.4488 115.222C78.5778 115.873 77.8279 116.671 77.2334 117.582C76.5659 118.53 76.1445 119.629 76.0072 120.781C75.923 121.935 76.099 123.094 76.5225 124.171C76.8787 125.143 77.2845 126.095 77.7383 127.025C78.1557 127.932 78.6194 128.849 78.9336 129.674C79.2676 130.507 79.3949 131.408 79.3046 132.301C79.1778 133.255 78.7136 134.133 77.9959 134.774C78.5188 134.602 78.9977 134.318 79.3992 133.942C79.8006 133.565 80.1147 133.106 80.3195 132.595C80.7306 131.526 80.8184 130.359 80.572 129.241C80.3333 128.213 80.0164 127.206 79.624 126.227C79.2634 125.274 78.8667 124.351 78.5627 123.465C78.2411 122.657 78.075 121.795 78.0732 120.925C78.1191 120.054 78.3436 119.202 78.7327 118.421C79.12 117.557 79.6095 116.742 80.1907 115.995C80.776 115.208 81.5553 114.587 82.4525 114.192C81.3612 114.171 80.2976 114.536 79.4488 115.222Z" fill="white"/>
<path d="M94.1218 122.574C93.1858 122.709 92.2947 123.062 91.52 123.604C90.7849 124.145 90.1531 124.813 89.6549 125.578C89.3993 125.951 89.1769 126.345 88.9903 126.757C88.8143 127.187 88.6847 127.635 88.6039 128.092C88.4434 129.012 88.5674 129.959 88.9594 130.807C89.3282 131.594 89.9334 132.246 90.6905 132.672C90.3052 132.006 90.0598 131.268 89.9692 130.503C89.9024 129.826 89.9977 129.142 90.2474 128.509C90.3742 128.2 90.5223 127.901 90.6905 127.613C90.8793 127.325 91.084 127.048 91.3036 126.783L91.6436 126.381L92.0094 126.016L92.1898 125.83L92.3804 125.67C92.5143 125.572 92.6328 125.454 92.7668 125.366C93.3005 124.991 93.9026 124.723 94.5391 124.578C95.358 124.414 96.1612 124.179 96.94 123.877C97.1519 123.779 97.3583 123.669 97.5582 123.548C97.754 123.414 97.9446 123.28 98.125 123.136L98.6041 122.651C98.7494 122.489 98.8836 122.317 99.006 122.136C99.1312 121.962 99.2415 121.778 99.3357 121.585C99.4336 121.394 99.5315 121.209 99.6191 121.018C99.7701 120.631 99.8974 120.235 100 119.833C98.8308 120.992 97.6716 122.054 96.3939 122.285C95.7344 122.425 94.9925 122.435 94.1218 122.574Z" fill="white"/>
<path d="M115.671 170.777C115.06 170.777 114.462 170.959 113.954 171.298C113.445 171.638 113.049 172.121 112.815 172.686C112.581 173.251 112.52 173.872 112.639 174.472C112.759 175.071 113.053 175.622 113.485 176.055C113.918 176.487 114.468 176.781 115.068 176.901C115.668 177.02 116.289 176.959 116.854 176.725C117.419 176.491 117.902 176.094 118.241 175.586C118.581 175.078 118.762 174.48 118.762 173.869C118.762 173.049 118.437 172.263 117.857 171.683C117.277 171.103 116.491 170.777 115.671 170.777Z" fill="white"/>
<path d="M126.217 170.556C126.647 170.556 126.995 170.208 126.995 169.778C126.995 169.348 126.647 169 126.217 169C125.788 169 125.439 169.348 125.439 169.778C125.439 170.208 125.788 170.556 126.217 170.556Z" fill="white"/>
<path d="M125.869 159.185C125.869 158.943 125.797 158.707 125.663 158.506C125.529 158.305 125.338 158.149 125.115 158.057C124.892 157.964 124.647 157.94 124.41 157.987C124.173 158.034 123.955 158.15 123.784 158.321C123.614 158.492 123.497 158.71 123.45 158.946C123.403 159.183 123.427 159.429 123.52 159.652C123.612 159.875 123.769 160.066 123.969 160.2C124.17 160.334 124.406 160.406 124.648 160.406C124.971 160.404 125.281 160.275 125.51 160.047C125.738 159.818 125.868 159.508 125.869 159.185Z" fill="white"/>
<path d="M124.318 147.191C124.319 146.773 124.196 146.364 123.965 146.016C123.733 145.668 123.404 145.396 123.018 145.235C122.632 145.075 122.207 145.032 121.797 145.113C121.387 145.194 121.01 145.395 120.714 145.69C120.418 145.985 120.216 146.362 120.134 146.771C120.053 147.181 120.094 147.606 120.254 147.993C120.414 148.379 120.684 148.709 121.032 148.941C121.379 149.174 121.788 149.298 122.206 149.298C122.765 149.296 123.3 149.074 123.696 148.679C124.092 148.285 124.315 147.75 124.318 147.191Z" fill="white"/>
<path d="M118.223 139.529C117.979 139.53 117.74 139.604 117.538 139.74C117.335 139.877 117.177 140.07 117.085 140.296C116.992 140.522 116.968 140.771 117.016 141.01C117.065 141.25 117.183 141.47 117.356 141.642C117.529 141.814 117.749 141.932 117.989 141.979C118.229 142.026 118.477 142.002 118.703 141.908C118.929 141.814 119.121 141.656 119.257 141.452C119.393 141.249 119.465 141.01 119.465 140.766C119.465 140.603 119.433 140.442 119.37 140.292C119.308 140.141 119.216 140.005 119.101 139.89C118.986 139.775 118.849 139.684 118.698 139.622C118.548 139.56 118.386 139.529 118.223 139.529Z" fill="white"/>
<path d="M108.002 128.643C107.715 128.643 107.435 128.728 107.197 128.887C106.959 129.046 106.774 129.272 106.664 129.537C106.554 129.801 106.526 130.092 106.582 130.373C106.637 130.654 106.775 130.912 106.978 131.115C107.18 131.317 107.438 131.455 107.719 131.511C108 131.567 108.291 131.538 108.556 131.428C108.82 131.319 109.046 131.133 109.205 130.895C109.364 130.657 109.449 130.377 109.449 130.091C109.449 129.707 109.297 129.339 109.025 129.067C108.754 128.796 108.385 128.643 108.002 128.643Z" fill="white"/>
<path d="M100.443 113.099C100.246 113.099 100.053 113.158 99.8882 113.268C99.7238 113.378 99.5957 113.534 99.5201 113.716C99.4444 113.899 99.4246 114.1 99.4632 114.294C99.5017 114.488 99.5969 114.666 99.7367 114.806C99.8765 114.945 100.055 115.041 100.248 115.079C100.442 115.118 100.643 115.098 100.826 115.022C101.009 114.947 101.165 114.818 101.275 114.654C101.384 114.49 101.443 114.296 101.443 114.099C101.443 113.834 101.338 113.579 101.15 113.392C100.963 113.205 100.709 113.099 100.443 113.099Z" fill="white"/>
<path d="M109.99 121.095C110.188 121.095 110.381 121.037 110.545 120.927C110.71 120.817 110.838 120.661 110.914 120.478C110.989 120.296 111.009 120.095 110.97 119.901C110.932 119.707 110.837 119.529 110.697 119.389C110.557 119.249 110.379 119.154 110.185 119.116C109.991 119.077 109.79 119.097 109.608 119.172C109.425 119.248 109.269 119.376 109.159 119.541C109.049 119.705 108.991 119.898 108.991 120.096C108.991 120.361 109.096 120.615 109.283 120.803C109.471 120.99 109.725 121.095 109.99 121.095Z" fill="white"/>
<path d="M111.093 93.5575C111.291 93.5575 111.484 93.4989 111.648 93.389C111.813 93.2792 111.941 93.1231 112.016 92.9405C112.092 92.7578 112.112 92.5569 112.073 92.363C112.035 92.1691 111.939 91.991 111.8 91.8512C111.66 91.7114 111.482 91.6162 111.288 91.5777C111.094 91.5391 110.893 91.5589 110.71 91.6346C110.528 91.7102 110.372 91.8383 110.262 92.0027C110.152 92.1671 110.093 92.3603 110.093 92.558C110.093 92.8231 110.199 93.0773 110.386 93.2647C110.574 93.4522 110.828 93.5575 111.093 93.5575Z" fill="white"/>
<path d="M107.548 99.5545C107.978 99.5545 108.326 99.2062 108.326 98.7765C108.326 98.3469 107.978 97.9986 107.548 97.9986C107.118 97.9986 106.77 98.3469 106.77 98.7765C106.77 99.2062 107.118 99.5545 107.548 99.5545Z" fill="white"/>
<path d="M96.5536 103.218C96.5536 102.932 96.469 102.653 96.3104 102.416C96.1519 102.179 95.9266 101.994 95.663 101.885C95.3994 101.776 95.1094 101.747 94.8295 101.803C94.5497 101.858 94.2927 101.996 94.0909 102.198C93.8892 102.399 93.7518 102.656 93.6961 102.936C93.6405 103.216 93.669 103.506 93.7782 103.77C93.8874 104.033 94.0723 104.259 94.3095 104.417C94.5468 104.576 94.8257 104.66 95.111 104.66C95.4936 104.66 95.8605 104.508 96.131 104.238C96.4016 103.967 96.5536 103.6 96.5536 103.218Z" fill="white"/>
<path d="M72.5708 124.202C72.5698 124.422 72.6342 124.638 72.7559 124.822C72.8775 125.005 73.051 125.149 73.2542 125.234C73.4575 125.319 73.6814 125.342 73.8976 125.299C74.1138 125.257 74.3126 125.151 74.4687 124.996C74.6249 124.84 74.7314 124.642 74.7747 124.426C74.8181 124.21 74.7964 123.986 74.7123 123.783C74.6282 123.579 74.4856 123.405 74.3025 123.282C74.1193 123.16 73.904 123.094 73.6837 123.094C73.3894 123.094 73.1071 123.211 72.8986 123.418C72.69 123.626 72.5722 123.908 72.5708 124.202Z" fill="white"/>
<path d="M59.3555 115.984C59.1578 115.984 58.9646 116.043 58.8002 116.153C58.6359 116.263 58.5078 116.419 58.4321 116.601C58.3565 116.784 58.3367 116.985 58.3752 117.179C58.4138 117.373 58.509 117.551 58.6488 117.691C58.7885 117.831 58.9666 117.926 59.1605 117.964C59.3544 118.003 59.5554 117.983 59.738 117.907C59.9206 117.832 60.0768 117.704 60.1866 117.539C60.2964 117.375 60.355 117.182 60.355 116.984C60.355 116.719 60.2497 116.465 60.0623 116.277C59.8748 116.09 59.6206 115.984 59.3555 115.984Z" fill="white"/>
<path d="M70.1287 109.766C70.3928 109.766 70.651 109.688 70.8706 109.541C71.0901 109.394 71.2611 109.185 71.362 108.941C71.4628 108.697 71.4889 108.428 71.437 108.169C71.3851 107.91 71.2575 107.673 71.0704 107.486C70.8833 107.3 70.645 107.173 70.3858 107.122C70.1266 107.071 69.8582 107.098 69.6145 107.2C69.3707 107.302 69.1627 107.474 69.0167 107.694C68.8707 107.914 68.7933 108.173 68.7943 108.437C68.7943 108.612 68.8288 108.785 68.896 108.947C68.9631 109.108 69.0615 109.255 69.1854 109.378C69.3094 109.502 69.4566 109.6 69.6184 109.666C69.7803 109.733 69.9537 109.767 70.1287 109.766Z" fill="white"/>
<path d="M66.1305 132.42C65.954 132.419 65.7811 132.47 65.6339 132.567C65.4866 132.665 65.3716 132.803 65.3033 132.966C65.2351 133.129 65.2167 133.308 65.2505 133.482C65.2843 133.655 65.3688 133.814 65.4932 133.939C65.6177 134.064 65.7765 134.15 65.9495 134.185C66.1226 134.219 66.302 134.202 66.4652 134.135C66.6284 134.068 66.7679 133.953 66.866 133.807C66.9642 133.66 67.0166 133.487 67.0166 133.311C67.0173 133.194 66.9949 133.078 66.9507 132.97C66.9064 132.862 66.8413 132.764 66.7589 132.681C66.6765 132.598 66.5786 132.532 66.4708 132.488C66.3629 132.443 66.2473 132.42 66.1305 132.42Z" fill="white"/>
<path d="M107.896 174.775C107.72 174.774 107.547 174.826 107.4 174.923C107.253 175.021 107.138 175.159 107.069 175.322C107.001 175.485 106.983 175.664 107.017 175.838C107.05 176.011 107.135 176.17 107.259 176.295C107.384 176.42 107.542 176.506 107.716 176.541C107.889 176.575 108.068 176.558 108.231 176.491C108.394 176.423 108.534 176.309 108.632 176.163C108.73 176.016 108.783 175.843 108.783 175.667C108.783 175.431 108.689 175.205 108.523 175.038C108.357 174.871 108.132 174.777 107.896 174.775Z" fill="white"/>
<path d="M126.647 127.314C126.934 127.315 127.214 127.231 127.453 127.072C127.692 126.913 127.878 126.687 127.989 126.423C128.099 126.158 128.128 125.866 128.072 125.585C128.016 125.304 127.878 125.045 127.676 124.842C127.473 124.64 127.214 124.502 126.933 124.446C126.652 124.39 126.36 124.419 126.096 124.53C125.831 124.64 125.605 124.826 125.446 125.065C125.287 125.304 125.203 125.585 125.204 125.871C125.206 126.253 125.358 126.62 125.628 126.89C125.899 127.16 126.265 127.313 126.647 127.314Z" fill="white"/>
<path d="M113.102 103.104C113.256 103.104 113.406 103.059 113.534 102.973C113.662 102.888 113.762 102.766 113.821 102.624C113.88 102.482 113.895 102.325 113.865 102.175C113.835 102.024 113.761 101.885 113.652 101.776C113.543 101.667 113.405 101.593 113.254 101.563C113.103 101.533 112.946 101.549 112.804 101.608C112.662 101.666 112.541 101.766 112.455 101.894C112.37 102.022 112.324 102.172 112.324 102.326C112.324 102.533 112.406 102.731 112.552 102.876C112.698 103.022 112.896 103.104 113.102 103.104Z" fill="white"/>
<path d="M94.5597 81.1204C94.736 81.1204 94.9083 81.0681 95.0549 80.9701C95.2015 80.8722 95.3157 80.733 95.3832 80.5701C95.4507 80.4073 95.4683 80.2281 95.4339 80.0552C95.3995 79.8823 95.3146 79.7234 95.19 79.5988C95.0653 79.4741 94.9065 79.3893 94.7336 79.3549C94.5607 79.3205 94.3815 79.3381 94.2186 79.4056C94.0558 79.473 93.9166 79.5873 93.8186 79.7339C93.7207 79.8804 93.6684 80.0528 93.6684 80.229C93.6677 80.3463 93.6903 80.4625 93.7349 80.5709C93.7794 80.6794 93.845 80.7779 93.9279 80.8608C94.0109 80.9437 94.1094 81.0094 94.2178 81.0539C94.3263 81.0985 94.4425 81.121 94.5597 81.1204Z" fill="white"/>
<path d="M86.1208 99.3278C86.4725 99.3278 86.8164 99.2234 87.1088 99.0279C87.4012 98.8323 87.629 98.5544 87.7634 98.2293C87.8978 97.9042 87.9327 97.5466 87.8637 97.2017C87.7947 96.8567 87.6249 96.54 87.3758 96.2916C87.1267 96.0433 86.8095 95.8744 86.4644 95.8064C86.1192 95.7384 85.7617 95.7743 85.437 95.9096C85.1123 96.045 84.835 96.2736 84.6403 96.5666C84.4457 96.8595 84.3423 97.2037 84.3433 97.5555C84.3433 97.7887 84.3893 98.0195 84.4787 98.2349C84.5681 98.4503 84.6991 98.6459 84.8642 98.8105C85.0293 98.9752 85.2253 99.1056 85.4409 99.1944C85.6566 99.2831 85.8876 99.3285 86.1208 99.3278Z" fill="white"/>
<path d="M63.7967 152.41C63.6428 152.41 63.4924 152.455 63.3645 152.541C63.2365 152.626 63.1368 152.748 63.0779 152.89C63.019 153.032 63.0036 153.188 63.0337 153.339C63.0637 153.49 63.1378 153.629 63.2466 153.738C63.3554 153.847 63.494 153.921 63.6449 153.951C63.7958 153.981 63.9522 153.965 64.0944 153.906C64.2365 153.847 64.358 153.748 64.4435 153.62C64.529 153.492 64.5746 153.341 64.5746 153.188C64.5746 152.981 64.4927 152.783 64.3468 152.637C64.2009 152.492 64.003 152.41 63.7967 152.41Z" fill="white"/>
<path d="M57.2587 223.4C57.2587 223.4 58.964 219.335 59.2268 218.155C59.4895 216.975 59.2268 210.288 59.2268 210.288C59.2268 210.288 57.5111 218.552 56.9959 219.582C56.4807 220.613 54.4199 223.704 54.4199 223.704L57.2587 223.4Z" fill="#263238"/>
<path d="M117.569 222.091L115.838 210.082L119.949 223.704L117.569 222.091Z" fill="#263238"/>
<path d="M82.2668 201.406C82.2237 201.405 82.1813 201.395 82.1431 201.375C82.1431 201.375 80.8499 200.679 78.7891 199.773C76.7283 198.866 74.8632 197.944 74.8426 197.933C74.7819 197.903 74.736 197.849 74.7147 197.784C74.6935 197.719 74.6987 197.649 74.7293 197.588C74.744 197.558 74.7648 197.53 74.7903 197.508C74.8158 197.486 74.8456 197.469 74.8778 197.458C74.91 197.448 74.944 197.444 74.9778 197.447C75.0116 197.449 75.0445 197.459 75.0745 197.475C75.0745 197.475 76.9292 198.397 78.9952 199.304C81.0612 200.211 82.375 200.911 82.3904 200.922C82.441 200.949 82.481 200.992 82.504 201.045C82.5271 201.098 82.5319 201.156 82.5177 201.212C82.5035 201.268 82.471 201.317 82.4256 201.352C82.3801 201.387 82.3242 201.406 82.2668 201.406Z" fill="#263238"/>
<path d="M94.2763 200.587C94.208 200.598 94.1382 200.581 94.0821 200.54C94.0261 200.5 93.9885 200.439 93.9775 200.37C93.9666 200.302 93.9832 200.232 94.0238 200.176C94.0644 200.12 94.1256 200.082 94.1939 200.072C94.2557 200.072 100.119 198.036 104.24 195.46C104.298 195.424 104.368 195.411 104.434 195.426C104.501 195.44 104.559 195.48 104.596 195.538C104.615 195.566 104.627 195.598 104.633 195.632C104.639 195.665 104.638 195.7 104.631 195.733C104.623 195.766 104.609 195.798 104.589 195.825C104.568 195.853 104.543 195.876 104.514 195.893C100.345 198.5 94.4206 200.53 94.3639 200.561C94.3365 200.575 94.3068 200.583 94.2763 200.587Z" fill="#263238"/>
<path d="M74.9716 229.103C74.9443 229.108 74.9164 229.108 74.8891 229.103C74.8572 229.094 74.8276 229.077 74.802 229.056C74.7763 229.034 74.7552 229.008 74.7399 228.978C74.7246 228.948 74.7153 228.916 74.7126 228.883C74.7099 228.849 74.7139 228.816 74.7243 228.784C74.7243 228.722 76.5842 223.024 80.1855 219.428C80.2094 219.404 80.2379 219.385 80.2693 219.371C80.3007 219.358 80.3344 219.352 80.3684 219.352C80.4024 219.352 80.4361 219.358 80.4674 219.371C80.4988 219.385 80.5273 219.404 80.5513 219.428C80.5985 219.476 80.6249 219.541 80.6249 219.608C80.6249 219.676 80.5985 219.74 80.5513 219.788C77.0376 223.302 75.2343 228.882 75.2137 228.939C75.1949 228.987 75.1616 229.029 75.1184 229.059C75.0751 229.088 75.0239 229.104 74.9716 229.103Z" fill="#263238"/>
<path d="M113.427 156.212C113.427 156.212 112.597 153.868 111.366 154.28C110.134 154.692 107.646 157.886 107.646 157.886C107.646 157.886 109.573 158.159 109.022 158.989C108.828 159.236 108.574 159.429 108.285 159.55C107.995 159.671 107.679 159.715 107.368 159.679C107.368 159.679 108.336 161.055 109.712 160.504C111.088 159.952 111.917 158.85 111.505 158.025L111.093 157.196C111.355 157.083 111.647 157.062 111.922 157.137C112.198 157.211 112.439 157.378 112.607 157.608C112.607 157.608 114.39 157.608 113.427 156.212Z" fill="#263238"/>
</g>
<defs>
<filter id="filter0_d_206_203" x="0" y="57" width="204" height="205" filterUnits="userSpaceOnUse" color-interpolation-filters="sRGB">
<feFlood flood-opacity="0" result="BackgroundImageFix"/>
<feColorMatrix in="SourceAlpha" type="matrix" values="0 0 0 0 0 0 0 0 0 0 0 0 0 0 0 0 0 0 127 0" result="hardAlpha"/>
<feOffset dy="4"/>
<feGaussianBlur stdDeviation="2"/>
<feComposite in2="hardAlpha" operator="out"/>
<feColorMatrix type="matrix" values="0 0 0 0 0 0 0 0 0 0 0 0 0 0 0 0 0 0 0.25 0"/>
<feBlend mode="normal" in2="BackgroundImageFix" result="effect1_dropShadow_206_203"/>
<feBlend mode="normal" in="SourceGraphic" in2="effect1_dropShadow_206_203" result="shape"/>
</filter>
</defs>
</svg>
