<svg width="204" height="262" viewBox="0 0 204 262" fill="none" xmlns="http://www.w3.org/2000/svg">
<g filter="url(#filter0_d_206_818)">
<rect x="4" y="58" width="196" height="196" rx="98" fill="#D74747"/>
</g>
<mask id="mask0_206_818" style="mask-type:alpha" maskUnits="userSpaceOnUse" x="4" y="16" width="195" height="238">
<path d="M4 113.433C4 79.0741 22.5049 47.0481 52.0736 29.5483V29.5483C82.5601 11.5053 120.9 11.5389 151.136 29.9988L181.637 48.6204C191.179 54.4463 197 64.8199 197 76V76L198.335 155.188C199.25 209.489 155.483 254 101.174 254V254C47.5064 254 4 210.494 4 156.826V113.433Z" fill="#D74747"/>
</mask>
<g mask="url(#mask0_206_818)">
<path d="M176.083 105.805C176.083 105.805 178.958 100.882 180.69 99.4462C182.422 98.0108 186.107 97.286 186.107 97.286C186.107 97.286 185.801 99.931 182.615 101.95C179.429 103.969 176.083 105.805 176.083 105.805Z" fill="#130F19"/>
<path d="M158.02 107.442C152.89 109.353 145.858 105.052 144.296 105.456C142.733 105.861 131.654 106.995 129.781 106.506C127.616 105.941 124.896 103.795 122.684 100.783C120.472 97.7707 112.504 96.9518 112.504 96.9518C115.765 96.4812 123.63 97.719 125.842 97.8366C128.054 97.9543 140.347 91.9677 142.554 92.0948C144.762 92.2219 151.431 95.5917 154.485 95.7658C157.54 95.9399 171.551 85.9388 171.551 85.9388C171.551 85.9388 156.241 91.4218 152.184 90.5229C148.127 89.6239 126.769 82.1502 121.634 82.6961C116.5 83.242 99.2789 90.5793 96.7186 90.5793C94.1583 90.5793 76.1469 82.5784 59.2791 94.848C54.4457 98.3637 47.2637 111.236 46.7083 116.498C45.2117 130.876 56.4271 145.15 60.8511 151.066C62.4513 153.189 68.2778 156.874 71.93 156.408C75.5821 155.942 84.4396 153.038 87.207 152.431C89.9743 151.824 97.6175 158.573 100.959 157.796C104.301 157.02 112.184 151.358 112.184 151.358C112.184 151.358 103.788 152.247 102.771 151.829C101.754 151.41 99.9472 150.031 100.291 149.645C100.634 149.259 116.707 151.551 121.747 150.784C126.788 150.017 146.315 139.808 143.223 141.136C140.131 142.463 127.037 145.946 124.491 145.79C121.945 145.635 111.76 142.025 107.021 141.305C102.282 140.585 94.4595 143.484 93.443 143.39C92.4264 143.296 93.683 139.366 96.1821 137.436C98.6812 135.507 110.8 138.062 113.996 138.848C117.191 139.634 134.318 135.177 136.615 133.709C138.912 132.24 142.945 118.935 145.035 118.131C147.124 117.326 155.596 119.924 165.409 113.669C167.95 112.05 189.411 79.9005 189.75 79.4016C189.36 79.8628 166.341 104.336 158.02 107.442ZM71.4217 144.152C65.9011 143.385 62.7336 137.403 62.7336 137.403C62.7336 137.403 68.1272 138.321 70.1698 139.324C72.2124 140.326 76.1704 141.644 79.4273 141.333C82.397 141.051 88.2471 138.326 89.259 137.846C87.8423 138.655 76.5846 144.882 71.4264 144.152H71.4217Z" fill="#130F19"/>
<path d="M173.438 92.1795C173.438 92.1795 172.454 84.1363 175.254 80.8841C178.055 77.632 187.406 73.7586 189.473 71.0007C190.803 69.149 191.887 67.1318 192.696 65C192.696 65 193.887 73.3586 190.593 76.766C187.298 80.1735 179.048 83.2232 177.749 85.1293C176.45 87.0354 173.438 92.1795 173.438 92.1795Z" fill="#130F19"/>
<path d="M143.82 131.224C143.82 131.224 147.647 123.962 152 121.43C156.354 118.898 163.192 116.968 165.178 116.723C167.164 116.479 171.918 115.98 174.718 115.133C177.518 114.285 185.284 108.379 186.507 106.059C187.25 104.617 187.654 103.025 187.689 101.404C187.689 101.404 191.021 104.699 187.543 111.142C184.065 117.585 165.55 136.636 159.62 138.947C153.69 141.258 145.726 141.07 145.726 141.07C145.726 141.07 154.909 135.695 156.683 133.765C158.457 131.836 153.299 129.803 151.266 129.868C149.233 129.934 143.82 131.224 143.82 131.224Z" fill="#130F19"/>
<path d="M133.913 97.6389C133.913 97.6389 137.533 94.7539 140.502 95.1728C143.472 95.5917 147.736 98.8061 149.139 98.9379C150.541 99.0697 156.349 97.7707 156.349 97.7707C156.349 97.7707 148.037 101.672 145.567 101.037C143.096 100.402 139.363 99.8933 139.363 99.8933C139.363 99.8933 140.531 101.362 141.533 101.63C142.536 101.898 144.249 102.124 144.249 102.124C144.249 102.124 140.084 104.948 137.302 104.27C134.521 103.593 129.367 99.3333 129.367 99.3333C130.231 99.3543 131.095 99.3307 131.956 99.2627C132.887 99.1168 132.37 98.6555 133.913 97.6389Z" fill="#130F19"/>
<g opacity="0.1">
<path d="M50.4217 118.399C51.0665 110.191 51.9796 97.6907 70.7864 91.3183C77.9166 88.8945 87.0705 92.0948 96.0645 94.7116C101.99 96.4341 106.188 104.934 109.026 106.223C112.353 107.734 122.877 115.123 125.169 116.079C127.461 117.034 145.096 110.6 145.096 110.6C145.096 110.6 131.984 121.684 126.656 123.345C121.328 125.007 106.569 119.994 104.687 120.154C102.804 120.314 97.0434 123.802 97.0434 123.802C97.0434 123.802 100.761 126.075 104.343 125.972C107.925 125.868 109.868 124.338 112.344 124.508C114.82 124.677 119.38 128.193 119.38 128.193C119.38 128.193 115.205 126.461 112.165 127.586C109.125 128.711 103.035 133.747 98.4601 133.29C93.8854 132.833 83.6066 127.831 80.684 128.466C78.8923 128.86 77.1749 129.536 75.5963 130.471C77.9223 131.18 80.2955 131.725 82.6983 132.099C85.5598 132.433 89.3767 132.749 89.3767 132.749C89.3767 132.749 67.1483 136.344 61.9807 133.69C56.813 131.036 49.9935 123.915 50.4217 118.399Z" fill="black"/>
<path d="M150.339 127.19C150.536 126.88 153.699 122.352 155.986 120.602C158.274 118.851 163.926 119.778 166.835 119.929C169.743 120.079 177.928 118.987 180.695 116.573C183.463 114.158 185.477 112.182 185.477 112.182C185.477 112.182 172.078 128.81 166.543 132.419C163.317 134.545 159.607 135.823 155.756 136.133C155.756 136.133 160.213 131.577 158.58 129.836C156.457 127.478 150.339 127.19 150.339 127.19Z" fill="black"/>
<path d="M175.876 84.7999C175.876 84.7999 177.415 79.4299 179.872 77.8391C182.328 76.2483 191.125 74.5775 191.125 74.5775C191.125 74.5775 182.343 78.658 180.615 79.4816C178.888 80.3052 175.876 84.7999 175.876 84.7999Z" fill="black"/>
<path d="M57.0343 136.472C57.0343 136.472 62.362 143.71 63.7974 145.004C65.2329 146.299 73.2761 147.955 74.9045 147.734C76.5329 147.513 83.9267 144.703 85.9222 144.599C87.9178 144.496 94.7185 149.056 94.7185 149.056C94.7185 149.056 88.0825 147.809 86.4305 148.172C84.7786 148.534 74.9987 155.452 71.5159 155.231C68.0332 155.01 62.0607 149.231 60.743 147.527C59.4252 145.823 57.0343 136.472 57.0343 136.472Z" fill="black"/>
<path d="M106.645 92.9326C106.645 92.9326 119.324 83.7504 123.042 84.3151C126.76 84.8799 140.248 90.7252 140.248 90.7252C140.248 90.7252 128.068 89.8687 126.214 89.3604C124.359 88.8521 118.335 89.8687 118.335 89.8687C118.335 89.8687 122.275 91.6618 123.762 92.0148C125.249 92.3678 131.391 91.3983 131.391 91.3983C131.391 91.3983 120.227 94.288 116.283 93.3703C112.339 92.4525 106.645 92.9326 106.645 92.9326Z" fill="black"/>
</g>
<g opacity="0.5">
<path d="M135.805 107.758C138.574 106.736 141.484 106.149 144.432 106.016C145.213 106.047 145.985 106.191 146.724 106.445C148.835 107.031 150.891 107.803 152.866 108.751C151.409 108.643 149.96 108.448 148.527 108.167C147.496 107.988 146.376 107.739 145.35 107.522C145.042 107.446 144.725 107.414 144.409 107.428C141.585 107.504 138.657 107.871 135.786 107.758H135.805Z" fill="white"/>
<path d="M174.205 87.7225C174.096 86.0613 174.21 84.3929 174.544 82.762C174.603 82.3318 174.754 81.9193 174.986 81.5524C175.927 80.5217 177.179 79.8675 178.347 79.1992C179.322 78.6756 180.345 78.2454 181.401 77.9144C179.824 79.6322 177.805 80.9453 176.092 82.4043C175.981 82.6243 175.896 82.8565 175.838 83.0961C175.408 84.6763 174.862 86.2226 174.205 87.7225Z" fill="white"/>
<path d="M90.0543 90.2263C92.271 90.3346 94.3371 91.1676 96.4691 91.4641C96.9281 91.5433 97.3981 91.5321 97.8528 91.4312C99.3777 91.0641 100.851 90.4522 102.399 89.9204C103.775 89.3891 105.192 88.9688 106.635 88.6638C103.952 90.3675 101.27 92.0524 98.1211 92.8101C96.7091 93.1019 95.3207 92.5748 94.0594 92.0901C92.6475 91.5441 91.3909 90.857 90.0449 90.2075L90.0543 90.2263Z" fill="white"/>
<path d="M111.967 97.6389C114.556 98.1096 117.507 98.5802 119.498 100.435C122.133 103.353 124.053 107.216 126.035 110.596C124.472 109.123 122.152 106.831 120.547 105.461C119.744 104.717 118.858 104.068 117.907 103.527L118.707 102.496L122.623 107.885C122.623 107.885 122.787 108.101 122.783 108.101C123.404 107.113 122.086 109.607 122.058 109.25C121.869 109.159 121.688 109.054 121.517 108.934C119.921 107.904 118.222 106.798 116.627 105.743L117.431 104.703C118.086 105.324 118.721 105.95 119.347 106.586C120.05 107.248 120.657 108.005 121.15 108.835L121.761 110.219C119.851 109.377 117.817 108.308 115.732 108.054L115.963 107.212C117.43 108.147 118.845 109.164 120.199 110.257C121.526 111.363 122.896 112.521 123.766 114.022C123.24 113.342 122.629 112.732 121.95 112.205C119.459 110.303 116.811 108.617 114.033 107.165L115.732 107.141C117.544 107.202 119.178 107.894 120.844 108.515L120.077 109.268C119.112 107.922 117.723 106.788 116.537 105.654L117.347 104.614C118.801 105.555 121.159 107.042 122.599 107.941C122.599 107.941 122.599 107.941 122.538 107.908H122.496C122.472 107.555 121.154 110.045 121.771 109.057C120.999 108.054 120.284 107.014 119.545 105.993L116.165 101.258L118.406 102.246C120.637 103.442 122.171 105.259 123.955 106.953L123.013 107.645C121.799 105.348 120.552 102.938 118.947 100.91C117.154 99.0273 114.368 98.3778 111.953 97.6154L111.967 97.6389Z" fill="white"/>
<path d="M123.545 136.114C126.957 134.702 130.656 133.963 133.989 132.49C134.106 132.437 134.21 132.36 134.295 132.264C134.93 131.497 135.481 130.64 136.083 129.817C137.024 128.461 138.013 127.106 139.095 125.807C138.514 127.383 137.822 128.917 137.024 130.396C136.427 131.445 135.914 132.589 135.029 133.469C133.076 134.707 130.736 135.078 128.548 135.54C126.897 135.856 125.225 136.048 123.545 136.114Z" fill="white"/>
<path d="M102.366 143.795C104.225 143.126 106.221 142.524 108.216 142.712C111.425 143.257 114.524 144.319 117.394 145.856C114.184 145.635 111.092 144.764 107.981 144.03C106.188 143.724 104.216 143.983 102.357 143.795H102.366Z" fill="white"/>
<path d="M186.696 107.734C184.506 110.363 182.148 112.847 179.636 115.17C178.365 116.455 176.44 116.85 174.77 117.312C173.099 117.773 171.442 118.102 169.753 118.404L169.635 117.029C170.793 116.996 171.95 116.945 173.108 116.93C174.991 116.888 177.617 116.874 179.518 116.893C177.636 117.646 175.325 118.639 173.475 119.373L173.254 118.535C173.796 118.508 174.337 118.453 174.873 118.371C176.492 118.131 178.168 117.787 179.528 116.836C178.332 118.06 176.633 118.644 175.014 119.081C173.96 119.368 171.918 119.604 170.812 119.778L173.108 118.573C174.186 118.008 175.283 117.481 176.365 116.935L176.629 118.041C174.351 118.192 171.965 118.324 169.687 118.418L169.536 117.039C172.36 116.413 175.316 116.003 177.984 114.954C178.998 114.259 179.965 113.498 180.879 112.676C182.761 111.08 184.813 109.292 186.719 107.734H186.696Z" fill="white"/>
<path d="M178.949 102.774C179.114 101.315 179.805 99.8415 181.133 99.0979C181.995 98.6998 182.931 98.4866 183.881 98.472C183.529 98.9481 183.109 99.3699 182.634 99.7239C182.333 99.9733 181.956 100.195 181.655 100.392C180.784 101.169 180.031 102.138 178.949 102.774Z" fill="white"/>
<path d="M134.737 98.472C135.218 97.665 135.883 96.9833 136.678 96.4827C137.474 95.982 138.376 95.6767 139.312 95.5916C140.041 95.585 140.763 95.7324 141.432 96.0244C142.1 96.3164 142.699 96.7463 143.19 97.286C142.003 97.0835 140.802 96.9764 139.599 96.9659C137.909 97.0836 136.408 97.9731 134.737 98.472Z" fill="white"/>
</g>
<path d="M183.086 125.228C182.924 125.228 182.766 125.18 182.631 125.09C182.496 125 182.391 124.872 182.329 124.722C182.267 124.573 182.251 124.408 182.283 124.249C182.314 124.09 182.392 123.944 182.507 123.83C182.621 123.715 182.767 123.637 182.926 123.606C183.085 123.574 183.25 123.59 183.399 123.652C183.549 123.714 183.677 123.819 183.767 123.954C183.857 124.089 183.905 124.247 183.905 124.409C183.905 124.626 183.819 124.834 183.665 124.988C183.511 125.142 183.303 125.228 183.086 125.228Z" fill="#130F19"/>
<path d="M128.534 141.879C128.372 141.88 128.213 141.833 128.078 141.743C127.942 141.654 127.837 141.526 127.774 141.377C127.711 141.227 127.694 141.063 127.726 140.903C127.757 140.744 127.834 140.598 127.949 140.483C128.063 140.368 128.209 140.289 128.368 140.257C128.527 140.225 128.692 140.241 128.842 140.303C128.992 140.365 129.12 140.47 129.21 140.605C129.3 140.74 129.348 140.898 129.348 141.06C129.348 141.277 129.263 141.484 129.11 141.638C128.957 141.791 128.75 141.878 128.534 141.879Z" fill="#130F19"/>
<path d="M169.466 81.0018C169.366 80.8739 169.306 80.7192 169.294 80.5574C169.282 80.3955 169.319 80.2338 169.399 80.0928C169.48 79.9517 169.6 79.8377 169.745 79.7652C169.89 79.6927 170.054 79.6649 170.215 79.6854C170.376 79.706 170.527 79.7739 170.649 79.8805C170.772 79.9872 170.859 80.1278 170.902 80.2844C170.944 80.4411 170.939 80.6068 170.887 80.7605C170.835 80.9142 170.738 81.049 170.609 81.1477C170.525 81.2133 170.428 81.2616 170.325 81.2898C170.221 81.318 170.113 81.3256 170.007 81.312C169.901 81.2985 169.798 81.2641 169.705 81.2109C169.613 81.1576 169.531 81.0866 169.466 81.0018Z" fill="#130F19"/>
<path d="M52.4453 147.489C52.2834 147.489 52.125 147.441 51.9904 147.351C51.8557 147.261 51.7507 147.133 51.6887 146.984C51.6268 146.834 51.6105 146.669 51.6421 146.511C51.6737 146.352 51.7517 146.206 51.8663 146.091C51.9808 145.977 52.1267 145.899 52.2856 145.867C52.4444 145.836 52.6091 145.852 52.7587 145.914C52.9083 145.976 53.0362 146.081 53.1262 146.215C53.2162 146.35 53.2642 146.508 53.2642 146.67C53.2649 146.778 53.2441 146.885 53.2032 146.984C53.1622 147.084 53.1019 147.175 53.0258 147.251C52.9496 147.327 52.8591 147.387 52.7594 147.428C52.6598 147.469 52.553 147.49 52.4453 147.489Z" fill="#130F19"/>
<path d="M48.3413 96.6412C48.1803 96.6412 48.0229 96.5934 47.889 96.504C47.7551 96.4145 47.6507 96.2873 47.5891 96.1386C47.5275 95.9898 47.5113 95.8261 47.5427 95.6681C47.5742 95.5102 47.6517 95.3651 47.7656 95.2512C47.8794 95.1374 48.0245 95.0598 48.1825 95.0284C48.3404 94.997 48.5041 95.0131 48.6529 95.0747C48.8017 95.1364 48.9288 95.2407 49.0183 95.3746C49.1078 95.5085 49.1555 95.6659 49.1555 95.827C49.1555 96.0429 49.0697 96.25 48.917 96.4027C48.7643 96.5554 48.5573 96.6412 48.3413 96.6412Z" fill="#130F19"/>
<path d="M146.202 122.343C145.983 122.343 145.769 122.278 145.587 122.156C145.405 122.035 145.264 121.862 145.18 121.66C145.096 121.458 145.074 121.236 145.117 121.021C145.16 120.807 145.265 120.609 145.42 120.455C145.574 120.3 145.772 120.195 145.986 120.152C146.201 120.109 146.423 120.131 146.625 120.215C146.827 120.299 147 120.441 147.121 120.622C147.243 120.804 147.308 121.018 147.308 121.237C147.308 121.53 147.191 121.812 146.984 122.019C146.776 122.226 146.495 122.343 146.202 122.343Z" fill="#130F19"/>
<path d="M156.513 103.315C156.38 103.142 156.301 102.932 156.286 102.714C156.271 102.496 156.321 102.278 156.43 102.088C156.54 101.898 156.702 101.745 156.899 101.648C157.095 101.551 157.315 101.514 157.533 101.543C157.75 101.571 157.953 101.663 158.118 101.807C158.283 101.952 158.401 102.141 158.457 102.353C158.514 102.564 158.507 102.788 158.436 102.995C158.366 103.202 158.236 103.384 158.062 103.517C157.947 103.606 157.816 103.671 157.676 103.709C157.536 103.747 157.39 103.757 157.246 103.738C157.102 103.719 156.963 103.672 156.837 103.599C156.712 103.527 156.602 103.43 156.513 103.315Z" fill="#130F19"/>
<path d="M192.908 100.83C192.689 100.831 192.475 100.767 192.292 100.645C192.11 100.524 191.967 100.352 191.883 100.149C191.798 99.947 191.776 99.7243 191.819 99.5093C191.861 99.2943 191.967 99.0968 192.122 98.9418C192.277 98.7869 192.474 98.6814 192.689 98.6389C192.904 98.5964 193.127 98.6187 193.329 98.703C193.531 98.7873 193.704 98.9298 193.825 99.1124C193.946 99.295 194.011 99.5094 194.01 99.7286C194.008 100.02 193.892 100.3 193.686 100.506C193.479 100.712 193.2 100.829 192.908 100.83Z" fill="#130F19"/>
<path d="M152.527 104.228C152.434 104.228 152.343 104.2 152.266 104.149C152.188 104.097 152.128 104.023 152.092 103.937C152.057 103.851 152.047 103.757 152.066 103.665C152.084 103.574 152.129 103.49 152.194 103.424C152.26 103.359 152.344 103.314 152.435 103.296C152.527 103.278 152.621 103.287 152.707 103.322C152.793 103.358 152.867 103.418 152.918 103.496C152.97 103.573 152.998 103.664 152.998 103.757C152.998 103.882 152.948 104.002 152.86 104.09C152.772 104.178 152.652 104.228 152.527 104.228Z" fill="#130F19"/>
<path d="M70.7015 102.642C70.6084 102.642 70.5174 102.614 70.44 102.563C70.3626 102.511 70.3023 102.437 70.2667 102.351C70.2311 102.265 70.2217 102.171 70.2399 102.079C70.2581 101.988 70.3029 101.904 70.3687 101.838C70.4345 101.773 70.5184 101.728 70.6097 101.71C70.701 101.691 70.7956 101.701 70.8816 101.736C70.9676 101.772 71.0411 101.832 71.0928 101.91C71.1445 101.987 71.1721 102.078 71.1721 102.171C71.1721 102.296 71.1226 102.416 71.0343 102.504C70.946 102.592 70.8263 102.642 70.7015 102.642Z" fill="#130F19"/>
<path d="M52.7278 92.9325C52.6348 92.9325 52.5438 92.9049 52.4664 92.8532C52.389 92.8015 52.3286 92.728 52.293 92.642C52.2574 92.556 52.2481 92.4614 52.2662 92.3701C52.2844 92.2788 52.3292 92.1949 52.3951 92.1291C52.4609 92.0633 52.5447 92.0184 52.636 92.0003C52.7273 91.9821 52.8219 91.9914 52.9079 92.0271C52.9939 92.0627 53.0675 92.123 53.1192 92.2004C53.1709 92.2778 53.1985 92.3688 53.1985 92.4619C53.1985 92.5867 53.1489 92.7064 53.0606 92.7947C52.9724 92.8829 52.8527 92.9325 52.7278 92.9325Z" fill="#130F19"/>
<path d="M167.936 84.7622C167.843 84.7622 167.752 84.7346 167.675 84.6829C167.597 84.6312 167.537 84.5577 167.501 84.4717C167.466 84.3857 167.456 84.291 167.474 84.1997C167.493 84.1084 167.537 84.0246 167.603 83.9588C167.669 83.8929 167.753 83.8481 167.844 83.83C167.935 83.8118 168.03 83.8211 168.116 83.8567C168.202 83.8924 168.276 83.9527 168.327 84.0301C168.379 84.1075 168.407 84.1985 168.407 84.2916C168.407 84.4164 168.357 84.5361 168.269 84.6244C168.181 84.7126 168.061 84.7622 167.936 84.7622Z" fill="#130F19"/>
<path d="M95.0479 87.7225C94.9548 87.7225 94.8638 87.6949 94.7864 87.6432C94.709 87.5915 94.6487 87.518 94.6131 87.432C94.5775 87.346 94.5682 87.2514 94.5863 87.1601C94.6045 87.0688 94.6493 86.9849 94.7151 86.9191C94.7809 86.8533 94.8648 86.8085 94.9561 86.7903C95.0474 86.7721 95.142 86.7815 95.228 86.8171C95.314 86.8527 95.3875 86.913 95.4392 86.9904C95.491 87.0678 95.5186 87.1588 95.5186 87.2519C95.5186 87.3767 95.469 87.4964 95.3807 87.5847C95.2924 87.6729 95.1727 87.7225 95.0479 87.7225Z" fill="#130F19"/>
<path d="M60.7439 172.781C70.2178 216.551 77.7398 277.382 92.0093 278C107.904 278.695 100.78 229.187 100.009 221.5C97.2803 210.187 95.7078 186.599 76.9254 164.875C56.9559 141.804 58.4015 161.953 60.7439 172.781Z" fill="#FFC4C0"/>
<path d="M5.00269 259L93.0156 258.765L87.8546 223.835C87.8546 223.835 95.2207 214.082 93.8273 203.506C92.2978 191.917 74.9007 163.047 73.2867 161.39C66.798 154.741 59.7275 153.499 53.403 156.654C29.6908 168.493 5.00269 259 5.00269 259Z" fill="#263238"/>
<path d="M75.3233 214.617C71.4962 214.961 67.7001 215.59 63.9667 216.499C62.1218 216.97 60.3051 217.525 58.4932 218.123C57.5895 218.419 56.6812 218.688 55.7681 218.951C54.8196 219.252 53.8383 219.437 52.8455 219.502C52.8304 219.506 52.8171 219.515 52.8076 219.527C52.7981 219.539 52.7929 219.555 52.7929 219.57C52.7929 219.586 52.7981 219.601 52.8076 219.613C52.8171 219.626 52.8304 219.634 52.8455 219.638C53.7868 219.685 54.7303 219.668 55.6693 219.587C56.5744 219.481 57.4709 219.311 58.352 219.078C60.2345 218.608 62.0888 218.066 63.9667 217.586C67.7318 216.612 71.5299 215.643 75.375 214.946C75.5445 214.899 75.5068 214.598 75.3233 214.617Z" fill="#455A64"/>
<path d="M84.7737 218.005C81.6239 217.67 78.4577 217.513 75.2903 217.535C73.7042 217.535 72.1323 217.662 70.5509 217.817C69.7979 217.888 69.0496 217.977 68.2965 218.071C67.4729 218.175 66.6587 218.391 65.8304 218.485C65.7457 218.485 65.7457 218.631 65.8304 218.622C66.6116 218.556 67.407 218.622 68.1836 218.622L70.5368 218.561C72.1134 218.523 73.6948 218.5 75.2761 218.448C78.4341 218.339 81.5827 218.264 84.7501 218.269C84.9478 218.264 84.9196 218.019 84.7737 218.005Z" fill="#455A64"/>
<path d="M43.0437 165.711C20.9081 197.198 -1.87912 255.33 5.3727 266.535C13.4292 279.021 41.0592 240.134 41.3653 237.838C41.7701 234.792 48.079 211.405 52.7836 181.824C57.2117 153.98 48.5332 157.932 43.0437 165.711Z" fill="#FFC4C0"/>
<path d="M102.846 151.866C98.8082 150.69 88.9577 150.365 81.5687 153.782C81.3992 153.857 81.371 154.026 81.5357 153.989C88.5268 152.445 95.6801 151.761 102.837 151.951C102.884 151.951 102.889 151.88 102.846 151.866Z" fill="#263238"/>
<path d="M102.941 141.672C98.9025 140.491 89.052 140.171 81.6629 143.583C81.4935 143.663 81.4606 143.828 81.63 143.79C88.6215 142.25 95.7746 141.567 102.931 141.757C102.978 141.757 102.983 141.681 102.941 141.672Z" fill="#263238"/>
<path d="M101.721 160.879C98.1351 160.22 87.9693 160.342 80.599 164.06C80.4343 164.14 80.4108 164.315 80.599 164.268C89.8471 161.764 98.0504 161.03 101.736 160.973C101.768 160.964 101.768 160.888 101.721 160.879Z" fill="#263238"/>
<path d="M55.5092 157.613C55.6786 159.251 61.9852 170.546 69.3037 171.115C71.6898 171.299 73.2665 158.328 73.2665 158.328L73.6053 157.387L78.2882 144.35L63.8019 132.259L61.6934 130.636C61.6934 130.636 60.6486 134.288 59.3873 138.848C59.3308 139.06 59.2696 139.272 59.2084 139.498C59.1472 139.724 59.0531 139.968 58.9919 140.237C58.799 140.914 58.6013 141.606 58.4177 142.303C58.2766 142.835 58.1354 143.348 58.0083 143.908C57.8812 144.468 57.7353 145.009 57.5941 145.569C56.3046 151.118 55.4433 156.94 55.5092 157.613Z" fill="#FFC4C0"/>
<path d="M59.3874 138.858C60.2699 142.799 62.0007 146.5 64.4594 149.704C66.9182 152.908 70.0457 155.538 73.6243 157.41L78.3072 144.374L63.8209 132.283L61.7124 130.659C61.7124 130.659 60.6487 134.297 59.3874 138.858Z" fill="#263238"/>
<path d="M99.4625 125.67C99.8672 149.979 85.3432 152.967 80.1144 153.047C75.3562 153.123 59.1427 152.775 56.2247 128.635C53.3067 104.496 64.4844 96.6318 75.361 95.8787C86.2375 95.1257 99.0389 101.362 99.4625 125.67Z" fill="#FFC4C0"/>
<path d="M95.302 120.823C94.7531 120.709 94.211 120.564 93.6783 120.39C93.057 120.22 92.544 120.145 92.111 119.632C92.0021 119.475 91.9486 119.286 91.9588 119.095C91.969 118.904 92.0425 118.722 92.1675 118.578C92.737 117.989 93.5512 118.013 94.3042 118.192C95.0723 118.345 95.7554 118.78 96.2197 119.411C96.3083 119.562 96.3531 119.734 96.3491 119.909C96.3451 120.084 96.2926 120.254 96.1973 120.4C96.102 120.547 95.9678 120.664 95.8096 120.739C95.6515 120.813 95.4757 120.842 95.302 120.823Z" fill="#130F19"/>
<path opacity="0.1" d="M95.302 120.823C94.7531 120.709 94.211 120.564 93.6783 120.39C93.057 120.22 92.544 120.145 92.111 119.632C92.0021 119.475 91.9486 119.286 91.9588 119.095C91.969 118.904 92.0425 118.722 92.1675 118.578C92.737 117.989 93.5512 118.013 94.3042 118.192C95.0723 118.345 95.7554 118.78 96.2197 119.411C96.3083 119.562 96.3531 119.734 96.3491 119.909C96.3451 120.084 96.2926 120.254 96.1973 120.4C96.102 120.547 95.9678 120.664 95.8096 120.739C95.6515 120.813 95.4757 120.842 95.302 120.823Z" fill="black"/>
<path d="M79.1824 123.557C79.7386 123.499 80.2916 123.412 80.8391 123.298C81.4744 123.19 81.9921 123.171 82.4816 122.71C82.606 122.565 82.6785 122.383 82.6879 122.192C82.6973 122.001 82.6429 121.812 82.5334 121.656C82.0345 121.011 81.2203 120.95 80.4531 121.044C79.6724 121.115 78.946 121.474 78.4153 122.051C78.3096 122.192 78.2456 122.359 78.2304 122.535C78.2153 122.71 78.2496 122.886 78.3295 123.043C78.4094 123.2 78.5316 123.331 78.6824 123.422C78.8332 123.513 79.0064 123.56 79.1824 123.557Z" fill="#130F19"/>
<path opacity="0.1" d="M79.1824 123.557C79.7386 123.499 80.2916 123.412 80.8391 123.298C81.4744 123.19 81.9921 123.171 82.4816 122.71C82.606 122.565 82.6785 122.383 82.6879 122.192C82.6973 122.001 82.6429 121.812 82.5334 121.656C82.0345 121.011 81.2203 120.95 80.4531 121.044C79.6724 121.115 78.946 121.474 78.4153 122.051C78.3096 122.192 78.2456 122.359 78.2304 122.535C78.2153 122.71 78.2496 122.886 78.3295 123.043C78.4094 123.2 78.5316 123.331 78.6824 123.422C78.8332 123.513 79.0064 123.56 79.1824 123.557Z" fill="black"/>
<path d="M81.771 140.971C82.1193 141.404 82.4535 141.978 83.0418 142.096C83.6551 142.154 84.274 142.084 84.8584 141.889C84.87 141.885 84.8825 141.885 84.8941 141.889C84.9056 141.893 84.9156 141.9 84.9225 141.91C84.9294 141.921 84.9328 141.933 84.9323 141.945C84.9318 141.957 84.9273 141.969 84.9196 141.978C84.6483 142.275 84.3013 142.493 83.9159 142.608C83.5305 142.723 83.121 142.732 82.7311 142.632C82.0017 142.416 81.7052 141.733 81.6063 141.027C81.5875 140.938 81.7193 140.91 81.771 140.971Z" fill="#263238"/>
<path d="M88.6846 135.38C88.6846 135.38 88.7364 137.879 88.5999 139.037C88.5999 139.145 88.3034 139.164 87.9081 139.14C87.9081 139.14 87.8751 139.14 87.861 139.14C86.8455 139.206 85.8315 138.99 84.9307 138.517C84.0298 138.043 83.2768 137.331 82.7545 136.457C82.6839 136.335 82.8487 136.236 82.9428 136.321C84.3547 137.62 85.9925 138.105 87.8045 138.349C87.9222 138.034 87.5692 134.076 87.7574 134.085C88.3975 134.085 89.5929 134.678 90.3177 134.989C90.3601 129.812 89.5647 124.635 89.6871 119.458C89.6895 119.421 89.7046 119.386 89.7298 119.359C89.7549 119.332 89.7886 119.315 89.8251 119.31C89.8616 119.305 89.8987 119.313 89.9302 119.332C89.9616 119.351 89.9855 119.381 89.9977 119.416C91.2119 124.771 91.292 130.758 91.4096 136.133C91.3955 136.782 89.1082 135.634 88.6846 135.38Z" fill="#263238"/>
<path d="M82.1899 127.045C82.1899 126.983 82.0628 127.12 82.0628 127.186C82.0628 128.786 81.8133 130.617 80.3544 131.111C80.3073 131.111 80.312 131.205 80.3544 131.2C82.1334 130.998 82.4534 128.56 82.1899 127.045Z" fill="#263238"/>
<path d="M79.0318 126.273C79.0012 126.572 79.0012 126.873 79.0318 127.172C78.9319 127.386 78.8002 127.585 78.6412 127.76C78.4978 127.943 78.3052 128.081 78.0859 128.159C77.8667 128.236 77.63 128.25 77.4034 128.198C76.4621 127.944 76.208 126.894 76.2927 125.92C76.2927 125.849 76.3444 125.816 76.3821 125.863C76.7021 126.428 77.0833 127.007 77.6528 127.007C78.1235 127.007 78.5941 126.536 79.0036 126.287C79.0036 126.287 79.0036 126.287 79.0318 126.287V126.273Z" fill="#263238"/>
<path d="M82.19 128.781C82.106 129.212 81.9077 129.612 81.6158 129.939C81.4462 130.112 81.243 130.247 81.0187 130.338C80.7945 130.429 80.5539 130.472 80.3121 130.466C80.0649 130.454 79.824 130.384 79.6089 130.261C79.3939 130.138 79.2107 129.967 79.0743 129.76C78.8413 129.397 78.6962 128.984 78.6508 128.555C78.6265 128.3 78.6186 128.044 78.6272 127.788C78.6433 127.253 78.7817 126.728 79.032 126.254C78.9895 126.639 78.9895 127.027 79.032 127.412C79.0709 127.758 79.1354 128.101 79.2249 128.438C79.4179 129.125 79.7944 129.704 80.3356 129.694C80.8769 129.685 81.3475 129.28 81.597 128.607C81.8394 127.904 82.0112 127.179 82.11 126.442C82.3203 127.205 82.3477 128.006 82.19 128.781Z" fill="#263238"/>
<path d="M91.5085 127.11C91.5085 127.054 91.6309 127.19 91.6309 127.256C91.565 128.852 91.758 130.697 93.2028 131.238C93.2452 131.238 93.2405 131.337 93.2028 131.327C91.4332 131.054 91.1979 128.617 91.5085 127.11Z" fill="#263238"/>
<path d="M94.6949 126.447C94.7256 126.746 94.7256 127.047 94.6949 127.346C94.7867 127.565 94.9121 127.768 95.0667 127.948C95.2058 128.134 95.3944 128.276 95.6108 128.36C95.8273 128.443 96.0628 128.463 96.2904 128.419C97.2317 128.198 97.5282 127.158 97.4764 126.183C97.4764 126.108 97.4246 126.075 97.3917 126.122C97.0481 126.677 96.6481 127.242 96.0786 127.219C95.608 127.219 95.175 126.715 94.7561 126.452C94.7561 126.452 94.7561 126.452 94.7232 126.452L94.6949 126.447Z" fill="#263238"/>
<path d="M91.4569 128.847C91.524 129.28 91.7079 129.687 91.9887 130.024C92.1517 130.202 92.3501 130.345 92.5713 130.443C92.7925 130.541 93.0316 130.592 93.2735 130.593C93.5207 130.59 93.7637 130.529 93.9828 130.414C94.2019 130.3 94.391 130.135 94.5348 129.934C94.7796 129.578 94.9406 129.171 95.0055 128.744C95.0399 128.489 95.0556 128.233 95.0526 127.976C95.0594 127.44 94.9401 126.91 94.7043 126.428C94.7282 126.815 94.7093 127.203 94.6478 127.586C94.5987 127.932 94.5216 128.273 94.4172 128.607C94.2054 129.285 93.8101 129.854 93.2688 129.821C92.7276 129.788 92.2711 129.374 92.0452 128.692C91.8294 127.981 91.6828 127.252 91.6075 126.513C91.3731 127.268 91.3215 128.068 91.4569 128.847Z" fill="#263238"/>
<path d="M57.0576 134.711C62.4747 131.916 62.5123 126.136 62.5123 126.136C66.8029 124.064 70.4655 120.889 73.1253 116.935C72.9747 117.453 71.9016 121.209 71.2945 123.101C87.0045 119.585 91.4662 107.306 91.4662 107.306C96.775 112.243 97.9139 115.481 98.7187 117.086C98.7187 117.086 98.4881 107.381 93.264 101.061C86.8774 93.3232 66.1833 91.9113 57.0247 102.628C47.1412 114.206 57.0576 134.711 57.0576 134.711Z" fill="#130F19"/>
<path d="M83.2205 120.074C80.7309 121.555 78.0342 122.656 75.2196 123.341C75.2196 123.341 75.1914 123.312 75.2196 123.308C79.6229 121.933 83.5567 119.36 86.5809 115.876C87.8601 114.385 88.9493 112.741 89.8236 110.982C90.732 109.137 91.6074 106.948 91.7062 104.863C91.7062 104.831 91.7191 104.8 91.742 104.777C91.765 104.754 91.7961 104.741 91.8286 104.741C91.861 104.741 91.8921 104.754 91.9151 104.777C91.938 104.8 91.9509 104.831 91.9509 104.863C91.8474 107.052 91.7297 109.071 90.9202 111.137C90.1483 113.112 89.0204 114.929 87.5928 116.498C86.3152 117.881 84.8479 119.075 83.2347 120.046" fill="#130F19"/>
<g opacity="0.1">
<path d="M57.0576 134.711C62.4747 131.916 62.5123 126.136 62.5123 126.136C66.8029 124.064 70.4655 120.889 73.1253 116.935C72.9747 117.453 71.9016 121.209 71.2945 123.101C87.0045 119.585 91.4662 107.306 91.4662 107.306C96.775 112.243 97.9139 115.481 98.7187 117.086C98.7187 117.086 98.4881 107.381 93.264 101.061C86.8774 93.3232 66.1833 91.9113 57.0247 102.628C47.1412 114.206 57.0576 134.711 57.0576 134.711Z" fill="black"/>
<path d="M83.2205 120.074C80.7308 121.555 78.0342 122.656 75.2196 123.341C75.2196 123.341 75.1913 123.312 75.2196 123.308C79.6228 121.933 83.5566 119.36 86.5809 115.876C87.86 114.385 88.9492 112.741 89.8236 110.982C90.7319 109.137 91.6073 106.948 91.7061 104.863C91.7061 104.831 91.719 104.8 91.742 104.777C91.7649 104.754 91.796 104.741 91.8285 104.741C91.8609 104.741 91.8921 104.754 91.915 104.777C91.938 104.8 91.9509 104.831 91.9509 104.863C91.8473 107.052 91.7297 109.071 90.9202 111.137C90.1482 113.112 89.0204 114.929 87.5927 116.498C86.3151 117.881 84.8478 119.075 83.2346 120.046" fill="black"/>
</g>
<path opacity="0.5" d="M54.4409 114.766C54.4409 112.361 54.5114 109.951 55.1656 107.607C56.0014 105.262 57.5752 103.25 59.6508 101.875L60.6439 101.216C59.8297 103.258 58.8743 105.357 58.4507 107.508L57.7024 107.212C59.1143 105.216 60.6204 103.164 62.0699 101.188C61.6511 103.541 61.1757 105.95 60.7145 108.275L60.1356 108.031C61.6275 106.181 62.9218 104.157 64.8091 102.665C64.2867 103.809 63.8341 104.983 63.4536 106.181C63.1223 107.084 62.975 108.044 63.0206 109.005L62.7853 108.925C64.9071 107.066 66.8818 105.046 68.6919 102.882C69.2805 102.16 69.8289 101.405 70.3344 100.623L70.805 100.872C70.4097 101.726 70.0285 102.582 69.6614 103.442C69.2823 104.251 68.9767 105.092 68.7483 105.955L68.1883 105.654L73.0594 102.223L73.5065 101.908L73.7042 102.43L73.9113 102.995L73.3418 102.745L75.1538 101.988L75.2479 101.945H75.3514L81.8322 102.303L81.3615 102.971C81.178 102.524 80.825 101.583 80.6461 101.145L81.4698 101.239L87.5881 101.931L87.1833 102.783C86.162 101.771 84.1289 99.7286 83.1076 98.7167C85.6067 99.9263 88.3646 101.272 90.8308 102.515L90.3602 103.202C89.4189 102.261 86.6892 99.6109 85.7714 98.712L92.0686 101.329L91.7533 101.757C90.972 100.933 90.1672 99.9921 89.1553 99.5215C89.1072 99.5067 89.0661 99.4748 89.0397 99.4318C89.0134 99.3888 89.0037 99.3377 89.0123 99.288C89.021 99.2384 89.0475 99.1936 89.0868 99.1621C89.1261 99.1305 89.1756 99.1144 89.2259 99.1168H89.2965L89.4095 99.145L89.8142 99.2768C90.3602 99.4603 91.6262 99.9404 92.1674 100.138L92.0498 100.317L90.8261 98.8626L90.8967 98.8014C91.0708 98.9944 92.351 100.303 92.5063 100.472C92.2898 100.397 90.7602 99.9404 90.5014 99.8557C90.2425 99.771 89.5036 99.5592 89.2071 99.498C89.2527 99.4964 89.2963 99.4792 89.3306 99.4492C89.3649 99.4192 89.3878 99.3782 89.3953 99.3333C89.4023 99.3003 89.3999 99.266 89.3882 99.2343C89.3766 99.2027 89.3562 99.175 89.3295 99.1544L89.5083 99.2344C90.8779 99.9074 91.8239 101.145 92.8028 102.261L91.7862 101.879L87.1739 100.162L87.5598 99.5592L90.8543 102.632L92.8216 104.463L90.379 103.32C88.647 102.51 86.9104 101.705 85.2019 100.882L85.7526 100.105C86.4162 100.759 88.1999 102.491 88.8494 103.131L81.3192 102.275L81.8416 101.602C81.9922 102.03 82.364 102.957 82.5099 103.381L81.7521 103.324L75.2761 102.854L75.4738 102.821L73.2288 103.757L73.0782 103.334L72.8759 102.764L73.5206 102.971L67.9671 106.689C67.9552 106.181 68.0398 105.675 68.2165 105.197C68.8236 103.649 69.5767 102.176 70.3203 100.689L70.7909 100.943C70.2509 101.728 69.6647 102.481 69.0354 103.197C67.1512 105.318 65.1344 107.318 62.9971 109.184L62.8041 109.353C62.6817 108.768 62.6817 108.164 62.8041 107.579C63.1105 106.115 63.5484 104.681 64.1125 103.296L64.4137 103.531C62.7147 105.339 61.3263 107.56 59.8626 109.57C60.2156 107.339 60.5592 105.056 60.9357 102.83L61.6746 103.145C60.2627 105.117 58.8084 107.141 57.3729 109.094C57.613 106.638 58.5119 104.303 59.4955 102.072L60.0321 102.543C57.6459 104.101 55.6504 106.591 55.2033 109.471C54.8652 111.224 54.642 112.997 54.535 114.78L54.4409 114.766Z" fill="white"/>
<path d="M60.1215 130.438C60.1215 130.438 55.3586 122.498 51.7912 124.145C48.2237 125.793 51.4382 137.046 55.3634 138.829C59.2885 140.613 61.011 137.008 61.011 137.008L60.1215 130.438Z" fill="#FFC4C0"/>
<path d="M52.7937 127.346C52.7866 127.344 52.7791 127.343 52.7717 127.344C52.7643 127.344 52.7572 127.346 52.7506 127.35C52.744 127.353 52.7382 127.358 52.7335 127.364C52.7288 127.37 52.7253 127.376 52.7231 127.383C52.7209 127.391 52.7202 127.398 52.7209 127.405C52.7216 127.413 52.7238 127.42 52.7273 127.427C52.7308 127.433 52.7356 127.439 52.7413 127.444C52.747 127.448 52.7536 127.452 52.7607 127.454C55.5093 128.795 56.8177 131.525 57.6695 134.316C56.8977 133.21 55.787 132.556 54.3233 133.459C54.248 133.506 54.3233 133.624 54.3892 133.615C55.5658 133.45 56.3847 133.709 57.1048 134.688C57.5788 135.428 57.9717 136.217 58.2767 137.041C58.3896 137.305 58.8555 137.201 58.7802 136.904C58.783 136.883 58.783 136.86 58.7802 136.839C59.0862 133.224 56.6388 127.981 52.7937 127.346Z" fill="#263238"/>
<path d="M99.1046 133.558C98.8881 141.423 94.1393 149.522 86.3973 152.026C83.8905 152.849 81.2516 153.194 78.6176 153.043C81.1951 152.831 83.73 152.257 86.1479 151.339C93.5087 148.515 97.8292 141.051 99.1046 133.558Z" fill="#263238"/>
</g>
<defs>
<filter id="filter0_d_206_818" x="0" y="58" width="204" height="204" filterUnits="userSpaceOnUse" color-interpolation-filters="sRGB">
<feFlood flood-opacity="0" result="BackgroundImageFix"/>
<feColorMatrix in="SourceAlpha" type="matrix" values="0 0 0 0 0 0 0 0 0 0 0 0 0 0 0 0 0 0 127 0" result="hardAlpha"/>
<feOffset dy="4"/>
<feGaussianBlur stdDeviation="2"/>
<feComposite in2="hardAlpha" operator="out"/>
<feColorMatrix type="matrix" values="0 0 0 0 0 0 0 0 0 0 0 0 0 0 0 0 0 0 0.25 0"/>
<feBlend mode="normal" in2="BackgroundImageFix" result="effect1_dropShadow_206_818"/>
<feBlend mode="normal" in="SourceGraphic" in2="effect1_dropShadow_206_818" result="shape"/>
</filter>
</defs>
</svg>
