<svg width="204" height="262" viewBox="0 0 204 262" fill="none" xmlns="http://www.w3.org/2000/svg">
<g filter="url(#filter0_d_206_817)">
<rect x="4" y="57" width="196" height="197" rx="98" fill="#E68349"/>
</g>
<mask id="mask0_206_817" style="mask-type:alpha" maskUnits="userSpaceOnUse" x="4" y="14" width="196" height="241">
<path d="M4 118.882C4 81.0929 24.8038 46.3724 58.1259 28.5489L62.9967 25.9436C92.9161 9.94025 129.173 11.4823 157.625 29.9684V29.9684C184.054 47.1395 200 76.5163 200 108.033V156.5C200 210.624 156.124 254.5 102 254.5V254.5C47.8761 254.5 4 210.624 4 156.5V118.882Z" fill="#E68349"/>
</mask>
<g mask="url(#mask0_206_817)">
<path d="M76.3355 53.2441C76.3355 53.2441 74.4631 56.8287 76.8257 59.2124C79.1883 61.5962 81.1446 62.1224 81.5288 61.5782C81.9129 61.034 83.4056 57.9801 83.4056 57.9801L76.3355 53.2441Z" fill="#E92612"/>
<path d="M50.5765 158.929C50.6692 159.208 48.7306 162.977 51.6187 165.698C54.5068 168.419 57.1873 166.998 57.1873 166.998C56.0525 166.271 55.0276 165.38 54.1446 164.353C53.7088 163.869 53.402 163.279 53.2536 162.64C53.1051 162 53.12 161.333 53.2968 160.701C53.2968 160.701 49.1943 154.791 50.5765 158.929Z" fill="#E92612"/>
<path d="M56.9535 88.7708C56.8078 88.9687 58.8215 96.9654 59.6517 98.2158C60.482 99.4661 58.1238 94.7976 60.2302 93.8981C62.3367 92.9985 64.5977 95.5487 64.951 94.8246C65.3043 94.1005 63.5997 92.8141 63.6262 91.8561C63.6527 90.8982 63.3347 87.9567 60.2744 87.8578C57.2141 87.7588 56.9535 88.7708 56.9535 88.7708Z" fill="#E92612"/>
<path d="M57.6908 149.705C57.6157 149.336 57.311 149.093 57.0461 149.196C56.9068 149.294 56.7994 149.432 56.738 149.592C56.6766 149.753 56.6639 149.928 56.7016 150.096C56.7811 150.46 57.0946 150.694 57.3552 150.582C57.4906 150.486 57.595 150.352 57.6548 150.195C57.7146 150.039 57.7271 149.868 57.6908 149.705Z" fill="#E92612"/>
<path d="M139.772 125.399C139.697 125.031 139.388 124.792 139.127 124.896C138.987 124.992 138.879 125.13 138.817 125.291C138.756 125.451 138.744 125.627 138.783 125.795C138.862 126.164 139.171 126.393 139.436 126.285C139.572 126.189 139.677 126.052 139.737 125.895C139.797 125.737 139.809 125.564 139.772 125.399Z" fill="#E92612"/>
<path d="M139.233 128.696C139.202 128.548 139.078 128.449 138.972 128.494C138.915 128.534 138.872 128.591 138.847 128.656C138.823 128.722 138.819 128.794 138.835 128.863C138.866 129.011 138.99 129.105 139.096 129.06C139.153 129.022 139.197 128.966 139.221 128.901C139.246 128.835 139.25 128.764 139.233 128.696Z" fill="#E92612"/>
<path d="M54.4492 145.328C54.4183 145.18 54.299 145.081 54.1931 145.126C54.1348 145.166 54.0902 145.223 54.0657 145.29C54.0411 145.357 54.0378 145.43 54.0562 145.499C54.0871 145.643 54.2107 145.738 54.3167 145.693C54.3735 145.654 54.4168 145.598 54.4406 145.532C54.4643 145.467 54.4673 145.396 54.4492 145.328Z" fill="#E92612"/>
<path d="M144.832 123.029C144.801 122.881 144.678 122.786 144.572 122.827C144.515 122.868 144.472 122.926 144.447 122.992C144.423 123.059 144.419 123.131 144.435 123.2C144.47 123.344 144.594 123.438 144.7 123.394C144.757 123.355 144.8 123.298 144.824 123.233C144.848 123.168 144.851 123.096 144.832 123.029Z" fill="#E92612"/>
<path d="M137.144 125.071C137.117 124.923 136.993 124.828 136.887 124.869C136.829 124.907 136.784 124.964 136.76 125.03C136.735 125.097 136.732 125.169 136.751 125.237C136.781 125.386 136.905 125.476 137.011 125.435C137.067 125.396 137.109 125.339 137.133 125.274C137.157 125.209 137.16 125.138 137.144 125.071Z" fill="#E92612"/>
<path d="M144.268 124.194C144.268 124.14 144.21 124.109 144.175 124.122C144.155 124.137 144.141 124.157 144.132 124.18C144.123 124.203 144.121 124.228 144.126 124.253C144.126 124.307 144.184 124.338 144.219 124.324C144.239 124.31 144.254 124.29 144.263 124.267C144.271 124.244 144.273 124.218 144.268 124.194Z" fill="#E92612"/>
<path d="M92.4538 73.3754C92.3788 73.0066 92.0696 72.7682 91.8091 72.8717C91.6684 72.9679 91.56 73.1056 91.4984 73.2664C91.4369 73.4272 91.4251 73.6034 91.4647 73.7712C91.5441 74.14 91.8533 74.3739 92.1182 74.2614C92.2544 74.1645 92.3591 74.0285 92.4189 73.8706C92.4786 73.7128 92.4908 73.5403 92.4538 73.3754Z" fill="#E92612"/>
<path d="M102.103 78.4622C102.076 78.3138 101.953 78.2193 101.847 78.2598C101.788 78.2984 101.744 78.355 101.719 78.4214C101.694 78.4877 101.691 78.5603 101.71 78.6286C101.741 78.7771 101.864 78.8715 101.97 78.8265C102.026 78.7867 102.069 78.7305 102.092 78.6654C102.116 78.6003 102.12 78.5295 102.103 78.4622Z" fill="#E92612"/>
<path d="M90.5375 71.1671C90.5066 71.0187 90.383 70.9242 90.277 70.9647C90.2191 71.0038 90.1747 71.0604 90.1501 71.1266C90.1256 71.1928 90.122 71.2652 90.1401 71.3335C90.171 71.4819 90.2947 71.5764 90.4006 71.5314C90.4563 71.4913 90.499 71.4353 90.5234 71.3704C90.5478 71.3056 90.5527 71.2348 90.5375 71.1671Z" fill="#E92612"/>
<path d="M99.4707 74.2345C99.4398 74.0861 99.3162 73.9871 99.2102 74.0321C99.1534 74.0733 99.1099 74.1308 99.0855 74.1974C99.0611 74.2639 99.0569 74.3364 99.0733 74.4054C99.1086 74.5493 99.2323 74.6438 99.3383 74.5988C99.395 74.5599 99.4383 74.5038 99.4621 74.4384C99.4859 74.373 99.4889 74.3017 99.4707 74.2345Z" fill="#E92612"/>
<path d="M87.2431 68.2077C87.2428 68.1963 87.2399 68.1852 87.2348 68.1751C87.2297 68.1649 87.2225 68.1561 87.2136 68.1492C87.2047 68.1423 87.1944 68.1375 87.1835 68.1352C87.1725 68.1329 87.1612 68.133 87.1504 68.1357C87.1296 68.1493 87.1137 68.1693 87.1049 68.1928C87.0962 68.2163 87.0951 68.242 87.1018 68.2662C87.1021 68.2775 87.105 68.2887 87.1101 68.2988C87.1152 68.3089 87.1225 68.3177 87.1313 68.3246C87.1402 68.3315 87.1505 68.3363 87.1614 68.3387C87.1724 68.341 87.1837 68.3408 87.1945 68.3381C87.2144 68.3237 87.2295 68.3036 87.2382 68.2804C87.2468 68.2572 87.2485 68.2319 87.2431 68.2077Z" fill="#E92612"/>
<path d="M59.0197 107.297C58.9446 106.928 58.6355 106.685 58.3749 106.788C58.2356 106.886 58.1283 107.024 58.0669 107.184C58.0055 107.344 57.9928 107.52 58.0305 107.688C58.11 108.052 58.4235 108.286 58.6841 108.174C58.8195 108.078 58.9238 107.944 58.9836 107.787C59.0434 107.631 59.056 107.46 59.0197 107.297Z" fill="#E92612"/>
<path d="M58.481 110.589C58.4501 110.44 58.3265 110.346 58.2205 110.386C58.1626 110.425 58.1182 110.482 58.0936 110.548C58.0691 110.614 58.0655 110.687 58.0836 110.755C58.1145 110.904 58.2426 110.998 58.3441 110.953C58.4007 110.914 58.4441 110.858 58.4686 110.793C58.4931 110.728 58.4974 110.656 58.481 110.589Z" fill="#E92612"/>
<path d="M68.9383 95.9399C68.9074 95.7915 68.7837 95.6926 68.6778 95.7376C68.6197 95.7777 68.575 95.835 68.5497 95.9017C68.5245 95.9684 68.5198 96.0414 68.5364 96.1109C68.5718 96.2548 68.6954 96.3492 68.8014 96.3043C68.859 96.2659 68.9032 96.2101 68.9278 96.1447C68.9523 96.0793 68.956 96.0076 68.9383 95.9399Z" fill="#E92612"/>
<path d="M56.3967 106.968C56.3658 106.82 56.2421 106.721 56.1361 106.761C56.0782 106.8 56.0339 106.857 56.0093 106.923C55.9847 106.989 55.9812 107.062 55.9993 107.13C56.0302 107.279 56.1538 107.373 56.2598 107.328C56.3155 107.289 56.3584 107.234 56.3829 107.17C56.4073 107.105 56.4121 107.035 56.3967 106.968Z" fill="#E92612"/>
<path d="M68.3597 97.1049C68.3597 97.051 68.3023 97.0195 68.267 97.033C68.2476 97.0478 68.2327 97.0679 68.2241 97.091C68.2155 97.1141 68.2136 97.1392 68.2184 97.1634C68.2184 97.2174 68.2758 97.2488 68.3112 97.2309C68.3311 97.2176 68.3464 97.1983 68.3551 97.1758C68.3638 97.1532 68.3654 97.1285 68.3597 97.1049Z" fill="#E92612"/>
<path d="M165.107 118.005C164.771 117.659 161.614 116.755 161.221 116.256C160.828 115.757 159.653 113.76 159.653 113.76V116.557C159.653 116.557 161.614 119.755 162.108 119.953C162.603 120.151 162.007 123.852 162.108 124.248C162.226 125.074 162.044 125.915 161.596 126.614L163.61 124.648C163.835 124.352 165.345 123.151 165.738 122.152C166.131 121.154 165.438 118.356 165.107 118.005Z" fill="#E92612"/>
<path d="M101.401 52.8888C101.401 52.8888 98.3095 50.9773 94.9578 52.511C91.606 54.0447 87.031 56.5588 87.7508 60.4718L88.4662 64.3712C88.4662 64.3712 90.948 59.1315 101.714 59.5183C112.481 59.9051 117.837 62.5317 116.04 65.9184C114.243 69.3051 112.847 72.5614 112.847 72.5614C112.847 72.5614 123.088 74.158 127.42 71.3785C131.752 68.599 134.985 66.5391 132.203 64.6096C130.711 63.5238 129.059 62.6859 127.31 62.1269C127.31 62.1269 133.051 53.5814 126.661 48.5036C120.271 43.4258 109.394 38.9281 104.479 44.7256C99.5637 50.523 101.388 52.8933 101.388 52.8933L101.401 52.8888Z" fill="#E92612"/>
<g opacity="0.1">
<path d="M127.085 66.575C124.651 65.5361 121.344 66.3142 121.344 66.3142C121.344 66.3142 126.462 60.2738 121.344 56.19C120.34 55.4766 119.207 54.975 118.01 54.7148C118.01 54.7148 117.462 54.238 118.01 51.7553C118.359 50.1227 117.515 47.8694 115.925 47.4466C114.676 47.1138 112.185 47.6175 111.068 48.2877C108.961 49.556 106.546 51.6519 105.963 54.0671C99.7316 54.5978 93.7567 56.2575 92.1625 58.7536C92.1625 58.7536 103.936 55.0791 113.02 57.5033C122.103 59.9275 118.001 69.8313 118.001 69.8313C118.001 69.8313 129.513 67.6185 127.085 66.575Z" fill="white"/>
</g>
<path opacity="0.8" d="M133.095 66.7639C133.422 66.0083 133.201 65.2977 132.212 64.605C130.72 63.5193 129.068 62.6813 127.319 62.1224C127.319 62.1224 133.06 53.5769 126.67 48.4991C120.58 43.6776 110.418 39.3599 105.221 43.9744C106.942 43.5637 108.691 43.2886 110.454 43.1514C115.753 42.7376 124.806 45.2518 127.089 51.2471C129.372 57.2424 125.053 62.86 125.053 62.86C125.053 62.86 130.776 64.758 133.095 66.7639Z" fill="white"/>
<path d="M147.169 98.5936C143.353 95.5937 131.788 87.9837 125.305 87.7364C121.318 87.6252 117.374 88.6052 113.885 90.5744C113.885 90.5744 100.703 91.5324 99.6211 90.0751C98.5392 88.6179 97.6516 82.1098 96.2075 80.1804C94.7635 78.2509 86.8323 75.4039 85.5295 75.233C84.2268 75.0621 83.5026 69.9842 82.7386 68.4865C81.9746 66.9888 76.5561 72.3365 76.1145 74.6932C75.6729 77.05 74.7058 81.5071 76.9977 85.9643C79.2897 90.4214 88.9475 89.8907 88.1217 91.7617C87.2959 93.6327 67.6578 102.956 65.9709 106.19C64.2839 109.424 66.991 119.233 66.991 119.233C63.6985 121.206 60.6286 123.541 57.8365 126.196C53.0186 130.693 56.2026 132.006 56.5117 134.039C57.2006 138.595 60.8748 142.045 61.939 143.251C63.0033 144.456 70.727 146.291 70.727 146.291C68.9145 150.133 66.7058 153.768 64.1382 157.135C61.9876 160.004 58.022 167.632 62.5794 176.286C67.1367 184.939 86.2317 201.265 88.9034 202.336C91.5751 203.406 107.685 200.451 114.737 199.88C121.79 199.309 132.975 186.945 134.411 184.485C142.748 170.281 141.507 166.841 141.507 166.841C141.507 166.841 137.634 147.82 136.208 144.699C133.845 139.576 132.234 132.816 131.717 126.411C131.2 120.007 133.161 118.176 137.369 115.882C141.847 113.454 148.542 114.776 150.397 110.935C152.755 106.096 151.165 101.733 147.169 98.5936ZM117.109 111.776C117.109 111.776 118.875 108.817 117.259 107.279C115.643 105.74 112.772 106.631 110.304 105.479C107.835 104.328 108.564 101.432 108.564 101.432L109.76 98.4362C109.76 98.4362 110.533 102.511 113.757 103.028C114.463 103.145 119.984 104.886 120.036 108.246C120.089 111.605 117.109 111.776 117.109 111.776Z" fill="#E92612"/>
<path opacity="0.1" d="M110.653 125.822L119.975 131.773L128.767 139.27C128.767 139.27 129.147 131.624 128.816 126.996C128.816 126.996 125.601 128.795 124.696 126.708C120.84 117.87 128.476 121.887 128.476 121.887C131.302 118.95 122.624 112.703 122.624 112.703C122.624 112.703 120.858 116.031 114.499 117.434C111.655 118.064 109.306 112.838 106.669 109.527C104.033 106.217 103.322 101.584 103.322 101.584C103.322 101.584 93.0767 106.437 91.3986 102.524C89.7205 98.6116 93.6861 98.4002 94.6444 97.2398C95.6026 96.0794 96.7508 95.2159 95.9073 93.12C95.0639 91.0241 92.3745 88.5639 92.3745 88.5639L93.9687 92.4183C92.6439 92.7961 81.8908 98.8185 80.6897 100.811C79.3165 103.349 78.4646 106.144 78.1858 109.028C78.0356 111.475 80.0891 116.872 81.4404 116.764L87.6228 116.26C87.6228 116.26 89.0801 120.479 88.1484 123.007C87.2166 125.534 80.0405 129.506 79.7579 130.338C79.4752 131.17 76.8256 147.073 77.2672 148.391C77.7088 149.709 82.2838 153.788 81.0164 154.994C79.749 156.199 66.4435 164.034 65.2909 171.185C64.1383 178.336 71.915 186.36 83.8383 188.915C95.7616 191.47 108.087 192.639 110.516 188.915C112.944 185.191 110.432 183.518 113.766 182.695C117.1 181.872 119.211 182.794 119.741 180.855C120.271 178.917 119.361 176.007 119.361 176.007C119.361 176.007 123.499 176.758 124.276 178.049C125.053 179.339 124.241 176.097 127.681 172.296C131.121 168.496 125.676 139.401 124.687 135.416C123.698 131.431 127.809 157.985 121.074 154.468C114.34 150.95 110.476 153.698 109.151 158.412C107.826 163.125 109.738 170.286 109.593 172.737C109.447 175.188 101.423 185.591 92.772 174.914C84.1209 164.236 89.4643 166.134 92.772 160.719C96.0796 155.304 101.017 151.09 102.88 144.168C104.744 137.246 107.102 125.152 110.644 125.831" fill="white"/>
<path opacity="0.3" d="M130.701 147.042C130.392 152.174 110.635 125.822 110.635 125.822Z" fill="white"/>
<path d="M80.5878 165.676C80.5878 165.676 86.1476 167.439 91.7029 158.749C92.648 157.27 87.5254 152.902 88.4439 150.744C89.8614 147.433 98.7995 147.726 99.983 142.468C100.279 141.159 100.654 138.051 101.224 136.868C104.929 129.164 111.986 124.235 111.986 124.235C108.125 122.634 103.808 122.61 99.93 124.167C93.0896 126.92 85.2599 139.958 85.0082 140.152C84.6284 140.439 79.051 159.851 79.051 159.851L80.5878 165.676Z" fill="#E92612"/>
<g opacity="0.1">
<path d="M80.5878 165.676C80.5878 165.676 86.1476 167.439 91.7029 158.749C92.648 157.27 87.5254 152.902 88.4439 150.744C89.8614 147.433 98.7995 147.726 99.983 142.468C100.279 141.159 100.654 138.051 101.224 136.868C104.929 129.164 111.986 124.235 111.986 124.235C108.125 122.634 103.808 122.61 99.93 124.167C93.0896 126.92 85.2599 139.958 85.0082 140.152C84.6284 140.439 79.051 159.851 79.051 159.851L80.5878 165.676Z" fill="white"/>
</g>
<path opacity="0.1" d="M64.6198 123.618C64.6198 123.618 60.3186 125.575 61.7714 130.149C63.2861 134.921 65.4147 137.646 66.6291 138.892C67.8435 140.138 73.6241 137.745 73.5799 138.515L74.7369 147.195L77.1525 135.784C77.1525 135.784 75.6466 129.263 70.7713 129.11C68.8371 129.052 64.8406 131.359 64.7258 127.486L64.6198 123.618Z" fill="white"/>
<path opacity="0.1" d="M131.47 112.865C131.47 112.865 134.301 111.331 132.19 108.596C130.079 105.862 123.238 102.048 123.238 102.048L122.625 93.12C122.625 93.12 127.01 99.1738 129.456 100.051C131.903 100.928 138.761 103.528 138.765 105.088C138.774 110.76 131.47 112.865 131.47 112.865Z" fill="white"/>
<path d="M129.376 140.619L129.328 140.507L129.191 140.17C129.067 139.873 128.926 139.419 128.67 138.861C127.993 137.234 127.145 135.686 126.14 134.246C124.615 132.031 122.705 130.118 120.505 128.602C119.169 127.688 117.742 126.92 116.248 126.312C114.612 125.634 112.895 125.181 111.143 124.963H111.209C107.53 127.753 104.457 131.287 102.182 135.344C102.015 135.636 101.869 135.946 101.71 136.243C101.551 136.54 101.388 136.841 101.268 137.143C101.056 137.773 100.889 138.417 100.769 139.072C100.637 139.724 100.526 140.377 100.416 141.024C100.321 141.674 100.184 142.317 100.005 142.949C99.5407 144.163 98.6862 145.181 97.581 145.837C96.5501 146.468 95.4598 146.992 94.3263 147.402C93.2356 147.825 92.1581 148.198 91.1556 148.648C90.6604 148.865 90.1846 149.125 89.7336 149.426C89.2988 149.707 88.9356 150.089 88.6738 150.541C88.5586 150.759 88.4917 151 88.478 151.247C88.4643 151.494 88.504 151.742 88.5943 151.971C88.7433 152.444 88.9464 152.897 89.1993 153.321C89.6807 154.166 90.2238 154.926 90.7184 155.673C90.9657 156.046 91.1998 156.415 91.4117 156.788C91.6299 157.15 91.7951 157.543 91.9019 157.953C91.9571 158.159 91.9571 158.377 91.9019 158.583C91.8128 158.761 91.7094 158.931 91.5928 159.091C91.3853 159.406 91.1512 159.707 90.9613 159.991C90.2505 160.977 89.4506 161.895 88.5722 162.73C88.0125 163.253 87.4113 163.728 86.7749 164.151C86.5541 164.29 86.3863 164.398 86.2671 164.461C86.2082 164.494 86.1478 164.524 86.086 164.551L86.2538 164.439C86.3686 164.367 86.532 164.259 86.7484 164.11C87.3745 163.677 87.9652 163.193 88.5148 162.662C89.3782 161.821 90.1645 160.901 90.8642 159.914C91.0717 159.626 91.2793 159.325 91.4824 159.015C91.5921 158.864 91.6896 158.705 91.7739 158.538C91.8182 158.356 91.8182 158.166 91.7739 157.985C91.499 157.188 91.1009 156.441 90.5948 155.772C90.1002 155.03 89.5526 154.27 89.058 153.42C88.7998 152.986 88.5895 152.524 88.4309 152.043C88.3328 151.789 88.2898 151.517 88.3051 151.244C88.3203 150.972 88.3934 150.706 88.5192 150.465C88.794 149.986 89.177 149.58 89.6365 149.282C90.0951 148.971 90.5798 148.701 91.085 148.477C92.1006 148.027 93.1782 147.645 94.2645 147.217C95.3826 146.81 96.458 146.29 97.475 145.666C98.5339 145.026 99.3493 144.04 99.789 142.868C99.9622 142.247 100.095 141.614 100.186 140.975C100.297 140.327 100.407 139.675 100.54 139.018C100.66 138.349 100.831 137.69 101.052 137.048C101.176 136.72 101.348 136.432 101.494 136.149C101.639 135.865 101.798 135.537 101.971 135.249C103.151 133.143 104.55 131.172 106.144 129.371C107.624 127.675 109.277 126.144 111.076 124.806L111.107 124.783H111.143C112.917 125.007 114.654 125.468 116.309 126.155C117.815 126.772 119.251 127.552 120.593 128.48C122.803 130.018 124.716 131.957 126.237 134.201C127.233 135.641 128.066 137.191 128.723 138.82C129.178 139.967 129.376 140.619 129.376 140.619Z" fill="#E92612"/>
<path opacity="0.3" d="M98.5788 123.016C99.1617 121.536 97.3379 112.982 96.8433 112.464C96.3487 111.947 91.6809 110.616 91.1024 109.878C90.5239 109.141 88.7884 106.186 88.7884 106.186V110.323C88.7884 110.323 91.6853 115.05 92.4184 115.347C93.1515 115.644 92.2638 121.109 92.4184 121.698C92.573 122.287 90.6785 129.088 89.8085 130.473C88.9386 131.858 84.4386 133.374 83.4229 134.548C82.4072 135.721 84.814 147.042 84.814 147.042L85.3042 143.759C85.5414 142.187 86.1009 140.684 86.9462 139.348C87.7915 138.011 88.9037 136.87 90.2104 136C90.864 135.551 91.5661 135.101 92.308 134.557C94.9135 132.699 90.9832 141.433 90.9832 141.433L100.8 133.077C102.87 129.944 104.209 126.37 104.713 122.629C104.929 121.028 105.009 120.056 105.181 119.831C105.53 119.382 98.0224 124.495 98.5788 123.016Z" fill="white"/>
<path opacity="0.3" d="M133.161 107.841C133.161 107.841 133.161 106.563 132.278 106.163C131.395 105.763 127.672 101.513 127.672 101.513C127.672 101.513 129.986 101.724 131.368 102.862C134.724 105.569 133.161 107.841 133.161 107.841Z" fill="white"/>
<path opacity="0.1" d="M90.9566 86.1577C90.9566 86.1577 82.5043 84.2912 82.0892 82.9734C81.6741 81.6556 79.9474 77.3693 79.9474 76.9286C79.9474 76.4878 81.1353 75.17 81.1353 75.17C81.1353 75.17 80.5965 76.5957 81.0293 76.9286C81.4621 77.2614 88.2584 80.6661 88.5807 81.9839C88.9031 83.3017 90.9566 86.1577 90.9566 86.1577Z" fill="white"/>
<path opacity="0.8" d="M98.3446 86.4275C97.722 84.0708 97.064 81.3138 96.2073 80.1624C94.7632 78.2194 86.832 75.3859 85.5293 75.215C84.2266 75.0441 83.5023 69.9662 82.7384 68.4685C82.7007 68.39 82.6413 68.3244 82.5676 68.2797C82.4939 68.2349 82.409 68.213 82.3232 68.2167C82.3232 68.3246 82.7339 73.6813 84.4076 75.134C86.0813 76.5867 93.5753 78.9075 95.1298 79.9375C96.0174 80.5626 97.3599 83.7784 98.3446 86.4275Z" fill="white"/>
<path opacity="0.8" d="M150.397 110.962C152.755 106.096 151.165 101.733 147.169 98.5936C143.552 95.7511 132.989 88.7753 126.374 87.8353C130.163 89.0227 136.124 91.4334 140.92 95.7556C148.582 102.677 150.039 104.085 150.039 106.186C149.929 108.238 149.693 110.28 149.333 112.302C149.778 111.939 150.141 111.482 150.397 110.962Z" fill="white"/>
<path opacity="0.8" d="M141.507 166.841C141.507 166.841 138.752 153.303 137.025 147.195C137.025 147.195 139.719 159.316 139.701 160.71C139.683 162.105 141.114 165.824 139.582 170.281C137.933 174.571 135.906 178.7 133.527 182.618C132.234 184.615 128.383 189.985 125.623 193.808C129.95 190.093 133.629 185.816 134.411 184.485C142.748 170.304 141.507 166.841 141.507 166.841Z" fill="white"/>
<path opacity="0.3" d="M71.5482 187.395L65.1846 178.139L63.3122 173.268C62.1079 170.133 61.7422 166.73 62.2524 163.404L62.5218 159.761C60.6273 163.499 59.0463 169.584 62.5748 176.286C64.1866 179.362 67.6444 183.405 71.5482 187.395Z" fill="black"/>
<path opacity="0.3" d="M67.2071 140.988C67.1806 141.024 67.2071 141.123 67.291 141.276C67.2777 141.069 67.2556 140.921 67.2071 140.988Z" fill="black"/>
<path opacity="0.3" d="M70.7133 146.291C70.7133 146.291 67.8385 142.4 67.2909 141.276C67.3218 142.005 67.207 143.781 67.207 143.781C67.207 143.781 65.6923 144.906 59.766 138.209C56.37 134.372 55.9417 130.563 56.1934 127.981C53.8794 131.107 56.2376 132.303 56.4981 134.039C57.187 138.596 60.8611 142.045 61.9254 143.251C62.9897 144.456 70.7133 146.291 70.7133 146.291Z" fill="black"/>
<path opacity="0.1" d="M51.4508 162.905C51.4508 163.076 51.3404 165.536 53.5396 166.368C54.6932 166.856 55.9403 167.071 57.1872 166.998C57.1872 166.998 55.4782 166.071 54.2594 165.469C53.8985 165.278 53.5864 165.003 53.348 164.667C53.1096 164.332 52.9514 163.944 52.886 163.535C52.886 163.535 51.2388 161.165 51.4508 162.905Z" fill="white"/>
<mask id="mask1_206_817" style="mask-type:luminance" maskUnits="userSpaceOnUse" x="56" y="87" width="9" height="12">
<path d="M56.9535 88.7708C56.8078 88.9687 58.8215 96.9654 59.6517 98.2158C60.482 99.4661 58.1238 94.7976 60.2302 93.8981C62.3367 92.9985 64.5977 95.5487 64.951 94.8246C65.3043 94.1005 63.5997 92.8141 63.6262 91.8561C63.6527 90.8982 63.3347 87.9567 60.2744 87.8578C57.2141 87.7588 56.9535 88.7708 56.9535 88.7708Z" fill="white"/>
</mask>
<g mask="url(#mask1_206_817)">
<path opacity="0.1" d="M59.6512 98.1978C59.6512 98.1978 57.1959 90.9072 59.9515 90.7812C62.7071 90.6553 65.5775 95.7286 65.5775 95.7286L59.6512 98.1978Z" fill="white"/>
</g>
<path d="M152.561 133.356C152.604 133.116 152.579 132.869 152.49 132.643C152.4 132.417 152.249 132.222 152.055 132.081C151.86 131.939 151.63 131.857 151.391 131.844C151.152 131.831 150.914 131.887 150.706 132.006C148.538 133.239 145.477 135.474 144.665 138.564C143.38 143.484 145.548 140.813 146.14 142.999C146.732 145.185 146.034 149.16 147.562 147.636C149.09 146.111 150.574 142.14 151.28 139.72C151.704 138.254 152.216 135.416 152.561 133.356Z" fill="#E92612"/>
<path opacity="0.8" d="M152.561 133.356C152.604 133.116 152.579 132.869 152.49 132.643C152.4 132.417 152.249 132.222 152.054 132.081C151.86 131.939 151.63 131.857 151.391 131.844C151.152 131.831 150.914 131.887 150.706 132.006L150.657 132.033C151.496 132.186 151.982 132.519 151.496 136.108C151.214 138.227 150.94 143.305 146.705 147.735C146.855 148.054 147.111 148.085 147.562 147.636C149.09 146.107 150.565 142.126 151.28 139.688C151.704 138.254 152.216 135.416 152.561 133.356Z" fill="white"/>
<mask id="mask2_206_817" style="mask-type:luminance" maskUnits="userSpaceOnUse" x="144" y="131" width="9" height="17">
<path d="M152.561 133.356C152.604 133.116 152.579 132.869 152.49 132.643C152.4 132.417 152.249 132.222 152.055 132.081C151.86 131.939 151.63 131.857 151.391 131.844C151.152 131.831 150.914 131.887 150.706 132.006C148.538 133.239 145.477 135.474 144.665 138.564C143.38 143.484 145.548 140.813 146.14 142.999C146.732 145.185 146.034 149.16 147.562 147.636C149.09 146.111 150.574 142.14 151.28 139.72C151.704 138.254 152.216 135.416 152.561 133.356Z" fill="white"/>
</mask>
<g mask="url(#mask2_206_817)">
<g opacity="0.1">
<path d="M144.678 141.604C144.753 140.453 145.65 139.54 146.572 138.865C147.495 138.191 148.533 137.61 149.156 136.643C149.072 140.39 148.12 144.064 146.378 147.366" fill="white"/>
</g>
</g>
<path d="M152.432 184.426C152.461 184.37 152.471 184.306 152.462 184.244C152.452 184.182 152.423 184.124 152.38 184.079C152.336 184.035 152.279 184.006 152.218 183.996C152.157 183.986 152.094 183.997 152.039 184.026C150.67 184.759 147.915 186.459 146.74 188.748C145.137 191.861 146.819 190.997 145.177 193.696C143.534 196.394 144.819 196.071 144.819 196.071C144.819 196.071 148.467 194.393 150.153 191.303C151.84 188.213 150.635 187.912 151.743 185.762L152.432 184.426Z" fill="#E92612"/>
<path d="M38.5692 253.879C38.5692 253.879 36.6526 240.548 40.9627 234.368C45.2727 228.188 50.0642 225.751 56.6087 223.151C63.1533 220.551 78.4946 215.294 82.4823 209.28L114.56 202.336C114.56 202.336 123.98 208.025 130.847 207.863C137.714 207.702 145.053 208.354 149.045 211.277C153.037 214.201 156.553 223.475 155.912 232.578C155.272 241.681 153.996 253.879 153.996 253.879H38.5692Z" fill="#FFBF9D"/>
<path d="M129.279 239.567C129.3 239.755 129.3 239.946 129.279 240.134C129.252 240.543 129.226 241.033 129.191 241.668C129.111 242.963 129.018 244.753 128.965 246.727C128.912 248.702 128.904 250.501 128.912 251.796C128.912 252.408 128.912 252.921 128.912 253.334C128.926 253.522 128.917 253.711 128.886 253.897C128.848 253.712 128.827 253.523 128.824 253.334C128.793 252.975 128.767 252.435 128.745 251.801C128.696 250.501 128.674 248.706 128.745 246.723C128.815 244.739 128.917 242.949 129.036 241.654C129.093 241.006 129.151 240.485 129.195 240.125C129.203 239.936 129.231 239.749 129.279 239.567Z" fill="#FF9A6C"/>
<path d="M83.6789 225.625C83.4961 225.664 83.3092 225.681 83.1225 225.674C82.7648 225.674 82.2393 225.696 81.6078 225.674C79.9391 225.638 78.274 225.498 76.6221 225.256C74.9693 225.011 73.3335 224.66 71.7247 224.203C71.1108 224.028 70.6162 223.87 70.2762 223.753C70.0961 223.707 69.9225 223.637 69.7595 223.547C69.9438 223.57 70.1257 223.611 70.3027 223.668L71.7688 224.05C73.0053 224.361 74.7276 224.738 76.653 225.026C78.5784 225.314 80.3359 225.449 81.6122 225.512L83.1225 225.575C83.309 225.575 83.4952 225.591 83.6789 225.625Z" fill="#FF9A6C"/>
<path d="M128.242 212.392C128.057 212.533 127.861 212.657 127.654 212.761C127.27 212.986 126.705 213.297 125.998 213.661C124.585 214.403 122.598 215.361 120.346 216.283C118.093 217.205 116.005 217.902 114.477 218.361C113.717 218.586 113.095 218.761 112.662 218.869C112.442 218.939 112.215 218.987 111.986 219.013C112.197 218.917 112.416 218.839 112.64 218.779L114.433 218.199C115.938 217.704 118.014 216.98 120.257 216.063C122.501 215.145 124.497 214.219 125.923 213.517L127.614 212.676C127.813 212.56 128.024 212.465 128.242 212.392Z" fill="#FF9A6C"/>
<path d="M62.7957 253.879C62.7295 253.879 62.9061 252.48 63.0121 250.762C63.1181 249.044 63.1137 247.64 63.1799 247.64C63.2509 247.935 63.2821 248.237 63.2727 248.54C63.2947 249.107 63.2947 249.889 63.2417 250.757C63.1888 251.625 63.0916 252.403 63.0033 252.966C62.9771 253.278 62.9072 253.586 62.7957 253.879Z" fill="#FF9A6C"/>
<g opacity="0.2">
<path d="M126.016 226.574C125.132 226.304 124.209 226.614 123.366 226.92C118.794 228.566 114.231 230.248 109.676 231.966C107.557 232.767 105.371 233.621 103.803 235.276C101.595 237.593 101.043 241.006 100.769 244.209C100.495 247.411 99.8859 251.22 98.3005 254L111.906 253.879C113.187 250.195 114.083 246.831 117.312 244.717C118.778 243.754 120.491 243.255 121.997 242.356C125.799 240.107 127.786 235.465 128.007 230.986C128.091 229.223 127.658 227.082 126.016 226.574Z" fill="black"/>
</g>
<path d="M86.2095 253.879C86.2095 253.879 90.6962 236.891 91.1378 235.438C91.4911 234.269 96.3531 229.978 98.0136 227.819C98.4531 227.249 99.0449 226.819 99.7181 226.582L109.376 221.743L122.624 218.293C122.624 218.293 125.556 221.082 119.25 224.059C117.309 224.97 115.28 225.674 113.196 226.16L125.676 224.361C127.884 224.383 127.115 229.434 120.663 230.41C120.103 230.491 123.839 230.41 123.839 230.41L126.581 230.297C126.758 230.289 126.934 230.32 127.098 230.388C127.262 230.456 127.409 230.56 127.529 230.693C127.649 230.825 127.739 230.983 127.793 231.155C127.846 231.327 127.862 231.508 127.84 231.687C127.685 232.866 127.067 234.386 124.96 234.638L118.336 235.2L113.249 236.891H124.96C124.96 236.891 126.51 239.365 123.083 240.606C119.657 241.847 117.343 241.393 117.343 241.393L113.81 242.63C113.81 242.63 107.777 253.501 107.42 253.874" fill="#FFBF9D"/>
<path d="M107.415 253.879L107.535 253.694L107.861 253.136L109.107 250.946C110.184 249.012 111.756 246.188 113.748 242.598H113.77L117.303 241.353H117.338C119.017 241.519 120.711 241.324 122.311 240.781C123.145 240.516 124.051 240.228 124.687 239.545C125.008 239.209 125.204 238.77 125.243 238.303C125.258 237.831 125.143 237.364 124.912 236.954L124.982 236.994H113.262H112.64L113.231 236.797L118.319 235.105H118.336C120.544 234.903 122.876 234.737 125.208 234.494C125.777 234.406 126.31 234.158 126.749 233.779C127.181 233.378 127.488 232.857 127.632 232.281C127.718 232 127.76 231.707 127.756 231.413C127.722 231.131 127.584 230.872 127.371 230.689C127.157 230.505 126.883 230.408 126.603 230.419L125.68 230.455L123.825 230.531L121.953 230.572H120.765H120.637H120.606C120.591 230.568 120.577 230.56 120.566 230.549C120.518 230.59 120.522 230.275 120.566 230.36C120.588 230.347 120.612 230.336 120.637 230.329H120.699L121.163 230.248C121.781 230.13 122.389 229.957 122.978 229.731C124.181 229.307 125.239 228.538 126.025 227.518C126.412 227.009 126.645 226.397 126.696 225.755C126.719 225.447 126.638 225.141 126.466 224.887C126.375 224.769 126.258 224.674 126.125 224.611C125.991 224.547 125.845 224.515 125.698 224.518L121.414 225.13L113.218 226.29L113.178 226.061C114.358 225.788 115.52 225.442 116.658 225.026C117.784 224.63 118.881 224.152 119.939 223.596C120.988 223.09 121.917 222.36 122.664 221.455C123.002 221.004 123.187 220.453 123.189 219.885C123.165 219.325 122.939 218.793 122.554 218.392L122.655 218.419L109.407 221.86L99.7447 226.69C99.2013 226.881 98.7107 227.202 98.3139 227.626C98.1196 227.833 97.9474 228.076 97.7619 228.292C97.5764 228.507 97.3821 228.741 97.1878 228.939C96.415 229.785 95.629 230.576 94.8694 231.345C94.1099 232.115 93.3635 232.861 92.6614 233.594C92.3125 233.972 91.9725 234.341 91.6678 234.732C91.5149 234.917 91.3817 235.117 91.2703 235.33C91.2418 235.381 91.2167 235.434 91.1953 235.488L91.1511 235.663L91.0539 236.014C90.0515 239.747 89.1771 242.981 88.4617 245.634C87.7463 248.288 87.1855 250.348 86.8013 251.76C86.6114 252.462 86.4613 252.997 86.3597 253.361C86.2581 253.726 86.2007 253.905 86.2007 253.905C86.2007 253.905 86.2405 253.717 86.3332 253.357C86.4259 252.997 86.5672 252.457 86.7483 251.747C87.1237 250.33 87.6668 248.261 88.3646 245.607L90.9126 235.969L91.0054 235.618C91.0323 235.494 91.0754 235.375 91.1334 235.263C91.2506 235.039 91.3897 234.828 91.5485 234.633C91.8577 234.237 92.1977 233.864 92.5466 233.486C93.2443 232.735 93.9862 231.989 94.7546 231.215C95.523 230.441 96.2958 229.654 97.0642 228.813C97.2585 228.602 97.4395 228.363 97.6294 228.166C97.8193 227.968 97.9827 227.716 98.1903 227.491C98.604 227.044 99.1176 226.706 99.6873 226.506L109.341 221.658L122.589 218.199H122.651L122.69 218.239C123.119 218.681 123.371 219.269 123.397 219.89C123.4 220.508 123.201 221.109 122.832 221.599C122.068 222.535 121.112 223.291 120.032 223.812C118.965 224.375 117.86 224.859 116.724 225.26C115.575 225.678 114.403 226.026 113.214 226.304L113.174 226.074L121.37 224.909L125.654 224.302C125.834 224.299 126.014 224.337 126.177 224.415C126.341 224.493 126.485 224.608 126.599 224.752C126.805 225.049 126.904 225.41 126.877 225.773C126.825 226.462 126.576 227.12 126.161 227.666C125.347 228.719 124.255 229.513 123.013 229.956C122.411 230.186 121.79 230.362 121.158 230.482L120.686 230.567H120.633C120.633 230.567 120.633 230.608 120.593 230.477C120.571 230.455 120.593 230.477 120.593 230.392C120.593 230.306 120.593 230.356 120.593 230.356H120.699H121.874L123.746 230.32L125.601 230.243L126.519 230.208C126.856 230.19 127.186 230.305 127.443 230.527C127.7 230.749 127.864 231.063 127.901 231.404C127.91 231.727 127.865 232.049 127.769 232.357C127.612 232.973 127.284 233.529 126.824 233.959C126.353 234.365 125.782 234.631 125.172 234.728C122.81 234.966 120.522 235.128 118.283 235.326H118.305L113.218 237.012L113.187 236.815H124.907H124.96L124.982 236.855C125.24 237.301 125.363 237.814 125.336 238.33C125.295 238.838 125.081 239.315 124.731 239.68C124.051 240.404 123.119 240.687 122.28 240.957C120.663 241.484 118.956 241.663 117.268 241.483H117.303L113.77 242.715L113.805 242.688C111.805 246.287 110.211 249.089 109.111 251C108.559 251.958 108.135 252.691 107.835 253.177C107.689 253.424 107.574 253.627 107.495 253.726L107.415 253.879Z" fill="#FF9A6C"/>
<path d="M113.713 225.998C112.896 226.15 112.092 226.371 111.311 226.659C110.476 227 109.672 227.414 108.908 227.896C108.025 228.417 107.111 229.083 106.025 229.6C104.986 230.029 103.888 230.289 102.77 230.369C101.878 230.439 101.014 230.716 100.244 231.179C99.7331 231.497 99.3318 231.968 99.0959 232.528C98.9325 232.933 98.8883 233.171 98.8663 233.167C98.8442 233.162 98.8663 233.104 98.8663 232.992C98.8949 232.823 98.9393 232.657 98.9987 232.497C99.2068 231.892 99.608 231.376 100.138 231.031C100.919 230.527 101.806 230.219 102.726 230.131C103.821 230.043 104.897 229.784 105.914 229.362C106.97 228.867 107.893 228.202 108.78 227.684C109.574 227.222 110.408 226.833 111.271 226.524C111.845 226.319 112.436 226.168 113.037 226.074C113.26 226.028 113.486 226.003 113.713 225.998Z" fill="#FF9A6C"/>
<path d="M122.69 230.495C122.518 230.537 122.342 230.56 122.165 230.563C121.825 230.59 121.335 230.617 120.725 230.63C119.511 230.666 117.833 230.572 115.987 230.63C114.416 230.631 112.867 231.012 111.469 231.741C110.917 231.998 110.48 232.223 110.175 232.375C110.02 232.462 109.858 232.533 109.689 232.587C109.824 232.471 109.972 232.373 110.131 232.294C110.427 232.119 110.851 231.872 111.398 231.593C112.036 231.26 112.699 230.982 113.381 230.761C113.787 230.634 114.202 230.538 114.622 230.473C115.073 230.418 115.528 230.392 115.982 230.396C117.841 230.356 119.515 230.477 120.725 230.482H122.16C122.337 230.465 122.515 230.47 122.69 230.495Z" fill="#FF9A6C"/>
<path d="M110.162 237.134C109.928 237.188 109.691 237.224 109.451 237.242C108.892 237.344 108.354 237.545 107.861 237.836C107.374 238.132 106.943 238.516 106.59 238.969C106.316 239.315 106.183 239.567 106.148 239.549C106.197 239.301 106.303 239.069 106.457 238.87C106.79 238.364 107.23 237.94 107.744 237.629C108.258 237.318 108.834 237.127 109.429 237.071C109.675 237.03 109.927 237.052 110.162 237.134Z" fill="#FF9A6C"/>
<path d="M107.698 233.639C106.736 233.634 105.781 233.795 104.872 234.116C103.992 234.51 103.183 235.051 102.478 235.717C102.609 235.452 102.795 235.219 103.021 235.034C104.057 234.048 105.424 233.504 106.841 233.513C107.132 233.494 107.424 233.537 107.698 233.639Z" fill="#FF9A6C"/>
<path d="M130.86 148.999C130.26 135.222 121.684 126.362 111.134 124.878C109.115 126.474 104.165 130.806 101.268 136.832C100.699 138.015 100.323 141.123 100.027 142.432C98.8438 147.694 89.9013 147.379 88.4882 150.708C87.5696 152.853 92.6922 157.238 91.7472 158.713C87.9317 164.682 84.1163 165.721 82.0981 165.784L82.8312 177.131C82.8047 181.719 82.4338 213.508 82.4338 213.508L114.119 210.112C114.481 204.139 114.119 197.002 114.119 197.069C114.119 197.137 126.599 195.607 129.972 179.294C131.651 171.145 131.333 159.982 130.86 148.999Z" fill="#FFBF9D"/>
<path d="M104.169 158.682C104.147 159.232 103.914 159.751 103.522 160.13C103.13 160.508 102.608 160.717 102.067 160.71C101.803 160.718 101.54 160.672 101.293 160.575C101.046 160.477 100.821 160.33 100.631 160.143C100.441 159.956 100.29 159.731 100.186 159.484C100.082 159.236 100.028 158.969 100.027 158.7C100.049 158.15 100.28 157.631 100.672 157.252C101.064 156.873 101.585 156.665 102.125 156.671C102.39 156.663 102.653 156.709 102.901 156.806C103.148 156.903 103.373 157.05 103.564 157.237C103.754 157.424 103.906 157.649 104.01 157.897C104.114 158.145 104.168 158.412 104.169 158.682Z" fill="#263238"/>
<path d="M124.695 158.682C124.672 159.232 124.44 159.751 124.047 160.13C123.655 160.508 123.133 160.717 122.593 160.71C122.328 160.72 122.063 160.675 121.815 160.578C121.567 160.482 121.341 160.335 121.15 160.148C120.959 159.96 120.806 159.735 120.702 159.487C120.598 159.238 120.544 158.97 120.544 158.7C120.565 158.15 120.796 157.63 121.187 157.251C121.579 156.872 122.101 156.664 122.642 156.671C122.907 156.662 123.171 156.708 123.419 156.804C123.667 156.901 123.894 157.048 124.085 157.235C124.276 157.423 124.429 157.647 124.534 157.896C124.639 158.144 124.693 158.411 124.695 158.682Z" fill="#263238"/>
<path d="M128.731 153.343C128.458 153.604 126.965 152.34 124.722 152.232C122.478 152.124 120.8 153.177 120.575 152.889C120.46 152.758 120.747 152.277 121.485 151.782C122.483 151.151 123.649 150.849 124.823 150.919C125.981 150.976 127.091 151.406 127.994 152.147C128.652 152.718 128.864 153.213 128.731 153.343Z" fill="#263238"/>
<path d="M106.117 153.577C105.821 153.811 104.443 152.394 102.24 152.057C100.036 151.719 98.2653 152.583 98.0489 152.273C97.9517 152.133 98.2829 151.679 99.069 151.27C100.124 150.744 101.314 150.565 102.474 150.757C103.629 150.933 104.699 151.478 105.53 152.313C106.104 152.947 106.258 153.474 106.117 153.577Z" fill="#263238"/>
<path d="M113.92 170.097C113.92 169.971 115.311 169.796 117.572 169.62C118.142 169.589 118.685 169.499 118.804 169.107C118.923 168.716 118.751 168.059 118.508 167.371C118.04 165.941 117.551 164.442 117.042 162.874C115.015 156.469 113.575 151.216 113.831 151.139C114.088 151.063 115.934 156.181 117.96 162.581C118.446 164.158 118.911 165.667 119.356 167.106C119.537 167.772 119.873 168.541 119.537 169.395C119.445 169.595 119.309 169.77 119.14 169.908C118.97 170.046 118.773 170.143 118.561 170.191C118.241 170.264 117.913 170.294 117.585 170.281C115.306 170.304 113.92 170.227 113.92 170.097Z" fill="#263238"/>
<path d="M114.119 197.033C106.509 196.762 99.1221 194.346 92.7805 190.053C92.7805 190.053 98.0135 201.747 114.251 201.036L114.119 197.033Z" fill="#FF9A6C"/>
<path d="M112.688 175.521C112.29 174.954 111.757 174.5 111.139 174.202C110.521 173.903 109.838 173.771 109.155 173.816C108.661 173.837 108.176 173.958 107.729 174.174C107.282 174.39 106.883 174.695 106.554 175.071C106.237 175.434 106.038 175.888 105.982 176.371C105.927 176.854 106.019 177.342 106.245 177.77C106.806 178.669 108.051 178.926 109.129 178.669C110.201 178.342 111.199 177.803 112.065 177.082C112.324 176.912 112.55 176.696 112.732 176.443C112.82 176.322 112.87 176.177 112.877 176.026C112.885 175.876 112.848 175.727 112.772 175.597" fill="#FF9A6C"/>
<path d="M107.265 171.334C107.627 171.334 107.513 173.794 109.495 175.647C111.478 177.5 114.07 177.365 114.07 177.707C114.097 177.864 113.474 178.157 112.383 178.157C110.966 178.102 109.612 177.542 108.559 176.573C107.552 175.645 106.936 174.356 106.841 172.975C106.802 171.909 107.102 171.311 107.265 171.334Z" fill="#263238"/>
<path d="M107.195 149.097C106.886 149.673 104.726 149.039 102.094 148.954C99.4622 148.868 97.2365 149.259 96.9936 148.657C96.8788 148.373 97.3292 147.852 98.2654 147.393C99.4996 146.842 100.841 146.586 102.188 146.644C103.534 146.703 104.85 147.074 106.033 147.73C106.925 148.265 107.332 148.819 107.195 149.097Z" fill="#E92612"/>
<path d="M127.552 143.565C127.111 144.119 125.543 143.444 123.622 143.313C121.701 143.116 120.045 143.52 119.701 142.9C119.551 142.598 119.838 142.036 120.584 141.55C121.559 140.951 122.696 140.68 123.832 140.777C124.967 140.874 126.044 141.333 126.908 142.09C127.552 142.693 127.747 143.318 127.552 143.565Z" fill="#E92612"/>
<path d="M85.6268 164.551C85.6842 163.323 84.4389 160.368 83.2598 160.117C80.1111 159.451 74.3835 159.419 73.9287 167.619C73.3016 178.827 84.483 177.154 84.5272 176.834C84.5493 176.6 85.4281 168.779 85.6268 164.551Z" fill="#FFBF9D"/>
<path d="M81.3914 172.395C81.3472 172.355 81.1926 172.517 80.8614 172.651C80.3942 172.824 79.8797 172.804 79.4262 172.598C78.2869 172.098 77.4125 170.16 77.4743 168.136C77.4931 167.17 77.724 166.22 78.15 165.356C78.5342 164.556 79.0862 164.007 79.6779 163.944C79.901 163.897 80.1333 163.931 80.3343 164.04C80.5354 164.149 80.6922 164.327 80.7775 164.542C80.91 164.866 80.8261 165.086 80.8835 165.109C80.9409 165.131 81.1308 164.934 81.069 164.466C81.0212 164.184 80.8811 163.927 80.6715 163.737C80.3826 163.486 80.008 163.362 79.6294 163.391C78.7771 163.391 77.9689 164.155 77.5317 165.015C77.0064 165.957 76.7181 167.017 76.6927 168.1C76.6353 170.349 77.651 172.544 79.2187 173.101C79.5086 173.205 79.8177 173.242 80.1234 173.208C80.429 173.175 80.7234 173.072 80.9851 172.908C81.356 172.665 81.4311 172.418 81.3914 172.395Z" fill="#FF9A6C"/>
<path d="M91.9899 158.25C91.9563 158.377 91.9042 158.498 91.8354 158.61C91.7294 158.835 91.5527 159.154 91.3231 159.536C90.7139 160.531 90.0002 161.456 89.1946 162.293C88.3907 163.134 87.4908 163.874 86.514 164.497C86.1387 164.731 85.8251 164.907 85.6043 165.014C85.4931 165.082 85.3725 165.132 85.2466 165.163C85.2466 165.127 85.6882 164.857 86.4257 164.358C87.362 163.702 88.2345 162.957 89.0312 162.131C89.8243 161.297 90.5454 160.394 91.1862 159.433C91.4335 159.024 91.7017 158.63 91.9899 158.25Z" fill="white"/>
<path d="M130.259 162.491C130.279 162.574 130.288 162.658 130.286 162.743C130.286 162.937 130.308 163.193 130.326 163.476C130.356 164.11 130.37 165.028 130.352 166.175C130.334 167.322 130.268 168.667 130.14 170.164C130.012 171.662 129.8 173.313 129.504 175.008C129.208 176.704 128.837 178.332 128.458 179.785C128.078 181.237 127.676 182.528 127.305 183.599C126.934 184.669 126.612 185.533 126.369 186.117C126.254 186.387 126.157 186.612 126.086 186.787C126.057 186.868 126.018 186.945 125.971 187.017C125.985 186.932 126.008 186.849 126.042 186.769C126.104 186.59 126.183 186.36 126.285 186.081C126.501 185.488 126.802 184.624 127.168 183.549C127.535 182.474 127.897 181.179 128.272 179.731C128.647 178.282 128.992 176.672 129.297 174.968C129.601 173.263 129.796 171.631 129.946 170.142C130.096 168.653 130.171 167.304 130.206 166.17C130.242 165.037 130.259 164.119 130.255 163.472C130.255 163.175 130.255 162.932 130.255 162.743C130.246 162.659 130.248 162.575 130.259 162.491Z" fill="white"/>
<path d="M106.028 153.883C106.002 153.919 105.653 153.613 105.021 153.24C104.2 152.757 103.304 152.419 102.372 152.241C101.437 152.069 100.48 152.059 99.5412 152.21C98.8214 152.331 98.3886 152.489 98.3753 152.448C98.4629 152.382 98.5618 152.334 98.6668 152.304C98.9398 152.193 99.2221 152.107 99.5103 152.048C100.467 151.843 101.454 151.829 102.416 152.007C103.377 152.188 104.294 152.56 105.114 153.1C105.363 153.26 105.598 153.443 105.816 153.645C105.971 153.788 106.037 153.874 106.028 153.883Z" fill="white"/>
<path d="M106.695 149.228C106.695 149.291 104.575 149.286 101.966 149.228C99.3557 149.169 97.2404 149.039 97.2404 148.976C98.8159 148.895 100.394 148.895 101.97 148.976C104.584 149.048 106.7 149.165 106.695 149.228Z" fill="white"/>
<path d="M127.928 153.258C127.928 153.289 127.553 153.087 126.943 152.853C125.344 152.24 123.595 152.162 121.949 152.628C121.322 152.808 120.946 152.979 120.933 152.943C121.228 152.738 121.555 152.586 121.9 152.493C122.729 152.209 123.601 152.084 124.475 152.124C125.347 152.161 126.206 152.364 127.005 152.723C127.342 152.844 127.654 153.025 127.928 153.258Z" fill="white"/>
<path d="M119.515 170.331C118.687 170.623 117.817 170.775 116.941 170.78C116.069 170.868 115.189 170.812 114.335 170.614C114.335 170.547 115.501 170.614 116.932 170.547C118.363 170.479 119.502 170.263 119.515 170.331Z" fill="white"/>
<path d="M111.712 178.543C111.372 178.565 111.031 178.516 110.71 178.399C109.919 178.158 109.191 177.741 108.576 177.18C107.962 176.619 107.477 175.926 107.155 175.152C107.008 174.839 106.922 174.5 106.903 174.154C106.943 174.154 107.04 174.527 107.305 175.085C108.012 176.551 109.25 177.679 110.758 178.233C111.319 178.449 111.712 178.503 111.712 178.543Z" fill="white"/>
<path d="M75.1118 173.313C75.1118 173.313 75.0809 173.254 75.0412 173.142C75.0014 173.029 74.944 172.849 74.8822 172.629C74.7067 171.992 74.5769 171.342 74.4936 170.686C74.3697 169.712 74.3386 168.729 74.4009 167.749C74.4719 166.543 74.7297 165.356 75.1648 164.232C75.6035 163.097 76.3249 162.099 77.258 161.335C78.0372 160.729 78.958 160.34 79.9297 160.207C80.5813 160.117 81.2444 160.18 81.8684 160.391C82.0358 160.449 82.1982 160.522 82.3542 160.607C82.4601 160.665 82.5131 160.701 82.5087 160.71C82.5043 160.719 82.2747 160.602 81.8419 160.476C81.2261 160.306 80.582 160.271 79.9518 160.373C79.0168 160.521 78.1348 160.911 77.3905 161.506C76.4959 162.255 75.8042 163.224 75.3812 164.322C74.9518 165.423 74.6926 166.585 74.6128 167.767C74.5412 168.733 74.556 169.704 74.657 170.668C74.7264 171.319 74.8295 171.966 74.9661 172.606C75.0316 172.838 75.0803 173.074 75.1118 173.313Z" fill="white"/>
<g opacity="0.2">
<path d="M101.555 163.557C100.23 162.658 98.6626 162.244 97.1391 161.866L95.9865 161.794C94.1273 162.284 92.1269 162.874 90.9169 164.547C89.7069 166.22 89.6185 168.797 90.5503 170.713C91.0068 171.626 91.6674 172.417 92.4789 173.022C93.2904 173.628 94.2302 174.031 95.2225 174.199C97.1738 174.457 99.1516 173.998 100.8 172.903C102.496 171.842 104.046 170.011 104.01 167.821C103.958 166.964 103.708 166.132 103.282 165.391C102.855 164.65 102.264 164.022 101.555 163.557Z" fill="white"/>
</g>
<g opacity="0.2">
<path d="M126.815 165.167C126.315 164.429 125.626 163.844 124.823 163.476L124.306 163.404C123.759 163.676 123.273 164.061 122.88 164.535C122.486 165.009 122.195 165.562 122.023 166.157C121.479 168.168 121.423 170.285 121.86 172.323C122.279 174.235 123.101 175.472 123.962 175.809C124.823 176.146 125.728 175.57 126.475 174.514C127.457 173.01 127.961 171.236 127.919 169.431C127.939 167.934 127.557 166.46 126.815 165.167Z" fill="white"/>
</g>
<path d="M84.3059 205.147C84.2822 205.062 84.2703 204.974 84.2706 204.886C84.2706 204.688 84.2352 204.436 84.2131 204.13C84.169 203.469 84.116 202.52 84.063 201.342C83.9526 198.99 83.8466 195.738 83.8113 192.14C83.776 188.542 83.8113 185.29 83.8819 182.933C83.9173 181.759 83.9482 180.806 83.9835 180.145C83.9835 179.839 84.0144 179.587 84.0233 179.389C84.0231 179.3 84.0335 179.21 84.0542 179.124C84.0644 179.212 84.0644 179.301 84.0542 179.389V180.149C84.0542 180.837 84.0542 181.782 84.0277 182.938C84.0277 185.294 83.9879 188.546 84.0277 192.14C84.0674 195.733 84.1425 198.981 84.2087 201.337C84.2441 202.489 84.2705 203.433 84.2882 204.126C84.2882 204.426 84.2882 204.678 84.2882 204.881C84.307 204.969 84.3129 205.058 84.3059 205.147Z" fill="white"/>
<path d="M116.716 194.775C116.462 194.83 116.206 194.865 115.947 194.879C115.453 194.937 114.733 194.982 113.841 195.005C112.949 195.027 111.884 195.005 110.705 194.915C109.428 194.814 108.157 194.641 106.899 194.397C105.64 194.146 104.396 193.826 103.172 193.439C102.05 193.075 101.052 192.697 100.23 192.338C99.4091 191.978 98.7555 191.667 98.3183 191.438C98.0824 191.328 97.8563 191.197 97.6426 191.047C97.8876 191.132 98.1266 191.234 98.358 191.353C98.7996 191.568 99.4665 191.861 100.292 192.194C101.118 192.526 102.116 192.891 103.238 193.246C104.359 193.601 105.614 193.912 106.943 194.177C108.272 194.442 109.553 194.6 110.723 194.708C111.893 194.816 112.931 194.852 113.836 194.847C114.742 194.843 115.444 194.825 115.943 194.798C116.199 194.77 116.458 194.762 116.716 194.775Z" fill="white"/>
<path d="M126.033 143.709C126.033 143.777 124.867 143.498 123.419 143.471C121.971 143.444 120.809 143.664 120.796 143.592C121.641 143.302 122.533 143.181 123.423 143.237C124.315 143.219 125.202 143.379 126.033 143.709Z" fill="white"/>
</g>
<defs>
<filter id="filter0_d_206_817" x="0" y="57" width="204" height="205" filterUnits="userSpaceOnUse" color-interpolation-filters="sRGB">
<feFlood flood-opacity="0" result="BackgroundImageFix"/>
<feColorMatrix in="SourceAlpha" type="matrix" values="0 0 0 0 0 0 0 0 0 0 0 0 0 0 0 0 0 0 127 0" result="hardAlpha"/>
<feOffset dy="4"/>
<feGaussianBlur stdDeviation="2"/>
<feComposite in2="hardAlpha" operator="out"/>
<feColorMatrix type="matrix" values="0 0 0 0 0 0 0 0 0 0 0 0 0 0 0 0 0 0 0.25 0"/>
<feBlend mode="normal" in2="BackgroundImageFix" result="effect1_dropShadow_206_817"/>
<feBlend mode="normal" in="SourceGraphic" in2="effect1_dropShadow_206_817" result="shape"/>
</filter>
</defs>
</svg>
