<svg width="204" height="261" viewBox="0 0 204 261" fill="none" xmlns="http://www.w3.org/2000/svg">
<g filter="url(#filter0_d_206_712)">
<rect x="4" y="56" width="196" height="197" rx="98" fill="#6F66BA"/>
</g>
<mask id="mask0_206_712" style="mask-type:alpha" maskUnits="userSpaceOnUse" x="4" y="13" width="196" height="240">
<path d="M4 129.922C4 86.1665 33.0058 47.7126 75.0774 35.6922L146.155 15.3844C173.139 7.67461 200 27.9361 200 56V56V155C200 209.124 156.124 253 102 253V253C47.8761 253 4 209.124 4 155V129.922Z" fill="#6F66BA"/>
</mask>
<g mask="url(#mask0_206_712)">
<path d="M48.9659 182.839C37.7917 168.552 28.8067 152.372 24.6221 134.55C20.8935 112.727 63.2301 106.455 78.5889 104.905C79.8156 104.818 81.0328 105.174 82.0186 105.91C83.0045 106.645 83.6934 107.71 83.96 108.91C84.2267 110.111 84.0532 111.367 83.4713 112.451C82.8894 113.534 81.9377 114.372 80.7896 114.813C72.808 117.778 64.4273 120.845 56.6852 124.391C51.6568 126.785 46.2179 129.237 42.6946 132.874C42.364 133.273 42.2385 133.581 42.364 133.467C42.7038 132.947 42.8713 132.332 42.8429 131.711L42.5464 129.761C46.8336 142.521 54.1311 154.299 61.7364 165.382C62.6714 166.716 64.3703 169.088 65.3281 170.411C72.7054 181.482 57.6316 192.884 48.9659 182.793V182.839Z" fill="#AA6550"/>
<path opacity="0.2" d="M53.9486 178.985C53.2303 181.756 50.9612 183.546 48.7606 182.611C48.7606 182.611 43.698 176.089 40.0949 170.365C47.3581 171.938 53.9486 178.985 53.9486 178.985Z" fill="black"/>
<path d="M73.1728 108.508L85.6583 98.4281L92.6023 110.571C92.6023 110.571 84.8716 118.838 76.1945 115.36L73.1728 108.508Z" fill="#AA6550"/>
<path d="M96.8667 96.2731L99.8769 106.592L92.6022 110.617L85.6582 98.4281L96.8667 96.2731Z" fill="#AA6550"/>
<path d="M115.851 200.558C116.47 200.835 117.02 201.244 117.465 201.756C117.909 202.268 118.236 202.87 118.424 203.521C118.612 204.172 118.655 204.857 118.552 205.527C118.448 206.196 118.2 206.835 117.824 207.399C110.431 218.597 103.996 230.398 98.5884 242.678C94.8326 251.173 91.9002 260.008 89.8314 269.063L36.0128 248.687C37.1601 232.727 39.5813 216.885 43.2532 201.311C46.6739 187.126 61.3942 166.328 70.3792 173.694C71.0519 174.253 71.7817 174.835 72.5456 175.427C81.7335 182.398 91.5383 188.516 101.838 193.705C102.636 194.127 103.446 194.538 104.278 194.96C107.866 196.784 111.724 198.65 115.851 200.558Z" fill="#263238"/>
<path d="M117.801 207.377C115.452 210.923 111.997 216.384 108.258 223.1C105.681 227.752 102.967 232.997 100.367 238.619C99.7628 239.953 99.1699 241.298 98.5656 242.655C92.2944 225.29 101.633 201.185 104.267 194.96C107.847 196.784 111.678 198.654 115.817 200.558C116.432 200.836 116.979 201.244 117.421 201.754C117.863 202.264 118.19 202.863 118.378 203.511C118.567 204.159 118.613 204.84 118.513 205.507C118.413 206.174 118.171 206.812 117.801 207.377Z" fill="#AA6550"/>
<path d="M70.3793 173.672C66.0008 178.552 52.1357 193.865 43.2533 201.288C46.674 187.103 51.6796 172.497 58.8744 161.79C58.8744 161.79 61.3943 166.306 70.3793 173.672Z" fill="#AA6550"/>
<path d="M101.838 193.705C96.8325 200.855 85.3162 214.229 73.1386 206.772C59.2506 198.3 69.3188 180.399 72.5229 175.405C81.7171 182.385 91.5295 188.51 101.838 193.705Z" fill="#AA6550"/>
<path opacity="0.2" d="M109.477 220.957C106.912 225.609 102.784 233.602 102.784 233.602C102.317 226.115 103.606 218.622 106.547 211.721C108.292 213.716 108.531 218.539 109.477 220.957Z" fill="black"/>
<path d="M119.261 202.04C129.036 210.188 138.085 219.169 146.307 228.881C150.662 234.582 156.854 241.515 154.847 249.713C149.237 266.817 120.298 270.431 105.042 270.773C103.825 270.77 102.648 270.335 101.721 269.546C100.794 268.757 100.178 267.664 99.9805 266.463C99.7835 265.262 100.019 264.03 100.645 262.986C101.271 261.942 102.248 261.154 103.4 260.762C110.897 258.461 118.256 255.731 125.441 252.587C129.808 250.477 134.357 248.345 136.923 244.97C137.231 244.548 137.174 244.206 137.071 244.491C136.883 245.014 136.761 245.557 136.706 246.11C136.618 246.803 136.657 247.506 136.82 248.185C128.223 237.159 116.182 227.274 105.749 217.456C96.2622 208.084 108.782 193.842 119.306 202.04H119.261Z" fill="#AA6550"/>
<path d="M101.462 170.353C97.6193 177.548 94.21 186.682 97.4368 191.949C97.4368 191.949 87.0379 197.479 70.9038 196.51C69.2276 188.78 74.9858 182.964 74.9858 182.964C76.6946 182.532 78.2684 181.679 79.5646 180.485C80.8607 179.29 81.8383 177.791 82.4086 176.123C82.9201 174.796 83.2611 173.409 83.4234 171.995L104.962 164.436C103.868 166.135 102.648 168.153 101.462 170.353Z" fill="#AA6550"/>
<path opacity="0.2" d="M104.962 164.47C103.822 166.135 102.682 168.153 101.462 170.353C96.2509 174.538 88.4745 177.035 82.4085 176.157C82.92 174.83 83.261 173.443 83.4233 172.03L104.962 164.47Z" fill="black"/>
<path d="M123.137 139.168L92.8871 156.397C87.6966 155.134 83.1996 151.904 80.3446 147.389C78.5773 144.475 77.4827 141.203 77.1406 137.811C75.2592 121.848 82.9215 118.017 83.0698 110.115C83.218 102.214 74.9285 100.013 74.9285 100.013C74.9285 100.013 81.4164 94.1067 89.0787 105.6C96.8095 117.151 123.137 139.168 123.137 139.168Z" fill="#BC6BFA"/>
<path opacity="0.2" d="M123.137 139.168L92.8871 156.397C87.6966 155.134 83.1996 151.904 80.3446 147.389C78.5773 144.475 77.4827 141.203 77.1406 137.811C75.2592 121.848 82.9215 118.017 83.0698 110.115C83.218 102.214 74.9285 100.013 74.9285 100.013C74.9285 100.013 81.4164 94.1067 89.0787 105.6C96.8095 117.151 123.137 139.168 123.137 139.168Z" fill="white"/>
<path opacity="0.3" d="M80.3789 147.389C78.6116 144.475 77.517 141.203 77.1748 137.811C75.2935 121.848 82.9558 118.017 83.104 110.115C83.2522 102.214 74.9628 100.013 74.9628 100.013C74.9628 100.013 81.4507 94.1067 89.113 105.6C88.8051 105.212 85.0196 99.899 80.9604 100.195C83.2332 102.179 84.6476 104.966 84.9055 107.972C85.2476 112.898 75.2593 125.075 81.0744 132.464C84.8372 137.253 83.4575 144.664 80.3789 147.389Z" fill="white"/>
<path d="M120.082 152.076C111.211 164.219 107.721 169.533 97.0604 172.292C81.0174 176.454 67.711 163.854 72.7052 149.544C77.1862 136.66 90.9487 118.964 106.786 121.119C122.362 123.239 128.952 139.932 120.082 152.076Z" fill="#AA6550"/>
<path d="M86.1485 136.272L83.5944 134.642C83.5944 134.642 84.2557 137.287 86.1485 136.272Z" fill="#263238"/>
<path d="M91.2566 142.68C91.2566 142.68 86.4335 146.169 82.9786 147.241C83.5259 149.339 86.3195 150.114 86.3195 150.114L91.2566 142.68Z" fill="#885140"/>
<path d="M86.6957 157.093C86.004 157.008 85.3211 156.863 84.6547 156.659C84.6113 156.643 84.5715 156.618 84.5377 156.586C84.5039 156.554 84.4767 156.516 84.4576 156.474C84.4385 156.432 84.428 156.386 84.4266 156.339C84.4252 156.293 84.433 156.247 84.4495 156.203C84.4854 156.111 84.5543 156.036 84.6428 155.991C84.7313 155.947 84.8331 155.937 84.9284 155.964C86.4293 156.432 88.0158 156.56 89.5723 156.337C91.1287 156.114 92.6158 155.546 93.9248 154.675C93.9578 154.641 93.9976 154.613 94.0417 154.594C94.0858 154.575 94.1333 154.565 94.1813 154.565C94.2293 154.565 94.2768 154.575 94.321 154.594C94.3651 154.613 94.4048 154.641 94.4379 154.675C94.4658 154.714 94.4856 154.758 94.4961 154.804C94.5066 154.851 94.5077 154.899 94.4992 154.946C94.4906 154.993 94.4727 155.037 94.4465 155.077C94.4203 155.117 94.3863 155.151 94.3466 155.177C92.1234 156.745 89.3955 157.428 86.6957 157.093Z" fill="#263238"/>
<path d="M85.5099 131.004C88.9305 128.849 92.7047 130.867 92.8187 131.004C92.8944 131.06 92.9571 131.132 93.0028 131.215C93.0485 131.297 93.0761 131.388 93.0836 131.482C93.0912 131.576 93.0786 131.671 93.0467 131.759C93.0148 131.848 92.9642 131.929 92.8985 131.996C92.7684 132.145 92.5871 132.239 92.3906 132.26C92.1941 132.282 91.9969 132.228 91.8381 132.11C89.8636 131.189 87.68 130.807 85.5099 131.004Z" fill="#BC6BFA"/>
<path d="M100.8 137.937C100.764 137.854 100.745 137.765 100.745 137.675C100.745 137.584 100.764 137.495 100.8 137.412C100.898 137.247 101.057 137.127 101.242 137.077C101.428 137.028 101.626 137.054 101.792 137.15C105.487 139.134 105.715 143.319 105.304 143.342C104.894 143.364 104.073 139.921 101.142 138.393C100.976 138.288 100.854 138.126 100.8 137.937Z" fill="#BC6BFA"/>
<path d="M86.1486 136.272C86.1486 136.272 85.8179 138.553 88.9307 138.416C88.9307 138.416 85.5671 140.468 84.8373 136.386L86.1486 136.272Z" fill="#263238"/>
<path d="M101.04 144.619L103.845 146.523C103.845 146.523 100.823 147.059 101.04 144.619Z" fill="#263238"/>
<path d="M101.04 144.619C101.04 144.619 98.7593 145.975 97.6191 142.68C97.6191 142.68 96.9806 147.059 101.519 146.033L101.04 144.619Z" fill="#263238"/>
<path opacity="0.3" d="M200 72.2599C199.955 72.1105 199.921 71.9581 199.897 71.8038C199.897 71.9179 199.897 72.0433 200 72.2599Z" fill="black"/>
<path d="M200 72.2599C199.955 72.1105 199.921 71.9581 199.897 71.8038C199.897 71.9179 199.897 72.0433 200 72.2599Z" fill="#BC6BFA"/>
<path d="M104.825 169.088L112.887 147.207C111.796 144.776 111.308 142.118 111.463 139.459C111.618 136.799 112.411 134.216 113.776 131.928C113.776 131.928 105.566 119.385 91.4391 121.962C91.4391 121.962 83.2864 89.0212 98.5997 73.2519C109.819 61.7128 112.1 52.477 112.1 52.477C112.1 52.477 117.801 61.1769 111.142 71.8608C111.142 71.8608 118.063 71.2565 120.264 63.0241C122.465 54.7917 126.319 47.1864 132.806 47.3574C139.294 47.5284 145.908 39.0566 140.514 30.0374C140.514 30.0374 149.636 38.9767 146.113 46.0005C142.59 53.0243 138.314 55.8407 138.131 60.9603C138.131 60.9603 140.959 55.1337 145.429 55.2592C149.898 55.3846 157.412 60.9603 162.931 48.4178C168.45 35.8753 177.754 35.9666 185.029 39.1022C185.029 39.1022 176.295 37.027 174.63 42.8079C172.965 48.5889 178.404 56.5818 176.523 66.6614C174.641 76.741 166.637 78.7706 166.637 78.7706C166.637 78.7706 176.397 81.1195 179.567 70.2645C182.737 59.4096 180.548 56.217 180.548 56.217C180.548 56.217 191.859 78.7022 175.918 88.8844C177.031 89.0482 178.167 88.9489 179.234 88.5944C180.301 88.24 181.271 87.6403 182.064 86.8434C184.698 84.1183 188.541 87.8354 188.541 87.8354C188.541 87.8354 184.892 86.6952 183.923 88.4625C182.954 90.2299 188.153 122.76 168.21 125.862C168.21 125.862 181.004 128.142 184.265 116.945C184.265 116.945 183.74 149.681 157.846 152.532C157.846 152.532 158.131 157.093 164.573 154.493C171.015 151.893 175.508 154.425 176.181 159.715C176.181 159.715 174.083 154.903 169.784 157.857C165.485 160.81 147.721 181.288 118.975 168.769C116.728 167.819 114.305 167.356 111.866 167.411C109.427 167.466 107.027 168.038 104.825 169.088Z" fill="#BC6BFA"/>
<path opacity="0.2" d="M104.825 169.088L112.887 147.207C111.796 144.776 111.308 142.118 111.463 139.459C111.618 136.799 112.411 134.216 113.776 131.928C113.776 131.928 105.566 119.385 91.4391 121.962C91.4391 121.962 83.2864 89.0212 98.5997 73.2519C109.819 61.7128 112.1 52.477 112.1 52.477C112.1 52.477 117.801 61.1769 111.142 71.8608C111.142 71.8608 118.063 71.2565 120.264 63.0241C122.465 54.7917 126.319 47.1864 132.806 47.3574C139.294 47.5284 145.908 39.0566 140.514 30.0374C140.514 30.0374 149.636 38.9767 146.113 46.0005C142.59 53.0243 138.314 55.8407 138.131 60.9603C138.131 60.9603 140.959 55.1337 145.429 55.2592C149.898 55.3846 157.412 60.9603 162.931 48.4178C168.45 35.8753 177.754 35.9666 185.029 39.1022C185.029 39.1022 176.295 37.027 174.63 42.8079C172.965 48.5889 178.404 56.5818 176.523 66.6614C174.641 76.741 166.637 78.7706 166.637 78.7706C166.637 78.7706 176.397 81.1195 179.567 70.2645C182.737 59.4096 180.548 56.217 180.548 56.217C180.548 56.217 191.859 78.7022 175.918 88.8844C177.031 89.0482 178.167 88.9489 179.234 88.5944C180.301 88.24 181.271 87.6403 182.064 86.8434C184.698 84.1183 188.541 87.8354 188.541 87.8354C188.541 87.8354 184.892 86.6952 183.923 88.4625C182.954 90.2299 188.153 122.76 168.21 125.862C168.21 125.862 181.004 128.142 184.265 116.945C184.265 116.945 183.74 149.681 157.846 152.532C157.846 152.532 158.131 157.093 164.573 154.493C171.015 151.893 175.508 154.425 176.181 159.715C176.181 159.715 174.083 154.903 169.784 157.857C165.485 160.81 147.721 181.288 118.975 168.769C116.728 167.819 114.305 167.356 111.866 167.411C109.427 167.466 107.027 168.038 104.825 169.088Z" fill="white"/>
<path d="M90.2876 115.132C89.9455 107.06 90.1393 97.4931 101.336 92.3849C112.533 87.2767 110.891 77.7216 110.891 77.7216C110.891 77.7216 114.403 91.0851 107.117 96.7976C107.117 96.7976 111.895 93.2857 116.319 95.4407C120.743 97.5957 121.404 87.0031 123.81 78.1321C126.216 69.2612 135.976 71.7696 135.976 71.7696C135.976 71.7696 128.736 72.4082 128.861 77.3111C128.987 82.2141 135.703 90.1729 131.016 97.5729C131.016 97.5729 137.858 98.4851 138.838 92.9208C139.443 89.5002 143 81.815 149.591 82.2255C157.242 82.6816 156.808 75.9657 156.808 75.9657C156.808 75.9657 158.621 81.6668 154.642 85.1673C150.662 88.6678 147.481 89.6142 147.379 95.4293C147.276 101.244 148.747 111.313 140.537 114.711C141.784 114.971 143.079 114.861 144.264 114.396C145.449 113.93 146.472 113.128 147.208 112.088C149.716 108.736 152.966 104.836 158.61 106.934C156.666 108.083 155.235 109.931 154.608 112.099C153.821 115.52 154.209 124.437 147.447 132.726C140.686 141.016 133.958 142.441 133.958 142.441C135.933 146.538 139.181 149.886 143.217 151.984C145.969 153.457 148.851 154.674 151.826 155.622C151.826 155.622 148.325 162.646 135.555 166.009C127.117 168.29 109.329 159.339 109.329 159.339L113.89 147.036C116.324 146.779 118.766 147.447 120.732 148.906C120.732 148.906 116.171 144.277 113.776 145.257C113.776 145.257 111.097 140.594 112.374 137.469C112.374 137.469 121.142 138.028 124.027 135.018C124.027 135.018 115.908 136.249 113.069 134.778C113.291 133.752 113.714 132.779 114.312 131.917C114.312 131.917 112.032 127.356 104.814 122.612C104.814 122.612 105.681 114.095 109.956 111.837C112.802 110.493 116.023 110.171 119.078 110.925C119.078 110.925 106.41 106.478 102.853 121.643C102.853 121.643 99.569 119.978 93.7311 121.21C91.6208 122.324 89.6465 123.678 87.8475 125.246C85.8748 127.115 84.0772 129.161 82.477 131.358C80.7127 126.574 80.8763 121.292 82.9331 116.626C82.9331 116.626 82.9331 122.567 84.29 122.783C83.9314 121.365 83.9314 119.88 84.29 118.462C85.3162 113.833 88.2238 112.704 86.6731 108.017C86.6731 108.017 87.8133 108.337 88.9535 110.298C89.6299 111.836 90.0793 113.465 90.2876 115.132Z" fill="#BC6BFA"/>
<path opacity="0.3" d="M176.078 159.738C175.93 159.419 173.798 155.04 169.682 157.891C165.565 160.741 148.291 180.547 120.504 169.476C123.582 170.251 136.022 172.896 146.444 169.932C158.462 166.454 164.049 158.529 164.049 158.529C164.049 158.529 159.134 161.528 154.596 160.479C156.416 159.798 158.159 158.926 159.796 157.879C159.796 157.879 153.844 153.319 153.182 149.145C153.182 149.145 171.038 143.661 176.397 132.635C176.397 132.635 170.252 136.375 166.021 135.725C166.284 135.656 170.662 134.414 172.087 131.62C172.087 131.62 161.996 129.818 157.607 123.752C157.607 123.752 170.822 125.121 176.192 114.813C179.437 108.204 180.756 100.815 180.001 93.4909C180.001 93.4909 173.741 99.0552 165.178 94.1865C165.178 94.1865 175.075 89.7168 176.318 82.0431C176.318 82.0431 167.321 86.604 160.012 80.5152C160.012 80.5152 164.357 78.8504 166.238 76.57C164.197 76.8375 162.122 76.5987 160.195 75.8744C160.195 75.8744 171.244 73.3887 172.338 61.462C173.399 49.9001 170.445 46.1374 170.252 45.9207C170.252 46.2628 170.502 53.5374 166.021 57.7791C166.021 57.7791 167.937 53.8567 166.569 50.7553C166.569 50.7553 165.577 64.1643 155.577 61.3138C145.577 58.4632 138.04 69.6146 138.04 69.6146C138.04 69.6146 135.087 66.479 135.498 62.9329C134.616 64.8177 134.257 66.9051 134.46 68.9761C134.46 68.9761 129.671 57.3914 137.596 49.8887C137.596 49.8887 131.359 47.9161 127.048 55.2592C122.738 62.6022 123.753 70.7092 120.526 73.4458C118.497 75.1277 116.065 76.2516 113.468 76.7068C114.316 75.341 114.957 73.8581 115.373 72.3055C115.373 72.3055 110.812 77.1401 105.932 76.8664C105.932 76.8664 112.283 68.9761 111.633 63.674C111.633 63.674 109.352 73.0695 101.428 76.7866C93.8794 80.3099 89.2615 95.4863 88.8852 101.621C89.0904 92.0086 91.1656 80.8002 98.5657 73.2291C109.82 61.7128 112.1 52.477 112.1 52.477C112.1 52.477 117.801 61.1769 111.142 71.8609C111.142 71.8609 118.064 71.2565 120.264 63.0241C122.465 54.7917 126.319 47.1864 132.807 47.3574C139.295 47.5284 145.908 39.0566 140.526 30.0374C140.526 30.0374 149.648 38.9882 146.102 46.0005C142.556 53.0129 138.303 55.8407 138.12 60.9489C138.12 60.9489 140.948 55.1337 145.418 55.2478C149.887 55.3618 157.401 60.9489 162.909 48.4064C168.416 35.8639 177.732 35.9552 185.006 39.0908C185.006 39.0908 176.283 37.0156 174.619 42.7965C172.954 48.5774 178.393 56.5704 176.511 66.65C174.687 76.3875 167.15 78.611 166.649 78.7592C167.184 78.8846 176.477 80.7888 179.556 70.2531C182.03 61.7699 181.243 57.9615 180.776 56.7073C182.338 60.1279 190.445 79.603 175.907 88.8616C177.019 89.0296 178.155 88.9334 179.222 88.5808C180.29 88.2282 181.26 87.6291 182.053 86.832C184.687 84.1069 188.529 87.824 188.529 87.824C188.529 87.824 184.881 86.6838 183.912 88.4511C182.942 90.2185 188.142 122.749 168.211 125.851C168.211 125.851 180.993 128.131 184.254 116.934C184.254 116.934 183.729 149.67 157.835 152.52C157.835 152.52 158.12 157.081 164.562 154.482C171.004 151.882 175.394 154.459 176.078 159.738Z" fill="white"/>
<path opacity="0.2" d="M109.455 122.464C111.45 117.515 111.838 116.626 118.44 117.39C125.041 118.154 128.086 118.815 129.557 112.624C131.028 106.432 136.877 108.975 136.877 108.975C136.877 108.975 132.932 107.618 132.59 111.529C132.248 115.44 134.745 122.932 130.138 124.528C130.138 124.528 138.28 128.37 141.29 125.577C141.29 125.577 138.508 130.97 133.308 130.685C133.308 130.685 137.333 132.167 139.283 130.115C139.283 130.115 137.402 134.813 130.264 132.817C125.938 131.641 121.36 131.784 117.117 133.228C117.117 133.228 119.785 128.462 124.232 128.667C124.232 128.667 117.482 125.816 115.304 129.442C115.304 129.442 114.688 121.107 121.644 121.404C121.644 121.404 113.035 119.066 110.378 123.616C110.378 123.616 111.45 118.838 114.734 118.576C113.663 118.375 112.555 118.574 111.621 119.135C110.74 120.132 110.01 121.254 109.455 122.464Z" fill="black"/>
<path opacity="0.2" d="M102.385 116.273C102.385 116.273 103.525 108.291 110.458 106.501C117.391 104.711 122.921 106.638 125.121 98.3369C125.121 98.3369 122.522 103.251 117.254 103.012C111.986 102.772 106.444 103.434 104.289 105.771C105.317 104.158 106.747 102.841 108.438 101.949C110.13 101.058 112.025 100.622 113.936 100.686C113.936 100.686 100.869 96.4213 98.041 108.952C97.8003 105.634 98.6187 102.324 100.378 99.4999C100.378 99.4999 90.0594 105.897 92.2372 117.744C92.2555 114.939 93.0062 112.187 94.415 109.762C94.415 109.762 93.366 115.167 96.0228 117.481C96.4531 114.881 97.514 112.427 99.1128 110.332C99.1128 110.332 98.3032 114.893 99.8653 117.424C100.203 115.706 100.906 114.08 101.929 112.658C101.679 113.247 101.59 113.892 101.67 114.527C101.75 115.162 101.997 115.764 102.385 116.273Z" fill="black"/>
<path opacity="0.2" d="M115.429 141.358C116.392 140.735 117.487 140.344 118.626 140.216C119.766 140.087 120.919 140.224 121.997 140.616C126.159 142.099 130.777 148.826 134.289 149.67C134.289 149.67 130.731 152.714 125.612 148.324C122.362 145.497 116.661 143.866 116.661 143.866C117.595 143.512 118.6 143.387 119.592 143.502C120.584 143.617 121.534 143.969 122.362 144.527C122.362 144.527 119.329 140.662 115.429 141.358Z" fill="black"/>
<path opacity="0.2" d="M88.0071 120.446C88.0071 120.446 87.209 117.493 87.6308 116.307C87.8653 115.523 87.7919 114.679 87.4256 113.947C87.3789 115.206 86.8623 116.402 85.9775 117.299C84.4268 119.043 84.4382 121.062 86.331 122.327C86.091 121.707 85.9971 121.04 86.0564 120.377C86.1157 119.715 86.3267 119.075 86.6731 118.507C86.6982 118.921 86.8357 119.32 87.0707 119.662C87.3058 120.004 87.6295 120.275 88.0071 120.446Z" fill="black"/>
<path d="M117.698 164.869C114.929 166.442 111.648 166.852 108.577 166.009C104.666 164.869 105.236 160.605 108.44 157.891C111.325 155.451 116.832 153.125 119.739 155.781C122.647 158.438 121.222 162.896 117.698 164.869Z" fill="#AA6550"/>
<path d="M84.7347 82.0659C82.2946 76.3647 84.9057 73.2405 89.0562 69.6716C89.6184 69.2639 90.0883 68.7421 90.4351 68.1404C90.7819 67.5387 90.9979 66.8706 91.0689 66.1797C91.1399 65.4889 91.0644 64.7908 90.8473 64.1311C90.6301 63.4714 90.2762 62.865 89.8087 62.3514C89.8087 62.3514 89.8999 64.1187 85.396 67.6762C76.4795 74.7456 84.7347 82.0659 84.7347 82.0659Z" fill="#BC6BFA"/>
<path d="M160.742 36.7191C159.1 26.6509 166.603 27.5973 170.537 25.123C171.546 24.4706 172.359 23.5564 172.889 22.478C173.419 21.3996 173.647 20.1975 173.547 19C173.547 19 177.332 26.286 170.765 29.0454C166.847 30.7463 163.406 33.381 160.742 36.7191Z" fill="#BC6BFA"/>
<path d="M154.357 179.487C158.849 173.09 162.43 177.662 165.93 178.346C166.831 178.532 167.766 178.469 168.634 178.164C169.502 177.859 170.27 177.323 170.856 176.613C170.856 176.613 169.031 182.634 164.015 180.627C160.938 179.457 157.621 179.065 154.357 179.487Z" fill="#BC6BFA"/>
<path d="M198.461 65.7036C198.461 65.7036 200.251 74.6544 194.094 76.3647C194.637 75.006 194.938 73.5628 194.983 72.1003C195.063 69.626 198.461 65.7036 198.461 65.7036Z" fill="#BC6BFA"/>
<path d="M64.3474 93.7532C64.3474 93.7532 69.1592 101.518 63.9825 105.281C64.0238 103.821 63.8037 102.365 63.3326 100.982C62.5459 98.6219 64.3474 93.7532 64.3474 93.7532Z" fill="#BC6BFA"/>
<path d="M194.789 127.185C194.789 127.185 192.087 129.066 191.539 131.301C190.992 133.536 192.167 141.13 185.314 142.475C186.169 142.143 186.879 141.519 187.318 140.713C187.756 139.907 187.894 138.972 187.708 138.074C185.987 126.466 194.789 127.185 194.789 127.185Z" fill="#BC6BFA"/>
<g opacity="0.5">
<path d="M84.7347 82.0659C82.2946 76.3647 84.9057 73.2405 89.0562 69.6716C89.6184 69.2639 90.0883 68.7421 90.4351 68.1404C90.7819 67.5387 90.9979 66.8706 91.0689 66.1797C91.1399 65.4889 91.0644 64.7908 90.8473 64.1311C90.6301 63.4714 90.2762 62.865 89.8087 62.3514C89.8087 62.3514 89.8999 64.1187 85.396 67.6762C76.4795 74.7456 84.7347 82.0659 84.7347 82.0659Z" fill="white"/>
<path d="M160.742 36.7191C159.1 26.6509 166.603 27.5973 170.537 25.123C171.546 24.4706 172.359 23.5564 172.889 22.478C173.419 21.3996 173.647 20.1975 173.547 19C173.547 19 177.332 26.286 170.765 29.0454C166.847 30.7463 163.406 33.381 160.742 36.7191Z" fill="white"/>
<path d="M154.357 179.487C158.849 173.09 162.43 177.662 165.93 178.346C166.831 178.532 167.766 178.469 168.634 178.164C169.502 177.859 170.27 177.323 170.856 176.613C170.856 176.613 169.032 182.634 164.015 180.627C160.938 179.457 157.621 179.065 154.357 179.487Z" fill="white"/>
<path d="M198.461 65.7036C198.461 65.7036 200.251 74.6544 194.094 76.3647C194.637 75.006 194.938 73.5628 194.983 72.1003C195.063 69.626 198.461 65.7036 198.461 65.7036Z" fill="white"/>
<path d="M64.3474 93.7532C64.3474 93.7532 69.1592 101.518 63.9826 105.281C64.0238 103.821 63.8037 102.365 63.3327 100.982C62.5459 98.6219 64.3474 93.7532 64.3474 93.7532Z" fill="white"/>
<path d="M194.789 127.185C194.789 127.185 192.087 129.066 191.539 131.301C190.992 133.536 192.167 141.13 185.314 142.475C186.169 142.143 186.879 141.519 187.318 140.713C187.756 139.907 187.894 138.972 187.708 138.074C185.987 126.466 194.789 127.185 194.789 127.185Z" fill="white"/>
</g>
<path opacity="0.1" d="M-2.86884 238.505C-0.143697 236.817 2.60423 235.244 5.38638 233.761C2.63844 235.255 -0.1551 236.829 -2.86884 238.505Z" fill="black"/>
<path opacity="0.1" d="M5.88812 231.196C7.57566 230.36 9.27459 229.569 10.9849 228.824C9.27459 229.592 7.57566 230.383 5.88812 231.196Z" fill="black"/>
</g>
<defs>
<filter id="filter0_d_206_712" x="0" y="56" width="204" height="205" filterUnits="userSpaceOnUse" color-interpolation-filters="sRGB">
<feFlood flood-opacity="0" result="BackgroundImageFix"/>
<feColorMatrix in="SourceAlpha" type="matrix" values="0 0 0 0 0 0 0 0 0 0 0 0 0 0 0 0 0 0 127 0" result="hardAlpha"/>
<feOffset dy="4"/>
<feGaussianBlur stdDeviation="2"/>
<feComposite in2="hardAlpha" operator="out"/>
<feColorMatrix type="matrix" values="0 0 0 0 0 0 0 0 0 0 0 0 0 0 0 0 0 0 0.25 0"/>
<feBlend mode="normal" in2="BackgroundImageFix" result="effect1_dropShadow_206_712"/>
<feBlend mode="normal" in="SourceGraphic" in2="effect1_dropShadow_206_712" result="shape"/>
</filter>
</defs>
</svg>
