<svg width="874" height="390" viewBox="0 0 874 390" fill="none" xmlns="http://www.w3.org/2000/svg">
<path d="M144.821 13.5372C146.295 14.3357 146.295 14.3357 147.798 15.1504C162.924 23.9341 173.878 38.7355 182.884 53.4122C184.469 56.5798 184.469 56.5798 186.821 57.5372C187.06 56.8475 187.298 56.1579 187.544 55.4473C189.063 51.9853 191.058 49.0259 193.259 45.9747C193.917 45.0598 193.917 45.0598 194.589 44.1265C210.774 22.0665 232.877 5.42072 260.368 0.850637C285.443 -2.35359 311.18 3.45756 331.446 18.9122C332.913 20.1102 334.371 21.3186 335.821 22.5372C336.931 23.4285 336.931 23.4285 338.063 24.3379C354.826 38.3454 366.568 60.9079 369.821 82.5372C369.931 83.2384 370.04 83.9397 370.153 84.6622C374.773 121.126 361.694 157.64 339.825 186.561C320.714 211.096 297.974 226.712 271.071 241.662C244.272 256.563 220.902 272.671 211.821 303.537C208.566 316.058 209.74 331.693 216.177 342.897C217.608 344.938 219.106 346.731 220.821 348.537C221.346 349.09 221.871 349.643 222.411 350.213C230.231 357.628 238.772 359.13 249.205 359.01C255.4 358.771 260.406 357.669 265.821 354.537C266.609 354.113 267.396 353.689 268.208 353.252C275.232 349.084 279.141 343.662 282.196 336.162C283.658 327.685 283.815 319.876 278.821 312.537C275.837 309.4 272.714 306.484 268.821 304.537C268.821 303.877 268.821 303.217 268.821 302.537C277.964 301.823 286.327 303.486 293.696 309.225C299.491 314.699 302.584 321.612 303.059 329.479C303.468 346.368 298.844 357.202 287.259 369.662C278.804 377.834 268.092 383.322 256.821 386.537C256.045 386.761 255.269 386.986 254.47 387.217C233.383 392.103 210.403 388.409 192.071 377.162C177.888 367.673 168.964 355.283 162.821 339.537C162.386 338.423 161.95 337.31 161.501 336.162C156.357 320.335 156.73 300.351 161.821 284.537C162.015 283.923 162.208 283.309 162.407 282.676C167.789 265.95 176.586 251.927 187.821 238.537C188.472 237.744 189.123 236.952 189.794 236.135C193.139 232.165 196.728 228.709 200.692 225.361C202.132 224.128 203.541 222.858 204.919 221.557C219.128 208.177 236.01 198.09 252.527 187.861C281.545 169.839 314.324 148.257 323.463 113.066C324.743 107.586 325.818 102.074 326.821 96.5372C333.32 106.286 330.947 127.477 329.138 138.736C328.312 142.777 327.137 146.629 325.821 150.537C325.5 151.528 325.5 151.528 325.172 152.539C318.098 174.099 306.319 192.06 289.821 207.537C296.233 202.97 302.063 197.898 307.821 192.537C308.49 191.934 309.159 191.331 309.849 190.709C332.786 169.131 345.863 136.676 348.102 105.639C348.659 83.5155 341.39 62.0144 326.149 45.771C312.377 31.6979 293.665 24.626 274.071 24.0997C254.44 24.8395 235.381 32.6778 221.884 47.1036C212.777 57.8494 205.191 69.4246 197.897 81.4629C197.295 82.4517 196.692 83.4404 196.071 84.459C195.275 85.7831 195.275 85.7831 194.462 87.1338C192.041 90.6803 190.203 93.2067 185.946 94.2247C180.651 93.0598 178.163 88.5627 175.265 84.1868C173.651 81.5904 172.075 78.9744 170.509 76.3497C157.652 55.2321 142.291 33.8945 117.157 27.2129C97.4916 22.5061 78.9577 23.995 60.8212 33.5372C43.492 44.2955 31.2202 61.0249 26.0712 80.7872C20.2821 106.331 26.2688 131.529 39.8212 153.537C47.1495 165.055 55.6632 175.442 64.8212 185.537C65.3265 186.099 65.8318 186.661 66.3525 187.239C75.5625 197.463 85.0313 207.619 95.5321 216.533C98.8697 219.455 102.087 222.501 105.321 225.537C111.042 230.9 116.811 236.17 122.817 241.213C123.458 241.753 124.099 242.293 124.759 242.85C125.325 243.32 125.891 243.791 126.474 244.275C128.848 246.499 128.826 247.674 128.946 251.006C128.882 256.047 128.36 261.029 127.821 266.037C127.726 266.955 127.63 267.873 127.532 268.818C127.299 271.058 127.062 273.298 126.821 275.537C123.843 274.113 121.842 272.758 119.571 270.35C117.173 267.88 114.74 265.536 112.134 263.287C107.124 258.963 102.271 254.472 97.4032 249.99C95.8282 248.544 94.2476 247.104 92.665 245.666C87.5391 241.003 82.5147 236.279 77.6532 231.338C75.9138 229.628 74.1203 228.049 72.2587 226.475C63.4915 218.925 55.0383 210.503 47.5946 201.643C46.1714 199.953 44.7093 198.296 43.2353 196.65C25.469 176.705 10.9793 154.428 3.82121 128.537C3.48219 127.355 3.14316 126.173 2.79386 124.955C-3.45402 99.3014 0.967818 70.9319 14.1493 48.17C23.8567 32.8832 35.8998 20.273 51.8212 11.5372C52.4166 11.2099 53.012 10.8826 53.6254 10.5455C82.8342 -5.09902 116.454 -2.68535 144.821 13.5372Z" fill="#FCFCFC"/>
<path d="M419.759 38.3495C420.557 38.3372 421.356 38.325 422.179 38.3123C430.161 38.2925 430.161 38.2925 433.821 40.537C437.258 45.1791 438.557 50.6269 440.177 56.0877C440.483 57.1017 440.79 58.1156 441.105 59.1603C442.08 62.3881 443.044 65.6187 444.009 68.8495C444.669 71.043 445.33 73.2364 445.991 75.4295C447.608 80.7965 449.218 86.1658 450.821 91.537C452.597 88.8727 453.384 87.1237 454.286 84.129C454.556 83.2412 454.827 82.3534 455.105 81.4387C455.392 80.4824 455.678 79.5261 455.974 78.5409C456.591 76.518 457.209 74.4952 457.827 72.4725C458.795 69.2825 459.761 66.0918 460.723 62.9C461.654 59.8198 462.594 56.7427 463.536 53.6659C463.821 52.7116 464.105 51.7573 464.398 50.7742C464.672 49.8832 464.945 48.9923 465.227 48.0743C465.463 47.2928 465.699 46.5113 465.942 45.7062C466.934 43.2587 468.063 41.5062 469.821 39.537C473.741 38.2303 477.486 38.3527 481.571 38.3495C482.751 38.3311 482.751 38.3311 483.954 38.3123C488.962 38.2999 493.104 38.8132 497.821 40.537C500.545 43.2604 500.255 45.0231 500.567 48.8416C500.651 49.8231 500.651 49.8231 500.736 50.8244C500.92 53.0196 501.09 55.2156 501.259 57.412C501.384 58.965 501.509 60.5179 501.635 62.0709C501.975 66.3177 502.298 70.5656 502.617 74.8141C502.825 77.5928 503.037 80.3713 503.249 83.1497C503.612 87.9417 503.963 92.7345 504.306 97.528C504.439 99.3743 504.573 101.22 504.711 103.066C505.464 113.29 505.957 123.484 506.028 133.736C506.046 135.162 506.046 135.162 506.064 136.617C506.064 137.494 506.063 138.371 506.063 139.274C506.065 140.05 506.067 140.827 506.069 141.627C505.821 143.537 505.821 143.537 503.821 145.537C500.005 146.946 495.905 146.831 491.884 146.912C491.181 146.949 490.477 146.987 489.753 147.025C486.131 147.086 484.109 146.741 481.136 144.635C477.887 140.287 478.014 136.756 477.931 131.451C477.896 130.476 477.861 129.501 477.825 128.496C477.718 125.385 477.643 122.274 477.571 119.162C477.478 116.058 477.378 112.953 477.275 109.849C477.213 107.921 477.159 105.992 477.111 104.063C476.978 99.1374 476.635 94.3979 475.821 89.537C475.454 90.7831 475.086 92.0292 474.707 93.3131C473.335 97.9492 471.941 102.579 470.542 107.207C469.94 109.208 469.343 111.211 468.753 113.215C467.901 116.102 467.029 118.982 466.153 121.861C465.895 122.754 465.636 123.647 465.37 124.567C463.777 129.718 462.237 133.13 457.821 136.537C454.411 137.131 454.411 137.131 450.759 137.037C449.551 137.027 448.343 137.016 447.099 137.006C443.402 136.477 442.404 136.176 439.821 133.537C438.464 130.598 437.554 127.547 436.622 124.451C436.341 123.557 436.061 122.663 435.772 121.742C434.879 118.886 434.007 116.024 433.134 113.162C432.535 111.242 431.936 109.323 431.335 107.404C430.238 103.878 429.142 100.352 428.065 96.8206C427.848 96.1124 427.631 95.4042 427.408 94.6746C426.76 92.3129 426.276 89.9427 425.821 87.537C425.787 88.4157 425.787 88.4157 425.752 89.3121C425.513 95.4283 425.269 101.544 425.022 107.66C424.93 109.94 424.84 112.221 424.751 114.501C424.623 117.785 424.49 121.069 424.356 124.353C424.298 125.874 424.298 125.874 424.239 127.426C423.661 141.338 423.661 141.338 421.509 144.412C417.412 147.143 412.582 146.752 407.821 146.787C407.11 146.808 406.398 146.828 405.665 146.849C402.653 146.872 400.307 146.789 397.607 145.388C395.821 143.537 395.821 143.537 395.391 140.877C395.427 139.791 395.463 138.705 395.5 137.586C395.537 136.327 395.573 135.069 395.611 133.772C395.678 132.36 395.748 130.948 395.821 129.537C395.856 128.805 395.89 128.074 395.925 127.32C396.207 121.46 396.573 115.606 396.958 109.752C397.018 108.833 397.078 107.914 397.14 106.968C397.457 102.125 397.781 97.282 398.11 92.4395C398.38 88.4474 398.636 84.4548 398.881 80.461C399.178 75.6064 399.498 70.7538 399.834 65.9017C399.958 64.0614 400.074 62.2206 400.181 60.3793C400.333 57.8126 400.515 55.2495 400.703 52.6851C400.741 51.9303 400.779 51.1755 400.818 50.3977C401.139 46.4788 401.731 44.6463 404.263 41.5778C409.033 37.7722 413.894 38.3542 419.759 38.3495Z" fill="#FCFCFC"/>
<path d="M309.821 58.5371C311.821 59.5371 311.821 59.5371 312.638 61.4277C313.007 62.5956 313.007 62.5956 313.384 63.7871C313.633 64.5554 313.881 65.3237 314.138 66.1152C320.219 87.6593 314.339 113.225 303.769 132.451C286.269 162.581 258.697 181.522 229.438 198.939C228.787 199.328 228.136 199.716 227.465 200.116C224.234 202.043 220.999 203.963 217.754 205.868C205.022 213.391 193.013 221.85 181.821 231.537C180.889 232.341 180.889 232.341 179.938 233.162C164.137 247.861 152.973 271.296 151.616 292.789C151.561 294.501 151.561 294.501 151.505 296.248C151.442 298.114 151.442 298.114 151.378 300.018C151.339 301.303 151.299 302.588 151.259 303.912C151.216 305.221 151.172 306.529 151.128 307.877C151.022 311.097 150.92 314.317 150.821 317.537C141.638 310.325 137.562 300.008 135.821 288.537C133.663 258.626 143.326 228.097 162.688 205.072C173.223 193.009 184.655 182.64 197.821 173.537C198.433 173.113 199.045 172.688 199.675 172.251C207.77 166.673 216.091 161.447 224.411 156.213C279.056 122.522 279.056 122.522 308.821 67.5371C309.316 64.5152 309.614 61.5966 309.821 58.5371Z" fill="#FCFCFC"/>
<path d="M601.08 178.165C601.911 178.159 602.743 178.152 603.6 178.146C604.491 178.155 605.383 178.164 606.302 178.174C607.229 178.173 608.157 178.173 609.112 178.172C611.075 178.175 613.038 178.184 615 178.201C617.981 178.224 620.96 178.222 623.94 178.215C625.853 178.221 627.765 178.228 629.677 178.236C630.558 178.235 631.44 178.235 632.348 178.234C641.412 178.336 649.713 179.564 656.821 185.537C663.258 192.701 664.196 198.332 664.036 207.861C663.616 215.049 660.64 219.366 655.821 224.537C653.509 226.412 653.509 226.412 651.821 227.537C652.832 228.032 653.843 228.527 654.884 229.037C660.28 232.13 664.579 236.587 667.001 242.338C669.199 250.911 669.181 261.625 664.821 269.537C660.214 276.505 654.598 280.226 646.478 282.069C643.967 282.512 641.656 282.683 639.11 282.714C638.206 282.727 637.302 282.74 636.37 282.753C635.405 282.76 634.44 282.768 633.446 282.775C632.444 282.784 631.442 282.792 630.41 282.8C628.295 282.814 626.18 282.824 624.065 282.832C621.903 282.844 619.74 282.864 617.577 282.894C614.45 282.936 611.324 282.953 608.196 282.963C607.232 282.98 606.267 282.998 605.273 283.016C604.369 283.013 603.464 283.01 602.532 283.007C601.741 283.013 600.95 283.019 600.135 283.025C596.659 282.292 595.176 281.215 592.821 278.537C592.083 275.437 592.148 272.401 592.19 269.226C592.183 268.285 592.176 267.343 592.169 266.372C592.152 263.259 592.171 260.147 592.192 257.033C592.192 254.871 592.189 252.71 592.185 250.548C592.182 246.017 592.197 241.488 592.224 236.957C592.259 231.144 592.252 225.331 592.234 219.518C592.223 215.055 592.232 210.591 592.247 206.128C592.252 203.984 592.252 201.84 592.246 199.696C592.24 196.703 592.26 193.711 592.288 190.719C592.281 189.829 592.275 188.939 592.268 188.022C592.361 182.071 592.361 182.071 594.589 179.487C596.947 178.484 598.526 178.163 601.08 178.165Z" fill="#FCFCFC"/>
<path d="M808.821 207.537C811.013 209.739 812.961 212.051 814.821 214.537C815.873 213.423 815.873 213.423 816.946 212.287C823.817 205.715 829.107 204.16 838.392 204.264C845.094 204.798 850.618 206.816 855.259 211.787C861.365 219.151 861.254 227.645 861.185 236.717C861.185 238.591 861.185 238.591 861.186 240.502C861.183 243.799 861.166 247.096 861.144 250.393C861.13 253.093 861.136 255.792 861.141 258.492C861.145 261.713 861.133 264.933 861.122 268.154C861.123 269.366 861.124 270.577 861.125 271.825C861.115 272.94 861.106 274.056 861.096 275.205C861.089 276.681 861.089 276.681 861.082 278.187C860.821 280.537 860.821 280.537 858.821 282.537C855.023 283.578 851.309 283.732 847.384 283.787C846.292 283.813 845.2 283.839 844.075 283.865C840.397 283.494 838.063 282.252 834.821 280.537C834.815 279.957 834.81 279.377 834.803 278.78C834.74 272.745 834.655 266.711 834.559 260.676C834.526 258.424 834.498 256.172 834.475 253.919C834.441 250.682 834.389 247.446 834.333 244.209C834.327 243.202 834.32 242.194 834.314 241.156C834.294 240.216 834.274 239.275 834.254 238.306C834.243 237.48 834.231 236.654 834.22 235.802C833.721 232.97 832.83 231.581 830.821 229.537C827.279 229.037 827.279 229.037 823.821 229.537C821.35 232.008 821.567 232.722 821.55 236.123C821.54 237.074 821.53 238.025 821.519 239.005C821.517 240.035 821.515 241.066 821.513 242.127C821.487 244.294 821.462 246.462 821.436 248.629C821.408 252.057 821.384 255.485 821.365 258.913C821.343 262.214 821.304 265.514 821.263 268.814C821.263 269.843 821.262 270.871 821.262 271.93C821.249 272.885 821.236 273.839 821.222 274.822C821.217 275.662 821.212 276.502 821.207 277.368C820.735 280.021 819.912 280.891 817.821 282.537C814.298 283.895 810.619 283.705 806.884 283.725C805.076 283.746 805.076 283.746 803.231 283.768C799.748 283.532 796.393 283.109 793.821 280.537C793.709 279.116 793.665 277.69 793.648 276.264C793.634 275.356 793.621 274.449 793.607 273.513C793.596 272.525 793.586 271.536 793.575 270.518C793.542 268.443 793.509 266.368 793.476 264.293C793.428 261.008 793.384 257.723 793.344 254.437C793.305 251.276 793.253 248.116 793.2 244.955C793.192 243.973 793.183 242.99 793.175 241.978C793.15 240.602 793.15 240.602 793.124 239.198C793.114 238.393 793.104 237.587 793.093 236.758C792.789 234.273 792.143 232.654 790.821 230.537C788.082 229.168 785.85 229.411 782.821 229.537C782.161 229.867 781.501 230.197 780.821 230.537C780.491 247.037 780.161 263.537 779.821 280.537C773.754 283.137 771.387 283.95 765.196 283.912C763.29 283.924 763.29 283.924 761.345 283.936C757.364 283.485 754.675 282.391 751.821 279.537C751.706 277.345 751.662 275.149 751.644 272.954C751.638 272.266 751.631 271.578 751.624 270.869C751.605 268.584 751.593 266.299 751.583 264.014C751.579 263.235 751.575 262.456 751.571 261.654C751.55 257.533 751.535 253.413 751.526 249.292C751.515 245.029 751.481 240.766 751.441 236.503C751.415 233.232 751.406 229.96 751.403 226.688C751.398 225.116 751.386 223.544 751.368 221.973C751.343 219.775 751.344 217.578 751.351 215.379C751.345 214.128 751.34 212.876 751.333 211.587C751.821 208.537 751.821 208.537 753.659 206.634C756.616 205.134 758.956 205.139 762.259 205.162C763.371 205.154 764.484 205.147 765.63 205.139C769.148 205.578 771.028 206.382 773.821 208.537C775.134 211.725 775.134 211.725 775.821 214.537C776.378 213.609 776.935 212.681 777.509 211.725C784.229 202.462 799.49 201.634 808.821 207.537Z" fill="#FCFCFC"/>
<path d="M448.853 177.139C449.581 177.135 450.309 177.131 451.06 177.127C451.806 177.139 452.552 177.15 453.321 177.162C454.068 177.151 454.814 177.139 455.583 177.127C456.311 177.131 457.04 177.135 457.79 177.139C458.771 177.144 458.771 177.144 459.772 177.149C462.872 177.736 464.396 178.451 466.821 180.537C467.585 183.695 467.452 186.824 467.389 190.057C467.39 191.033 467.39 192.009 467.391 193.014C467.388 196.245 467.349 199.475 467.31 202.705C467.3 204.943 467.293 207.181 467.288 209.418C467.269 215.312 467.22 221.206 467.165 227.099C467.114 233.112 467.091 239.124 467.065 245.137C467.012 256.937 466.926 268.737 466.821 280.537C459.863 283.618 454.153 285.161 446.821 282.412C444.279 280.029 443.639 277.883 442.821 274.537C442.12 275.465 441.419 276.393 440.696 277.35C436.442 282.445 431.292 284.092 424.86 284.732C416.758 285.159 409.94 282.499 403.571 277.537C394.913 269.369 391.923 257.934 391.49 246.458C391.252 234.168 394.079 222.883 402.567 213.635C408.65 207.846 415.49 204.439 423.946 204.037C429.801 204.277 434.681 206.397 438.821 210.537C438.825 209.644 438.83 208.751 438.834 207.831C438.861 204.515 438.91 201.2 438.974 197.885C438.997 196.45 439.011 195.015 439.017 193.581C439.026 191.517 439.067 189.456 439.114 187.393C439.138 185.531 439.138 185.531 439.162 183.632C439.821 180.537 439.821 180.537 442.114 178.634C444.591 177.63 446.214 177.152 448.853 177.139Z" fill="#FCFCFC"/>
<path d="M667.071 38.1387C668.231 38.1329 668.231 38.1329 669.415 38.127C670.209 38.1386 671.003 38.1502 671.821 38.1621C672.615 38.1505 673.409 38.1389 674.227 38.127C675.001 38.1308 675.774 38.1347 676.571 38.1387C677.615 38.1437 677.615 38.1437 678.681 38.1489C681.725 38.701 683.443 39.5363 685.821 41.5371C686.481 44.7234 686.481 44.7234 686.528 48.6113C686.543 49.2952 686.558 49.979 686.574 50.6835C686.617 52.8642 686.626 55.0435 686.634 57.2246C686.657 58.7045 686.682 60.1843 686.71 61.6641C686.773 65.2884 686.805 68.9122 686.821 72.5371C688.213 71.578 688.213 71.578 689.634 70.5996C696.369 66.2415 704.08 67.0185 711.821 67.5371C718.159 68.935 721.183 72.7169 724.595 78.0254C728.175 85.3573 728.156 92.3268 728.192 100.365C728.201 101.591 728.21 102.817 728.22 104.08C728.234 106.662 728.243 109.244 728.247 111.826C728.259 115.788 728.308 119.748 728.358 123.709C728.368 126.219 728.375 128.73 728.38 131.24C728.399 132.428 728.419 133.615 728.439 134.839C728.433 135.937 728.427 137.035 728.421 138.167C728.426 139.134 728.431 140.101 728.436 141.097C727.821 143.537 727.821 143.537 725.419 145.349C722.861 146.519 721.314 146.912 718.536 146.9C717.369 146.899 717.369 146.899 716.179 146.898C715.38 146.882 714.581 146.866 713.759 146.85C712.956 146.853 712.154 146.856 711.327 146.859C707.148 146.821 704.555 146.496 700.821 144.537C700.815 143.972 700.809 143.407 700.803 142.824C700.739 136.935 700.655 131.047 700.559 125.158C700.526 122.962 700.497 120.765 700.475 118.568C700.441 115.407 700.389 112.248 700.333 109.088C700.327 108.108 700.32 107.127 700.314 106.117C700.185 99.3292 700.185 99.3292 696.821 93.5371C693.952 92.7248 691.855 93.2 688.821 93.5371C686.635 95.3115 686.635 95.3115 686.576 97.5797C686.578 98.4189 686.58 99.2581 686.582 100.123C686.576 101.55 686.576 101.55 686.57 103.005C686.575 104.035 686.579 105.066 686.583 106.127C686.567 108.294 686.551 110.462 686.534 112.629C686.518 116.057 686.509 119.485 686.516 122.913C686.518 126.214 686.49 129.514 686.458 132.814C686.468 133.843 686.478 134.871 686.489 135.93C686.453 138.559 686.374 140.967 685.821 143.537C682.951 146.245 680.459 146.917 676.571 146.936C675.411 146.941 675.411 146.941 674.227 146.947C673.036 146.93 673.036 146.93 671.821 146.912C671.027 146.924 670.233 146.935 669.415 146.947C668.642 146.943 667.868 146.94 667.071 146.936C666.375 146.932 665.679 146.929 664.962 146.925C661.805 146.353 660.284 145.665 657.821 143.537C657.033 140.338 657.139 137.161 657.174 133.881C657.161 132.395 657.161 132.395 657.148 130.879C657.126 127.598 657.14 124.318 657.157 121.037C657.154 118.762 657.149 116.486 657.143 114.211C657.135 109.439 657.146 104.668 657.169 99.8965C657.198 93.7724 657.181 87.6495 657.151 81.5255C657.133 76.8261 657.139 72.1269 657.152 67.4275C657.155 65.1692 657.151 62.9109 657.14 60.6526C657.127 57.4989 657.146 54.3469 657.174 51.1934C657.164 50.2551 657.154 49.3168 657.144 48.3501C657.183 45.9717 657.252 43.8466 657.821 41.5371C660.796 38.9666 663.178 38.1576 667.071 38.1387Z" fill="#FCFCFC"/>
<path d="M535.134 209.912C545.466 216.904 550.234 226.546 552.821 238.537C554.222 250.954 550.799 262.676 543.509 272.725C535.14 281.483 525.232 284.682 513.196 285.037C501.967 284.69 492.882 280.935 485.138 272.76C476.816 262.611 475.773 251.406 476.598 238.749C477.603 228.791 482.334 219.205 489.993 212.689C503.646 203.109 520.531 201.26 535.134 209.912Z" fill="#FCFCFC"/>
<path d="M792.157 71.0489C798.586 76.2128 800.694 81.4324 801.821 89.5371C801.965 92.0639 802.067 94.5932 802.138 97.1231C802.158 97.8249 802.179 98.5266 802.201 99.2497C802.265 101.47 802.325 103.691 802.384 105.912C802.427 107.426 802.471 108.941 802.515 110.455C802.621 114.149 802.723 117.843 802.821 121.537C805.461 122.527 808.101 123.517 810.821 124.537C810.929 127.288 811.009 130.035 811.071 132.787C811.105 133.564 811.138 134.342 811.173 135.143C811.272 140.925 811.272 140.925 809.005 144.006C803.65 147.761 797.17 148.279 790.821 147.537C785.464 145.617 782.363 142.62 779.821 137.537C779.264 138.3 778.707 139.063 778.134 139.85C774.895 143.614 771.67 145.605 766.821 146.537C750.205 147.705 750.205 147.705 743.821 142.537C738.648 137.743 735.239 132.567 734.505 125.486C734.221 117.548 734.995 111.892 740.294 105.861C748.173 98.3544 756.916 97.0925 767.403 97.2012C770.62 97.5173 772.922 98.1566 775.821 99.5371C775.566 97.9096 775.291 96.2851 775.009 94.6621C774.858 93.7572 774.707 92.8523 774.552 91.9199C773.991 89.193 773.991 89.193 770.821 87.5371C768.303 87.2614 768.303 87.2614 765.497 87.3418C764.469 87.3483 763.441 87.3547 762.382 87.3614C761.31 87.3781 760.238 87.3949 759.134 87.4121C757.509 87.4257 757.509 87.4257 755.851 87.4395C753.174 87.4631 750.498 87.496 747.821 87.5371C742.849 79.2631 742.849 79.2631 743.821 73.5371C752.581 62.2747 781.258 63.9951 792.157 71.0489Z" fill="#FCFCFC"/>
<path d="M568.849 71.7169C576.385 77.2911 580.367 87.5233 581.821 96.5372C582.387 103.032 581.895 107.759 578.821 113.537C577.821 114.537 577.821 114.537 574.219 114.651C572.617 114.651 571.014 114.645 569.411 114.635C568.569 114.633 567.727 114.632 566.86 114.631C564.159 114.625 561.459 114.612 558.759 114.6C556.933 114.595 555.106 114.59 553.28 114.586C548.794 114.575 544.308 114.558 539.821 114.537C541.067 119.661 541.067 119.661 543.966 123.951C547.546 125.94 550.524 126.063 554.509 125.912C555.212 125.899 555.915 125.886 556.64 125.873C562.169 125.711 567.471 124.978 572.821 123.537C576.079 129.005 577.87 133.137 576.821 139.537C571.737 145.404 565.485 147.272 557.884 147.822C546.796 148.175 535.454 147.755 526.63 140.252C526.033 139.686 525.436 139.12 524.821 138.537C524.194 137.961 523.566 137.385 522.919 136.791C514.925 128.662 513.421 119.108 513.259 108.1C513.378 95.3588 516.425 85.942 525.489 76.6974C538.172 64.9496 553.52 62.7973 568.849 71.7169Z" fill="#FCFCFC"/>
<path d="M730.661 209.6C737.667 214.734 741.304 224.258 742.821 232.537C743.414 239.422 743.876 245.698 739.821 251.537C738.821 252.537 738.821 252.537 735.311 252.651C733.751 252.65 732.19 252.645 730.63 252.635C729.81 252.633 728.99 252.632 728.146 252.63C725.517 252.625 722.888 252.612 720.259 252.6C718.481 252.595 716.703 252.59 714.925 252.586C710.557 252.575 706.189 252.558 701.821 252.537C702.266 253.642 702.711 254.747 703.169 255.885C703.419 256.506 703.669 257.128 703.927 257.768C705.601 261.08 707.459 262.062 710.821 263.537C718.897 264.576 726.169 263.068 733.821 260.537C736.99 265.191 738.626 268.754 738.325 274.459C737.628 277.333 736.123 278.921 733.685 280.541C733.07 280.87 732.455 281.198 731.821 281.537C731.237 281.855 730.653 282.174 730.052 282.502C719.979 286.813 705.5 285.937 695.505 281.986C685.48 276.573 680.246 268.795 676.72 258.24C673.838 246.361 675.007 232.582 681.329 222.018C693.692 205.14 711.504 198.537 730.661 209.6Z" fill="#FCFCFC"/>
<path d="M864.821 69.537C867.446 71.2245 867.446 71.2245 868.821 73.537C868.821 79.3933 867.292 84.7384 863.821 89.537C860.409 90.6744 859.172 90.0652 855.864 89.0214C851.729 88.041 846.681 87.6071 842.821 89.537C842.739 91.458 842.739 91.458 843.821 93.537C846.331 94.8186 848.702 95.854 851.321 96.8495C859.358 100.143 868.178 104.069 872.231 112.326C873.977 118.867 874.064 126.707 871.321 132.975C867.036 139.947 860.726 144.419 852.989 146.873C840.729 149.443 829.199 147.421 817.821 142.537C815.497 140.871 814.948 140.13 814.353 137.338C814.28 131.584 815.188 127.863 818.337 123.033C820.184 121.172 821.211 120.744 823.821 120.537C826.075 121.279 826.075 121.279 828.384 122.412C833.452 124.856 837.117 125.744 842.821 125.537C843.811 125.042 843.811 125.042 844.821 124.537C844.821 122.887 844.821 121.237 844.821 119.537C843.759 119.041 842.697 118.544 841.603 118.033C820.94 108.177 820.94 108.177 816.571 97.4745C814.919 90.8931 815.611 83.951 819.071 78.0995C828.415 65.1401 850.884 61.8712 864.821 69.537Z" fill="#FCFCFC"/>
<path d="M647.075 70.9435C648.821 72.5372 648.821 72.5372 649.259 75.7247C648.484 82.4758 646.428 87.4543 641.821 92.5372C641.058 92.3722 640.295 92.2072 639.509 92.0372C630.438 90.7358 630.438 90.7358 621.821 93.0372C617.915 97.9208 616.245 103.269 616.54 109.522C617.267 114.731 618.602 118.376 622.446 122.037C629.346 125.104 635.798 123.58 642.821 121.537C643.805 122.972 644.783 124.41 645.759 125.85C646.304 126.65 646.849 127.451 647.411 128.276C649.958 132.36 650.321 135.791 649.821 140.537C645.947 144.896 640.185 147.103 634.459 147.842C631.947 147.974 629.462 148.004 626.946 147.975C626.065 147.969 625.183 147.962 624.274 147.956C617.783 147.8 612.476 146.895 606.821 143.537C605.244 142.671 605.244 142.671 603.634 141.787C596.575 136.14 592.546 130.149 589.821 121.537C589.628 120.934 589.435 120.331 589.235 119.709C586.922 107.574 588.726 94.3471 594.946 83.7247C600.98 74.9277 609.384 69.5204 619.634 66.7872C629.186 66.0381 638.657 65.6913 647.075 70.9435Z" fill="#FCFCFC"/>
<path d="M228.821 237.537C229.481 237.867 230.141 238.197 230.821 238.537C230.132 239.082 229.442 239.628 228.732 240.189C207.211 257.459 188.429 281.864 184.032 309.904C182.83 324.912 184.676 338.325 189.821 352.537C185.936 349.148 183.934 345.397 181.696 340.85C181.35 340.18 181.003 339.51 180.646 338.82C174.069 325.628 173.825 308.88 177.653 294.787C181.564 283.906 186.932 274.04 194.821 265.537C195.293 265.02 195.764 264.502 196.249 263.969C205.527 253.873 216.452 243.722 228.821 237.537Z" fill="#A73AA7"/>
<path d="M437.503 227.68C439.821 229.537 439.821 229.537 440.437 232.309C440.429 233.405 440.422 234.501 440.415 235.631C440.412 236.826 440.41 238.021 440.407 239.252C440.365 241.126 440.365 241.126 440.321 243.037C440.325 244.911 440.325 244.911 440.329 246.822C440.23 255.983 440.23 255.983 438.48 258.356C434.799 260.978 431.183 260.981 426.821 260.537C422.516 257.694 420.339 255.424 418.821 250.537C418.21 244.52 417.601 237.847 420.509 232.35C425.223 226.616 430.353 224.633 437.503 227.68Z" fill="#A73AA7"/>
<path d="M517.954 228.854C520.971 229.958 522.217 231.842 523.821 234.537C525.922 240.839 526.042 249.482 523.571 255.725C520.842 260.111 520.842 260.111 517.821 261.537C513.469 262.17 511.59 262.101 508.009 259.475C503.549 253.485 503.076 246.781 503.821 239.537C504.75 235.721 506.409 233.009 509.009 230.037C512.375 228.242 514.262 228.178 517.954 228.854Z" fill="#A73AA7"/>
<path d="M621.821 239.537C632.799 240.269 632.799 240.269 636.821 243.537C639.322 247.288 639.357 249.096 638.821 253.537C636.28 256.697 634.675 258.253 630.821 259.537C627.851 259.537 624.881 259.537 621.821 259.537C621.821 252.937 621.821 246.337 621.821 239.537Z" fill="#A73AA7"/>
<path d="M620.821 201.537C630.591 201.1 630.591 201.1 634.821 204.537C636.367 207.629 636.115 210.131 635.821 213.537C634.062 215.925 632.744 217.156 630.009 218.287C626.965 218.635 623.885 218.537 620.821 218.537C620.821 212.927 620.821 207.317 620.821 201.537Z" fill="#A73AA7"/>
<path d="M775.821 112.537C775.902 114.307 775.961 116.079 776.009 117.85C776.061 119.329 776.061 119.329 776.114 120.838C775.821 123.537 775.821 123.537 774.552 125.33C771.518 127.447 768.474 127.878 764.821 127.537C761.759 125.537 761.759 125.537 759.821 122.537C759.696 118.912 759.696 118.912 760.821 115.537C764.947 111.412 770.378 112.252 775.821 112.537Z" fill="#A73AA7"/>
<path d="M553.821 87.5372C556.259 89.6622 556.259 89.6622 557.821 92.5372C557.821 94.8472 557.821 97.1572 557.821 99.5372C551.881 99.5372 545.941 99.5372 539.821 99.5372C540.968 91.5067 540.968 91.5067 544.821 87.5372C548.043 85.9264 550.397 86.7106 553.821 87.5372Z" fill="#A73AA7"/>
<path d="M715.821 224.537C718.321 226.6 718.321 226.6 719.821 229.537C719.821 231.847 719.821 234.157 719.821 236.537C713.881 236.537 707.941 236.537 701.821 236.537C702.821 229.537 702.821 229.537 704.884 226.6C709.003 223.707 710.859 223.749 715.821 224.537Z" fill="#A73AA7"/>
<path d="M309.821 58.5371C310.811 59.0321 310.811 59.0321 311.821 59.5371C312.552 61.8512 313.223 64.1854 313.821 66.5371C312.501 66.2071 311.181 65.8771 309.821 65.5371C309.821 63.2271 309.821 60.9171 309.821 58.5371Z" fill="#FCFCFC"/>
</svg>
