<svg width="267" height="332" viewBox="0 0 267 332" fill="none" xmlns="http://www.w3.org/2000/svg">
<path d="M71.2617 44.1958L76.7494 121.925C77.1841 128.041 79.9214 133.766 84.4095 137.945C88.8977 142.123 94.8031 144.445 100.935 144.443C104.255 144.443 107.539 143.762 110.584 142.441C113.629 141.12 116.371 139.188 118.638 136.764C120.906 134.34 122.651 131.476 123.767 128.349C124.882 125.223 125.343 121.901 125.121 118.589C124.638 111.191 124.196 105.136 124.196 105.136C124.196 105.136 143.019 102.209 143.253 83.3938C143.386 72.5518 141.509 47.8654 139.917 28.9753C139.39 22.8155 136.571 17.0776 132.016 12.897C127.462 8.7163 121.504 6.39736 115.322 6.39893H103.921C99.2713 6.67013 94.7231 7.87147 90.5459 9.93183C86.3687 11.9922 82.6473 14.8697 79.602 18.394C76.5568 21.9183 74.2496 26.0177 72.817 30.4496C71.3843 34.8815 70.8555 39.5558 71.2617 44.1958Z" fill="#B78876"/>
<path d="M124.212 104.903C124.212 104.903 112.319 105.87 99.6844 97.9304C99.6844 97.9304 105.481 111.475 124.254 109.782L124.212 104.903Z" fill="#AA6550"/>
<path d="M134.037 51.7519C134.044 52.4529 133.776 53.1287 133.292 53.6352C132.807 54.1416 132.144 54.4385 131.443 54.4624C131.102 54.4896 130.758 54.4483 130.433 54.3408C130.108 54.2333 129.807 54.0618 129.549 53.8364C129.291 53.6111 129.081 53.3364 128.931 53.0285C128.78 52.7207 128.693 52.3859 128.674 52.0438C128.667 51.3435 128.933 50.6679 129.416 50.1603C129.898 49.6528 130.56 49.3531 131.26 49.325C131.602 49.2978 131.947 49.3394 132.273 49.4473C132.599 49.5552 132.901 49.7273 133.159 49.9534C133.418 50.1796 133.629 50.4552 133.78 50.764C133.931 51.0729 134.018 51.4088 134.037 51.7519Z" fill="#263238"/>
<path d="M136.639 47.8822C136.305 48.2325 134.27 46.7313 131.385 46.7396C128.499 46.7479 126.381 48.1908 126.055 47.8405C125.905 47.682 126.247 47.0065 127.165 46.3726C128.416 45.5073 129.905 45.05 131.426 45.0633C132.925 45.0571 134.386 45.5306 135.596 46.4143C136.505 47.0982 136.806 47.7321 136.639 47.8822Z" fill="#263238"/>
<path d="M105.823 51.752C105.83 52.453 105.562 53.1288 105.078 53.6353C104.593 54.1417 103.929 54.4386 103.229 54.4625C102.887 54.4897 102.544 54.4484 102.219 54.3409C101.893 54.2334 101.593 54.0619 101.335 53.8365C101.077 53.6112 100.867 53.3365 100.716 53.0286C100.566 52.7208 100.479 52.386 100.46 52.0439C100.453 51.3422 100.72 50.6654 101.205 50.1576C101.689 49.6498 102.352 49.3511 103.054 49.3251C103.396 49.299 103.739 49.3415 104.065 49.4499C104.39 49.5584 104.69 49.7307 104.948 49.9567C105.206 50.1827 105.416 50.4579 105.566 50.7662C105.716 51.0745 105.804 51.4096 105.823 51.752Z" fill="#263238"/>
<path d="M108.225 48.4159C107.891 48.7662 105.848 47.2566 102.962 47.265C100.076 47.2733 97.958 48.7245 97.6327 48.3659C97.4826 48.2074 97.8162 47.5819 98.742 46.9064C99.9962 46.0454 101.482 45.5858 103.004 45.5886C104.5 45.5939 105.958 46.0662 107.174 46.9397C108.083 47.6319 108.383 48.2658 108.225 48.4159Z" fill="#263238"/>
<path d="M118.716 69.8665C118.716 69.6997 120.501 69.3911 123.412 69.0325C124.146 68.9491 124.846 68.8073 124.971 68.2986C125.035 67.537 124.863 66.7742 124.479 66.1135C123.79 64.3288 123.061 62.455 122.294 60.4923C119.267 52.4859 117.065 45.9057 117.39 45.7889C117.715 45.6722 120.434 52.0606 123.47 60.0587C124.198 62.038 124.896 63.9256 125.563 65.7215C125.839 66.5555 126.322 67.5063 125.939 68.6155C125.834 68.8761 125.67 69.1088 125.46 69.2954C125.251 69.4821 125 69.6176 124.729 69.6914C124.322 69.8073 123.901 69.8662 123.478 69.8665C120.543 70.0166 118.725 70.0333 118.716 69.8665Z" fill="#263238"/>
<path d="M110.209 71.8679C110.676 71.8679 110.685 74.9788 113.37 77.2056C116.056 79.4323 119.392 79.0904 119.417 79.5241C119.467 79.7242 118.675 80.1329 117.265 80.1746C115.426 80.2004 113.636 79.5774 112.211 78.4149C110.843 77.2974 109.963 75.6911 109.759 73.9363C109.642 72.6019 109.993 71.8513 110.209 71.8679Z" fill="#263238"/>
<path d="M108.967 37.0902C108.683 37.9242 105.798 37.5072 102.403 37.9242C99.0088 38.3412 96.265 39.2586 95.8146 38.5497C95.6144 38.2161 96.0898 37.4738 97.199 36.7149C98.6739 35.783 100.341 35.1989 102.075 35.0068C103.809 34.8146 105.564 35.0194 107.207 35.6056C108.5 36.106 109.092 36.7399 108.967 37.0902Z" fill="#263238"/>
<path d="M135.58 39.5172C135.071 40.1761 133.078 39.5172 130.684 39.4589C128.291 39.4005 126.264 39.9009 125.797 39.217C125.588 38.8834 125.905 38.2245 126.798 37.599C127.988 36.8536 129.373 36.4793 130.776 36.5238C132.18 36.5684 133.539 37.0298 134.679 37.8492C135.521 38.5164 135.805 39.242 135.58 39.5172Z" fill="#263238"/>
<path d="M77.6417 58.3155C77.3165 58.1737 64.7147 54.4958 65.1317 67.3561C65.5487 80.2164 78.3673 77.1556 78.384 76.7803C78.4007 76.405 77.6417 58.3155 77.6417 58.3155Z" fill="#B78876"/>
<path d="M74.2557 72.0347C74.1973 72.0347 74.0389 72.2015 73.6636 72.385C73.1397 72.6275 72.5429 72.6603 71.9956 72.4767C70.6195 72.018 69.4102 69.8997 69.2684 67.5812C69.2042 66.4798 69.3836 65.3777 69.7938 64.3536C69.9057 63.9438 70.1163 63.5677 70.407 63.258C70.6978 62.9484 71.0599 62.7146 71.4618 62.5772C71.7176 62.5012 71.9919 62.5172 72.2372 62.6223C72.4824 62.7274 72.6831 62.915 72.8045 63.1526C72.988 63.5029 72.913 63.7614 72.9797 63.7865C73.0464 63.8115 73.2549 63.5613 73.1298 63.0275C73.0471 62.7127 72.8587 62.4359 72.596 62.2436C72.4172 62.1146 72.2145 62.0224 71.9998 61.9723C71.785 61.9222 71.5625 61.9152 71.345 61.9517C70.8208 62.074 70.3365 62.3282 69.9381 62.6902C69.5396 63.0521 69.2402 63.5099 69.0682 64.02C68.5609 65.1531 68.3349 66.392 68.4094 67.6312C68.5762 70.2249 69.9773 72.6352 71.8538 73.0856C72.2032 73.1753 72.5683 73.1851 72.922 73.1143C73.2758 73.0436 73.609 72.8941 73.8971 72.6769C74.239 72.3516 74.3057 72.0597 74.2557 72.0347Z" fill="#AA6550"/>
<path d="M70.4527 57.8817C72.4126 57.4064 75.8069 59.2161 76.6409 61.0509C77.4749 62.8857 77.6584 64.9707 78.4924 66.8139C79.3264 68.657 81.2113 70.3083 83.1795 69.8413C83.8445 69.6333 84.4426 69.2528 84.9128 68.7386C85.383 68.2244 85.7087 67.5949 85.8566 66.914C86.1403 65.5398 86.1544 64.1236 85.8983 62.744C85.1394 56.7392 83.8801 50.7844 83.6382 44.7296C83.3963 38.6747 84.2554 32.3947 87.4329 27.2156C90.6104 22.0364 96.4401 18.2667 102.445 18.7588C106.44 19.0757 110.109 21.1607 114.079 21.7195C116.444 22.0323 118.85 21.8021 121.113 21.0463C123.376 20.2906 125.437 19.0291 127.14 17.3577C127.573 16.9323 129.575 15.6063 129.575 15.6063C129.575 15.2977 129.283 12.6122 128.224 11.6281C120.343 4.34728 106.148 2.31232 95.7395 4.9561C85.3312 7.59988 75.5734 14.9641 71.0948 24.6719C66.6163 34.3796 67.9507 48.0239 70.4193 57.8651" fill="#263238"/>
<path d="M140.092 26.1148C140.092 26.1148 90.7356 10.2688 69.3852 52.9362C69.3852 52.9362 66.1909 42.2527 66.1909 36.5231C66.1909 32.695 68.4761 9.91016 91.9282 2.73776C91.9282 2.73776 127.248 -10.7397 140.092 26.1148Z" fill="#6F66BA"/>
<path d="M97.6578 27.1823C98.5346 28.5961 99.7279 29.7869 101.144 30.6609C102.559 31.5348 104.158 32.068 105.815 32.2184C107.472 32.3688 109.141 32.1323 110.691 31.5276C112.241 30.9228 113.629 29.9663 114.746 28.7335C115.237 29.9606 116.1 31.0033 117.213 31.7154C118.326 32.4275 119.634 32.7733 120.954 32.7043C122.274 32.6354 123.539 32.1551 124.572 31.3308C125.605 30.5065 126.354 29.3796 126.714 28.108C128.052 29.5994 129.689 30.7928 131.518 31.6108C133.395 32.303 135.772 32.0362 136.998 30.4682C138.224 28.9003 137.89 26.4233 136.656 24.8054C135.308 23.2755 133.582 22.1254 131.652 21.4694C125.8 18.8962 119.371 17.9234 113.02 18.6505C106.723 19.4845 100.627 22.5536 96.6903 27.5409" fill="#263238"/>
<g opacity="0.4">
<path d="M140.092 26.1148C135.986 21.7879 130.356 19.2302 124.396 18.9841C109.834 18.3419 82.5874 26.5318 69.3518 52.9362C69.3518 52.9362 66.1576 42.2527 66.1576 36.5231C66.1576 32.695 68.4427 9.91016 91.8948 2.73776C91.9282 2.73776 127.248 -10.7397 140.092 26.1148Z" fill="black"/>
</g>
<path d="M71.4451 47.9405C78.7593 36.7398 88.8507 27.4824 100.201 20.4185C111.552 13.3545 130.309 6.32386 143.236 2.90446C147.122 1.8703 151.167 0.969579 155.129 1.65346C159.09 2.33734 162.96 4.98946 163.936 8.86756C165.17 13.7465 156.513 21.2691 152.452 24.2215C148.39 27.1739 140.092 31.519 140.092 31.519C140.092 31.519 140.208 22.4784 125.73 20.6186C106.048 18.0416 71.4451 47.9405 71.4451 47.9405Z" fill="#6F66BA"/>
<path d="M111.927 11.0528C111.927 11.0528 119.033 7.11629 126.181 6.19889C124.987 5.27117 123.685 4.49258 122.302 3.88037C118.423 4.52162 114.672 5.7832 111.194 7.61669L111.927 11.0528Z" fill="#E0E0E0"/>
<path d="M151.985 121.358L136.33 117.905L129.959 116.312L124.654 108.089C124.654 108.089 122.152 122.792 112.653 130.707C111.367 131.759 109.859 132.507 108.243 132.894C106.627 133.281 104.944 133.297 103.321 132.942C101.177 132.491 98.6586 131.941 96.7904 131.441C96.3901 131.332 95.9564 131.19 95.4894 131.024C88.6218 128.473 82.9 123.539 79.3681 117.121C77.2665 113.385 75.49 109.548 76.0988 108.089L68.6679 123.476L24.8829 143.642L0.0213699 204.374L48.2016 218.619L49.7028 268.659L40.6288 331.742L176.929 331.834L172.092 191.48" fill="#6F66BA"/>
<path d="M116.748 175.693C116.47 175.715 116.192 175.715 115.914 175.693L113.487 175.634L104.822 175.326H104.655V175.184C104.513 171.423 104.338 166.969 104.146 162.207C103.921 155.343 103.721 149.138 103.562 144.576C103.512 142.358 103.471 140.548 103.437 139.23C103.437 138.638 103.437 138.154 103.437 137.779C103.416 137.61 103.416 137.439 103.437 137.27C103.476 137.434 103.495 137.602 103.496 137.771C103.496 138.154 103.554 138.605 103.587 139.222C103.654 140.54 103.746 142.349 103.854 144.559C104.038 149.121 104.288 155.326 104.563 162.182C104.73 166.952 104.88 171.406 105.014 175.167L104.83 174.992L113.495 175.451L115.914 175.609C116.194 175.607 116.474 175.635 116.748 175.693Z" fill="#263238"/>
<path d="M109.334 155.418C109.525 155.284 109.751 155.209 109.984 155.201C110.526 155.166 111.066 155.288 111.539 155.553C112.013 155.818 112.4 156.214 112.653 156.694C112.891 157.162 112.976 157.693 112.895 158.212C112.806 158.8 112.548 159.35 112.153 159.794C111.758 160.238 111.242 160.558 110.668 160.714C110.087 160.836 109.484 160.795 108.925 160.597C108.366 160.398 107.873 160.049 107.499 159.588C107.196 159.217 106.984 158.78 106.88 158.312C106.776 157.845 106.782 157.359 106.898 156.894C107.028 156.262 107.341 155.682 107.799 155.226C108.116 154.918 108.35 154.818 108.358 154.843C108.366 154.868 108.191 155.018 107.924 155.343C107.555 155.8 107.305 156.342 107.199 156.919C107.114 157.335 107.124 157.765 107.228 158.176C107.332 158.588 107.527 158.971 107.799 159.296C108.133 159.69 108.565 159.987 109.052 160.157C109.539 160.327 110.062 160.364 110.568 160.264C111.06 160.125 111.503 159.849 111.844 159.468C112.185 159.087 112.411 158.617 112.495 158.112C112.564 157.698 112.517 157.274 112.36 156.885C112.202 156.496 111.94 156.159 111.602 155.91C111.145 155.545 110.578 155.342 109.993 155.335C109.559 155.368 109.334 155.452 109.334 155.418Z" fill="#263238"/>
<path d="M107.858 137.796C108.05 137.627 108.288 137.517 108.541 137.479C109.234 137.332 109.956 137.439 110.576 137.779C111.017 138.004 111.393 138.336 111.669 138.747C111.99 139.227 112.15 139.796 112.128 140.373C112.101 141.031 111.877 141.665 111.484 142.193C111.092 142.722 110.548 143.119 109.926 143.334C109.289 143.496 108.619 143.468 107.999 143.251C107.379 143.034 106.836 142.64 106.44 142.116C106.088 141.664 105.876 141.119 105.831 140.548C105.805 140.056 105.885 139.564 106.064 139.105C106.323 138.452 106.781 137.898 107.374 137.521C107.58 137.366 107.826 137.274 108.083 137.254C108.083 137.254 107.841 137.379 107.474 137.662C106.958 138.059 106.57 138.599 106.356 139.214C106.189 139.654 106.138 140.13 106.208 140.596C106.278 141.062 106.467 141.502 106.757 141.874C107.109 142.324 107.584 142.661 108.124 142.846C108.665 143.031 109.247 143.056 109.801 142.917C110.338 142.726 110.807 142.382 111.149 141.926C111.492 141.471 111.693 140.925 111.727 140.356C111.749 139.889 111.64 139.424 111.412 139.016C111.183 138.608 110.845 138.272 110.435 138.046C109.874 137.716 109.222 137.575 108.575 137.646C108.116 137.704 107.874 137.829 107.858 137.796Z" fill="#263238"/>
<path d="M103.421 205.108C103.421 205.108 103.487 205.066 103.629 205.016L104.255 204.774C104.813 204.582 105.606 204.232 106.615 203.765C109.433 202.344 112.02 200.505 114.288 198.311C117.622 195.028 120.568 191.373 123.07 187.419C126.198 182.612 129.055 177.633 131.627 172.507C136.251 163.163 140.309 153.549 143.778 143.717C145.137 139.947 146.197 136.887 146.939 134.777L147.773 132.341C147.865 132.091 147.948 131.883 148.006 131.716C148.03 131.643 148.061 131.574 148.098 131.507C148.092 131.584 148.075 131.66 148.048 131.732C147.998 131.899 147.931 132.108 147.856 132.375C147.664 132.967 147.406 133.784 147.081 134.877C146.388 137.003 145.371 140.081 144.036 143.859C140.657 153.717 136.64 163.345 132.01 172.682C129.432 177.823 126.558 182.81 123.403 187.619C120.872 191.594 117.883 195.259 114.496 198.536C112.192 200.727 109.558 202.542 106.69 203.915C105.905 204.275 105.101 204.59 104.28 204.858L103.638 205.058C103.568 205.085 103.495 205.102 103.421 205.108Z" fill="#263238"/>
<path d="M132.135 188.453C132.494 188.453 140.792 187.886 140.792 187.886C140.792 187.886 137.364 193.941 133.795 196.226H126.531L132.135 188.453Z" fill="#FAFAFA"/>
<path d="M101.97 223.447C102.112 223.311 102.268 223.191 102.437 223.089L103.838 222.121C105.047 221.287 106.79 220.036 108.883 218.427C113.053 215.233 118.608 210.462 124.546 205.008C127.515 202.281 130.384 199.712 132.836 197.243C135.036 195.079 137.079 192.76 138.949 190.304C140.204 188.648 141.32 186.89 142.285 185.05C142.652 184.408 142.877 183.883 143.052 183.532C143.132 183.348 143.229 183.172 143.344 183.007C143.291 183.199 143.221 183.386 143.136 183.566C142.986 183.924 142.777 184.466 142.435 185.125C141.519 187.008 140.433 188.803 139.191 190.488C137.346 192.985 135.313 195.338 133.111 197.527C130.651 200.029 127.799 202.606 124.829 205.325C118.891 210.779 113.329 215.533 109.067 218.669C106.94 220.245 105.164 221.446 103.929 222.255C103.304 222.655 102.812 222.947 102.478 223.156C102.32 223.272 102.15 223.37 101.97 223.447Z" fill="#263238"/>
<path d="M78.5842 316.13C78.5842 316.13 78.5842 316.055 78.6843 315.93C78.7843 315.805 78.8928 315.605 79.0262 315.379C79.3348 314.904 79.8018 314.203 80.4273 313.319C81.6783 311.568 83.6132 309.099 86.1652 306.197C91.3027 300.434 98.5001 292.569 106.423 283.863L126.848 261.603L133.061 254.931L134.729 253.121L135.179 252.663L135.346 252.512C135.346 252.512 135.305 252.579 135.213 252.688L134.796 253.18L133.128 255.048L127.015 261.845L106.748 284.129L86.3988 306.381C83.8217 309.249 81.8535 311.676 80.5608 313.394C79.9186 314.228 79.4265 314.937 79.1013 315.404L78.726 315.93C78.6842 316 78.6368 316.067 78.5842 316.13Z" fill="#263238"/>
<path d="M150.9 120.974C151.618 122.05 167.73 123.843 171.675 127.779C175.62 131.716 215.043 161.807 215.043 161.807L186.946 199.62L168.815 195.625L150.9 120.974Z" fill="#6F66BA"/>
<path opacity="0.4" d="M210.264 158.137L178.764 197.819L186.946 199.62L215.01 161.765L210.264 158.137Z" fill="black"/>
<path d="M159.482 160.339C159.341 159.908 159.232 159.468 159.157 159.021C159.065 158.596 158.957 158.07 158.882 157.453C158.807 156.836 158.682 156.135 158.64 155.351C158.598 154.567 158.515 153.683 158.515 152.791C158.515 151.899 158.515 150.889 158.59 149.855C158.752 147.606 159.1 145.375 159.632 143.183C160.2 141.003 160.95 138.874 161.876 136.82C162.318 135.886 162.71 134.985 163.185 134.184C163.661 133.384 164.069 132.642 164.495 131.983C164.92 131.324 165.328 130.757 165.695 130.248C165.999 129.812 166.324 129.391 166.671 128.989C166.944 128.626 167.249 128.289 167.58 127.979C167.353 128.37 167.093 128.741 166.805 129.089C166.546 129.439 166.229 129.864 165.896 130.39C165.562 130.915 165.137 131.474 164.753 132.149C164.369 132.825 163.919 133.542 163.502 134.36C163.085 135.177 162.668 136.028 162.243 136.978C161.364 139.024 160.645 141.135 160.091 143.292C159.572 145.455 159.217 147.655 159.032 149.872C158.973 150.898 158.898 151.874 158.923 152.783C158.948 153.692 158.923 154.542 158.99 155.285C159.057 156.027 159.107 156.761 159.165 157.378C159.224 157.995 159.299 158.521 159.365 158.946C159.449 159.405 159.488 159.872 159.482 160.339Z" fill="#263238"/>
<path d="M172.092 191.43C170.801 188.926 169.64 186.357 168.614 183.733C167.453 181.168 166.423 178.546 165.529 175.876C166.82 178.379 167.984 180.945 169.015 183.566C170.179 186.131 171.206 188.756 172.092 191.43Z" fill="#263238"/>
<path d="M48.2015 163.958C48.1348 163.958 47.4593 162.749 46.1833 160.873C44.5183 158.428 42.6128 156.157 40.4954 154.092C38.3673 152.043 36.0432 150.208 33.5565 148.613C31.6383 147.395 30.379 146.761 30.4123 146.695C30.732 146.783 31.0399 146.909 31.3297 147.07C32.1459 147.458 32.942 147.886 33.715 148.354C36.2804 149.883 38.6594 151.705 40.804 153.784C42.9413 155.868 44.8329 158.191 46.4418 160.706C47.0506 161.673 47.5093 162.474 47.7929 163.049C47.9659 163.334 48.1032 163.64 48.2015 163.958Z" fill="#263238"/>
<path opacity="0.4" d="M0.0213699 204.349L1.96459 199.62L55.2572 214.132L53.1472 220.061L0.0213699 204.349Z" fill="black"/>
<path d="M142.293 185.659H162.585V193.999L136.622 193.832C136.622 193.832 140.634 189.003 142.293 185.659Z" fill="#FAFAFA"/>
<g opacity="0.2">
<path d="M69.9189 125.311C70.6528 131.816 71.4535 138.53 74.6727 144.234C77.892 149.939 84.1886 154.434 90.6688 153.475C94.9889 152.833 98.6502 149.947 101.594 146.711C104.538 143.475 107.007 139.814 110.218 136.853C112.16 138.945 114.33 140.811 116.69 142.416C119.073 144.031 121.935 144.786 124.804 144.559C127.632 144.218 129.191 143.092 130.084 140.389C127.065 141.324 125.405 141.182 122.394 140.606C119.07 139.969 115.948 138.538 113.295 136.436C111.527 135.044 110.885 132.95 108.642 133.1C106.565 133.217 104.939 134.86 103.571 136.436C101.363 138.964 98.9407 141.297 96.3317 143.409C93.8297 145.385 91.4111 146.745 88.2252 146.653C82.9794 146.536 78.6842 142.416 75.7903 138.038C73.119 134.001 71.1455 129.543 69.9523 124.852" fill="black"/>
</g>
<path d="M131.335 117.196C131.382 117.348 131.413 117.504 131.426 117.663C131.426 117.971 131.526 118.422 131.585 119.006C131.71 120.173 131.835 121.866 131.885 124.01C131.998 129.492 131.475 134.969 130.326 140.331V140.464V140.598H130.2C127.236 141.293 124.141 141.21 121.218 140.356C118.828 139.717 116.569 138.661 114.546 137.237C113.177 136.306 111.949 135.183 110.902 133.901C110.62 133.555 110.358 133.193 110.118 132.817C110.024 132.688 109.943 132.552 109.876 132.408C111.236 134.187 112.869 135.741 114.713 137.012C116.725 138.371 118.953 139.38 121.302 139.997C124.162 140.805 127.18 140.877 130.075 140.206L129.917 140.364V140.231C131.053 134.896 131.612 129.455 131.585 124.001C131.585 121.908 131.493 120.215 131.426 119.039C131.426 118.497 131.368 118.055 131.343 117.696C131.316 117.531 131.313 117.362 131.335 117.196Z" fill="#263238"/>
<path d="M105.998 133.651C105.932 133.829 105.842 133.997 105.731 134.151C105.452 134.614 105.145 135.059 104.813 135.486C103.568 137.04 102.196 138.488 100.71 139.814C99.7845 140.648 98.7419 141.574 97.616 142.525C97.0489 143 96.4818 143.5 95.848 144.001C95.1952 144.493 94.5067 144.937 93.788 145.327C92.2443 146.178 90.54 146.698 88.784 146.853C86.8681 147.016 84.9481 146.591 83.2796 145.635C81.6552 144.668 80.199 143.442 78.9678 142.008C77.8006 140.708 76.7144 139.337 75.7152 137.904C74.031 135.473 72.6081 132.87 71.4702 130.14C70.7076 128.304 70.0832 126.414 69.602 124.485C69.4268 123.801 69.3184 123.268 69.2517 122.901C69.2054 122.718 69.1774 122.53 69.1683 122.342C69.2447 122.515 69.3007 122.697 69.3351 122.884C69.4352 123.243 69.5686 123.768 69.7605 124.443C70.3076 126.343 70.9733 128.207 71.7537 130.023C72.9222 132.711 74.3613 135.274 76.0488 137.671C77.0435 139.084 78.1242 140.435 79.2847 141.716C80.4758 143.113 81.8838 144.31 83.4547 145.26C85.0509 146.171 86.8855 146.578 88.7173 146.428C90.4227 146.281 92.0802 145.787 93.5878 144.977C94.2955 144.601 94.9731 144.172 95.6145 143.692C96.2233 143.225 96.8071 142.716 97.3742 142.249C98.5084 141.307 99.5593 140.423 100.493 139.589C101.984 138.303 103.378 136.91 104.663 135.419C105.105 134.885 105.431 134.443 105.647 134.143C105.75 133.969 105.867 133.804 105.998 133.651Z" fill="#263238"/>
<path d="M88.0334 229.477L94.4635 220.103C94.4635 220.103 98.8837 204.741 98.2832 202.589C97.6828 200.438 95.7312 192.431 96.1899 192.331C96.6486 192.231 101.461 190.446 104.071 196.868C105.698 200.871 106.231 206.142 106.406 209.545C106.426 209.965 106.536 210.377 106.729 210.75C106.922 211.124 107.195 211.452 107.527 211.71C107.859 211.968 108.243 212.152 108.653 212.247C109.063 212.343 109.489 212.348 109.901 212.264C114.346 211.346 121.744 209.953 123.503 210.379C126.055 210.988 128.341 214.24 128.557 215.333C128.774 216.425 127.023 218.886 127.023 218.886C127.023 218.886 129.191 219.995 129.858 221.671C129.95 221.896 130.025 222.122 130.092 222.338C130.296 223.01 130.32 223.724 130.164 224.408C130.007 225.093 129.675 225.725 129.2 226.241L128.516 226.992C128.516 226.992 131.226 227.734 131.56 229.286C131.741 230.418 131.71 231.575 131.468 232.697L128.924 235.324C129.633 235.985 130.098 236.867 130.242 237.826C130.376 239.26 126.564 242.83 126.564 242.83L110.209 248.668L103.721 250.336L88.0334 229.477Z" fill="#B78876"/>
<path d="M127.073 218.902C125.204 219.405 123.311 219.814 121.402 220.128C119.526 220.587 117.627 220.949 115.714 221.212C116.226 220.962 116.766 220.774 117.323 220.654C118.333 220.37 119.742 220.02 121.318 219.703C122.895 219.386 124.321 219.152 125.372 219.019C125.931 218.904 126.503 218.865 127.073 218.902Z" fill="#AA6550"/>
<path d="M128.566 226.992C127.176 227.644 125.726 228.161 124.237 228.535C122.792 229.053 121.301 229.433 119.784 229.669C121.174 229.017 122.623 228.501 124.112 228.126C125.557 227.608 127.049 227.228 128.566 226.992Z" fill="#AA6550"/>
<path d="M129.542 234.973C128.077 235.851 126.539 236.601 124.946 237.217C123.411 237.968 121.816 238.588 120.176 239.068C121.641 238.191 123.178 237.44 124.771 236.825C126.306 236.073 127.902 235.454 129.542 234.973Z" fill="#AA6550"/>
<path d="M50.3533 287.407L110.501 247.058L95.3225 219.536L40.4287 247.767L46.6587 218.11L9.40386 207.084L0.0797451 257.875C-1.35473 280.46 16.7597 298.691 38.5939 292.761C42.7792 291.629 46.7514 289.821 50.3533 287.407Z" fill="#B78876"/>
<path d="M32.4807 263.73C32.3722 263.489 32.3019 263.233 32.2722 262.971C32.1484 262.268 32.0787 261.557 32.0637 260.844C32.0323 258.471 32.5639 256.125 33.6149 253.997C34.6805 251.875 36.2391 250.039 38.1602 248.643C38.7326 248.218 39.3409 247.844 39.9783 247.525C40.207 247.392 40.4544 247.293 40.7122 247.233C40.7122 247.308 39.7365 247.784 38.3437 248.901C36.52 250.325 35.0374 252.139 34.0043 254.21C32.9712 256.28 32.4136 258.555 32.3722 260.869C32.3305 262.62 32.6058 263.721 32.4807 263.73Z" fill="#AA6550"/>
<path d="M186.946 199.62C187.321 199.103 229.78 224.974 229.78 224.974L243.391 286.982L262.982 294.171C262.982 294.171 269.095 225.166 264.441 214.424C259.787 203.682 212.608 165.034 212.608 165.034L186.946 199.62Z" fill="#B78876"/>
<path d="M239.054 220.22C238.109 221.642 236.851 222.828 235.376 223.689C233.978 224.674 232.376 225.329 230.689 225.608C232.213 224.925 233.699 224.162 235.143 223.322C236.503 222.362 237.809 221.326 239.054 220.22Z" fill="#AA6550"/>
<path d="M135.88 199.754L139.208 259.268L207.062 254.681L205.01 210.379L195.127 197.076L135.88 199.754Z" fill="#263238"/>
<path d="M120.459 260.594C120.659 261.736 126.422 315.638 126.422 315.638L227.411 308.624L244.5 306.33L236.619 256.14L224.551 253.246L120.459 260.594Z" fill="#6F66BA"/>
<path opacity="0.4" d="M224.551 253.238L120.459 260.594C120.659 261.737 126.422 315.638 126.422 315.638L231.565 308.324L224.551 253.238Z" fill="black"/>
<path d="M196.887 255.365L139.208 259.268L135.88 199.754L195.127 197.076L196.887 255.365Z" fill="#455A64"/>
<path d="M157.389 198.786L158.606 217.126L161.692 215.358L163.402 217.126L165.529 215.358L168.815 217.126V198.269L157.389 198.786Z" fill="#263238"/>
<path d="M181.5 256.616L177.555 211.947L216.111 222.572L219.83 253.405L181.5 256.616Z" fill="#6F66BA"/>
<path d="M216.086 222.58C216.017 222.694 215.936 222.801 215.844 222.897L215.102 223.773L212.266 227.009L202.416 238.059L202.266 238.226L202.108 238.067L196.904 232.563L183.168 218.051L179.039 213.615L177.93 212.397C177.793 212.262 177.672 212.111 177.572 211.947C177.724 212.062 177.866 212.19 177.997 212.33L179.165 213.498L183.385 217.835L197.212 232.263L202.45 237.776H202.141L212.149 226.825L215.077 223.673L215.869 222.839C215.932 222.745 216.005 222.659 216.086 222.58Z" fill="#263238"/>
<path d="M194.493 230.854C194.602 230.912 191.85 236.183 188.355 242.63C184.861 249.076 181.942 254.256 181.833 254.197C181.725 254.139 184.477 248.868 187.972 242.421C191.466 235.974 194.402 230.795 194.493 230.854Z" fill="#263238"/>
<path d="M218.93 253.405C218.83 253.463 216.161 249.193 212.967 243.872C209.772 238.551 207.262 234.173 207.37 234.106C207.479 234.039 210.139 238.318 213.334 243.647C216.528 248.976 219.038 253.346 218.93 253.405Z" fill="#263238"/>
<path d="M202.208 254.873L199.689 226.425L224.242 233.197L226.611 252.829L202.208 254.873Z" fill="#6F66BA"/>
<path opacity="0.4" d="M202.208 254.873L199.689 226.425L224.242 233.197L226.611 252.829L202.208 254.873Z" fill="white"/>
<path d="M224.242 233.197C224.067 233.476 223.863 233.736 223.633 233.972C223.175 234.515 222.574 235.207 221.849 236.049L215.594 243.105L215.444 243.28L215.285 243.113L211.949 239.61C208.521 236.016 205.436 232.738 203.217 230.353L200.615 227.509C200.278 227.175 199.971 226.812 199.698 226.425C200.068 226.719 200.414 227.042 200.732 227.392L203.442 230.136C205.719 232.471 208.838 235.716 212.266 239.31L215.602 242.821H215.252L221.615 235.866L223.5 233.872C223.726 233.624 223.974 233.398 224.242 233.197Z" fill="#263238"/>
<path d="M210.481 238.468C210.581 238.526 208.863 241.896 206.637 245.974C205.359 248.489 203.95 250.936 202.416 253.305C203.564 250.738 204.844 248.232 206.253 245.799C207.531 243.282 208.943 240.835 210.481 238.468Z" fill="#263238"/>
<path d="M226.044 252.829C224.634 250.899 223.342 248.885 222.174 246.799C220.878 244.787 219.711 242.695 218.679 240.536C221.372 244.487 223.831 248.592 226.044 252.829Z" fill="#263238"/>
<path d="M217.854 231.996V234.281L221.44 234.698L221.632 232.955L217.854 231.996Z" fill="white"/>
<path d="M205.194 220.395V223.731L211.966 224.849L212.341 222.297L205.194 220.395Z" fill="white"/>
<path d="M178.764 273.246L178.431 256.616L164.945 257.525L166.388 274.422L178.764 273.246Z" fill="#6F66BA"/>
<path d="M222.742 281.983L200.1 284.131L202 304.157L224.642 302.009L222.742 281.983Z" fill="#FAFAFA"/>
<path d="M224.609 302.035C224.581 301.909 224.562 301.781 224.551 301.652C224.551 301.377 224.476 301.018 224.426 300.568C224.326 299.6 224.176 298.224 223.992 296.498C223.633 292.978 223.158 288.007 222.524 282.028L222.724 282.195L200.098 284.371C200.048 284.421 200.465 283.929 200.29 284.138V284.288V284.463V284.797L200.357 285.48L200.482 286.832C200.573 287.724 200.657 288.608 200.74 289.492C200.899 291.252 201.065 292.97 201.224 294.654C201.532 297.99 201.833 301.201 202.1 304.145L201.891 303.979L218.229 302.527L222.866 302.135L224.109 302.044C224.256 302.032 224.404 302.032 224.551 302.044C224.422 302.074 224.291 302.093 224.159 302.102L222.958 302.244L218.371 302.728L201.933 304.396H201.741V304.204C201.449 301.251 201.14 298.066 200.815 294.713C200.66 293.045 200.495 291.324 200.323 289.55C200.24 288.666 200.156 287.782 200.073 286.882C200.031 286.44 199.99 285.989 199.94 285.539L199.881 284.855V284.521V284.346V284.196C199.706 284.405 200.115 283.904 200.081 283.954L222.716 281.844H222.9V282.028C223.433 288.058 223.875 293.078 224.192 296.631C224.334 298.341 224.442 299.7 224.526 300.668C224.526 301.11 224.584 301.46 224.601 301.727C224.611 301.829 224.614 301.932 224.609 302.035Z" fill="#263238"/>
<path d="M220.94 286.806C220.94 286.932 216.995 287.44 212.099 287.957C209.152 288.345 206.188 288.585 203.217 288.675C203.217 288.558 207.162 288.041 212.058 287.524C216.953 287.007 220.931 286.69 220.94 286.806Z" fill="#263238"/>
<path d="M220.806 290.209C220.019 290.492 219.206 290.696 218.379 290.818C216.861 291.118 214.751 291.469 212.408 291.744C210.064 292.019 207.921 292.169 206.378 292.219C205.546 292.294 204.708 292.294 203.876 292.219C204.701 292.056 205.538 291.961 206.378 291.936C207.913 291.794 210.031 291.602 212.366 291.327C214.701 291.052 216.811 290.751 218.338 290.493C219.152 290.337 219.977 290.242 220.806 290.209Z" fill="#263238"/>
<path d="M221.765 297.648C220.975 297.929 220.159 298.133 219.33 298.257C217.812 298.558 215.702 298.908 213.359 299.183C211.015 299.458 208.88 299.608 207.329 299.658C206.497 299.739 205.659 299.739 204.827 299.658C205.652 299.495 206.488 299.4 207.329 299.375C208.863 299.241 210.99 299.041 213.325 298.766C215.66 298.491 217.77 298.191 219.297 297.932C220.111 297.776 220.936 297.681 221.765 297.648Z" fill="#263238"/>
<path d="M220.623 293.837C217.901 294.453 215.147 294.92 212.374 295.238C209.613 295.707 206.83 296.03 204.034 296.206C206.758 295.6 209.511 295.132 212.283 294.805C215.044 294.341 217.828 294.018 220.623 293.837Z" fill="#263238"/>
<path d="M240.614 324.853C240.614 324.853 259.254 312.519 260.688 306.214C262.123 299.909 262.982 294.171 262.982 294.171L243.066 285.922L245.042 293.095C245.042 293.095 237.903 297.34 237.169 302.486C236.686 305.913 227.453 311.785 227.453 311.785C226.685 310.857 225.708 310.124 224.602 309.647C223.495 309.17 222.292 308.962 221.09 309.041L213.334 309.591L218.579 321.409L240.614 324.853Z" fill="#B78876"/>
<path d="M247.895 307.948C247.624 308.114 247.328 308.235 247.019 308.307C246.435 308.499 245.568 308.691 244.517 309.024C243.33 309.446 242.233 310.085 241.281 310.909C240.081 311.933 238.738 312.775 237.294 313.411C234.624 314.548 231.66 314.797 228.838 314.12C228.342 314.024 227.866 313.847 227.428 313.595C227.249 313.493 227.104 313.341 227.012 313.157C226.919 312.972 226.884 312.765 226.911 312.561C226.925 312.434 226.971 312.312 227.043 312.207C227.116 312.103 227.214 312.018 227.328 311.96C227.495 311.902 227.587 311.96 227.587 311.96C227.587 311.96 227.495 311.96 227.37 312.052C227.282 312.115 227.211 312.198 227.16 312.293C227.109 312.389 227.081 312.494 227.078 312.602C227.062 312.774 227.1 312.947 227.187 313.096C227.274 313.246 227.405 313.364 227.562 313.436C227.988 313.646 228.443 313.789 228.913 313.862C231.672 314.423 234.537 314.133 237.128 313.028C238.538 312.4 239.853 311.574 241.031 310.576C242.03 309.746 243.179 309.117 244.417 308.724C245.484 308.424 246.352 308.282 246.919 308.132C247.239 308.045 247.565 307.984 247.895 307.948Z" fill="#AA6550"/>
<path d="M234.984 317.514C234.984 317.581 234.025 317.031 232.44 316.372C230.375 315.527 228.198 314.985 225.977 314.762C225.326 314.695 224.684 314.679 224.067 314.662H223.95L223.884 314.562C222.918 313.051 221.754 311.676 220.423 310.475C219.413 309.566 218.755 309.099 218.755 309.049C218.755 308.999 218.955 309.116 219.272 309.316C219.722 309.607 220.156 309.922 220.573 310.258C221.994 311.418 223.224 312.794 224.217 314.337L224.042 314.237C224.676 314.237 225.326 314.237 225.994 314.337C228.259 314.555 230.471 315.15 232.541 316.096C233.164 316.38 233.768 316.703 234.35 317.064C234.584 317.18 234.798 317.332 234.984 317.514Z" fill="#AA6550"/>
<path d="M240.022 314.128C240.022 314.245 238.762 314.721 237.294 315.555C235.827 316.389 234.751 317.264 234.667 317.164C236.044 315.559 237.938 314.486 240.022 314.128Z" fill="#AA6550"/>
<path d="M250.121 291.944C250.121 292.077 248.82 291.944 247.336 292.319C245.851 292.694 244.834 293.462 244.717 293.353C245.407 292.652 246.273 292.151 247.225 291.903C248.176 291.655 249.177 291.669 250.121 291.944Z" fill="#AA6550"/>
</svg>
